ComicJensPro-Regular3.000.ufo
<glyph name="quotedbl" format="2">
	<unicode hex="0022"/>
	<advance width="442"/>
	<outline>
		<contour>
			<point x="88" y="601" type="qcurve"/>
			<point x="91" y="625"/>
			<point x="120" y="651"/>
			<point x="140" y="651" type="qcurve"/>
			<point x="162" y="651"/>
			<point x="193" y="618"/>
			<point x="192" y="590" type="qcurve"/>
			<point x="190" y="544"/>
			<point x="183" y="453"/>
			<point x="177" y="401" type="qcurve"/>
			<point x="175" y="379"/>
			<point x="149" y="351"/>
			<point x="128" y="351" type="qcurve"/>
			<point x="106" y="351"/>
			<point x="83" y="383"/>
			<point x="82" y="409" type="qcurve"/>
			<point x="80" y="460"/>
			<point x="83" y="556"/>
		</contour>
		<contour>
			<point x="262" y="624" type="qcurve"/>
			<point x="264" y="647"/>
			<point x="296" y="672"/>
			<point x="317" y="672" type="qcurve"/>
			<point x="337" y="672"/>
			<point x="367" y="644"/>
			<point x="367" y="622" type="qcurve"/>
			<point x="367" y="562"/>
			<point x="357" y="453"/>
			<point x="349" y="403" type="qcurve"/>
			<point x="346" y="381"/>
			<point x="322" y="353"/>
			<point x="301" y="353" type="qcurve"/>
			<point x="279" y="353"/>
			<point x="254" y="385"/>
			<point x="254" y="411" type="qcurve"/>
			<point x="253" y="465"/>
			<point x="257" y="570"/>
		</contour>
	</outline>
</glyph>
<glyph name="numbersign" format="2">
	<unicode hex="0023"/>
	<advance width="712"/>
	<outline>
		<contour>
			<point x="381" y="46" type="qcurve"/>
			<point x="387" y="78"/>
			<point x="398" y="144"/>
			<point x="403" y="177" type="qcurve"/>
			<point x="254" y="173" type="line"/>
			<point x="247" y="131"/>
			<point x="232" y="49"/>
			<point x="224" y="7" type="qcurve"/>
			<point x="219" y="-16"/>
			<point x="192" y="-43"/>
			<point x="172" y="-43" type="qcurve"/>
			<point x="149" y="-43"/>
			<point x="124" y="-5"/>
			<point x="129" y="25" type="qcurve"/>
			<point x="153" y="169" type="line"/>
			<point x="97" y="167" type="line"/>
			<point x="71" y="166"/>
			<point x="39" y="194"/>
			<point x="39" y="217" type="qcurve"/>
			<point x="39" y="238"/>
			<point x="67" y="262"/>
			<point x="90" y="263" type="qcurve"/>
			<point x="167" y="266" type="line"/>
			<point x="173" y="310"/>
			<point x="185" y="395"/>
			<point x="190" y="438" type="qcurve"/>
			<point x="124" y="432" type="line"/>
			<point x="94" y="429"/>
			<point x="61" y="456"/>
			<point x="61" y="479" type="qcurve"/>
			<point x="61" y="504"/>
			<point x="96" y="531"/>
			<point x="127" y="533" type="qcurve"/>
			<point x="202" y="539" type="line"/>
			<point x="212" y="638" type="line"/>
			<point x="214" y="662"/>
			<point x="245" y="691"/>
			<point x="265" y="691" type="qcurve"/>
			<point x="289" y="691"/>
			<point x="314" y="655"/>
			<point x="312" y="627" type="qcurve"/>
			<point x="304" y="544" type="line"/>
			<point x="341" y="546"/>
			<point x="414" y="548"/>
			<point x="451" y="548" type="qcurve"/>
			<point x="454" y="574"/>
			<point x="459" y="623"/>
			<point x="461" y="649" type="qcurve"/>
			<point x="463" y="672"/>
			<point x="492" y="700"/>
			<point x="513" y="700" type="qcurve"/>
			<point x="539" y="700"/>
			<point x="565" y="664"/>
			<point x="562" y="636" type="qcurve"/>
			<point x="553" y="548" type="line"/>
			<point x="590" y="548" type="line"/>
			<point x="613" y="547"/>
			<point x="644" y="521"/>
			<point x="644" y="500" type="qcurve"/>
			<point x="644" y="480"/>
			<point x="614" y="453"/>
			<point x="590" y="452" type="qcurve"/>
			<point x="542" y="450" type="line"/>
			<point x="531" y="359"/>
			<point x="518" y="274" type="qcurve"/>
			<point x="622" y="274" type="line"/>
			<point x="645" y="274"/>
			<point x="676" y="248"/>
			<point x="676" y="228" type="qcurve"/>
			<point x="676" y="208"/>
			<point x="645" y="179"/>
			<point x="622" y="179" type="qcurve"/>
			<point x="562" y="179" type="line"/>
			<point x="533" y="179"/>
			<point x="503" y="178" type="qcurve"/>
			<point x="491" y="104"/>
			<point x="476" y="35" type="qcurve"/>
			<point x="464" y="-25"/>
			<point x="422" y="-25" type="qcurve"/>
			<point x="398" y="-25"/>
			<point x="375" y="14"/>
		</contour>
		<contour>
			<point x="293" y="444" type="qcurve"/>
			<point x="288" y="400"/>
			<point x="277" y="314"/>
			<point x="270" y="269" type="qcurve"/>
			<point x="343" y="272"/>
			<point x="417" y="272" type="qcurve"/>
			<point x="424" y="317"/>
			<point x="435" y="404"/>
			<point x="440" y="449" type="qcurve"/>
			<point x="403" y="448"/>
			<point x="330" y="446"/>
		</contour>
	</outline>
</glyph>
<glyph name="dollar" format="2">
	<unicode hex="0024"/>
	<advance width="493"/>
	<outline>
		<contour>
			<point x="144" y="-83" type="qcurve"/>
			<point x="146" y="-66"/>
			<point x="152" y="-30"/>
			<point x="155" y="-13" type="qcurve"/>
			<point x="122" y="-3"/>
			<point x="75" y="31"/>
			<point x="62" y="49" type="qcurve"/>
			<point x="48" y="68"/>
			<point x="51" y="103"/>
			<point x="72" y="124"/>
			<point x="105" y="125"/>
			<point x="122" y="111" type="qcurve"/>
			<point x="146" y="90"/>
			<point x="169" y="82" type="qcurve"/>
			<point x="179" y="150"/>
			<point x="198" y="284"/>
			<point x="207" y="352" type="qcurve"/>
			<point x="185" y="362"/>
			<point x="137" y="396"/>
			<point x="99" y="444"/>
			<point x="79" y="508"/>
			<point x="86" y="549" type="qcurve"/>
			<point x="96" y="609"/>
			<point x="184" y="691"/>
			<point x="252" y="699" type="qcurve"/>
			<point x="260" y="767" type="line"/>
			<point x="263" y="790"/>
			<point x="292" y="817"/>
			<point x="312" y="817" type="qcurve"/>
			<point x="336" y="817"/>
			<point x="363" y="783"/>
			<point x="360" y="757" type="qcurve"/>
			<point x="351" y="691" type="line"/>
			<point x="369" y="685"/>
			<point x="399" y="669"/>
			<point x="410" y="661" type="qcurve"/>
			<point x="426" y="648"/>
			<point x="435" y="616"/>
			<point x="424" y="589"/>
			<point x="397" y="574"/>
			<point x="379" y="580" type="qcurve"/>
			<point x="371" y="582"/>
			<point x="352" y="591"/>
			<point x="339" y="596" type="qcurve"/>
			<point x="313" y="413" type="line"/>
			<point x="346" y="396"/>
			<point x="398" y="352"/>
			<point x="430" y="292"/>
			<point x="439" y="212"/>
			<point x="429" y="159" type="qcurve"/>
			<point x="423" y="127"/>
			<point x="392" y="67"/>
			<point x="345" y="19"/>
			<point x="282" y="-15"/>
			<point x="245" y="-20" type="qcurve"/>
			<point x="234" y="-89" type="line"/>
			<point x="230" y="-112"/>
			<point x="207" y="-141"/>
			<point x="187" y="-141" type="qcurve"/>
			<point x="164" y="-141"/>
			<point x="140" y="-107"/>
		</contour>
		<contour>
			<point x="331" y="180" type="qcurve"/>
			<point x="339" y="220"/>
			<point x="324" y="280"/>
			<point x="297" y="304" type="qcurve"/>
			<point x="289" y="248"/>
			<point x="271" y="138"/>
			<point x="262" y="82" type="qcurve"/>
			<point x="291" y="94"/>
			<point x="323" y="145"/>
		</contour>
		<contour>
			<point x="184" y="531" type="qcurve"/>
			<point x="182" y="510"/>
			<point x="199" y="476"/>
			<point x="221" y="460" type="qcurve"/>
			<point x="239" y="599" type="line"/>
			<point x="217" y="591"/>
			<point x="186" y="558"/>
		</contour>
	</outline>
</glyph>
<glyph name="percent" format="2">
	<unicode hex="0025"/>
	<advance width="671"/>
	<outline>
		<contour>
			<point x="149" y="378" type="qcurve"/>
			<point x="114" y="378"/>
			<point x="63" y="406"/>
			<point x="30" y="453"/>
			<point x="17" y="516"/>
			<point x="20" y="552" type="qcurve"/>
			<point x="23" y="583"/>
			<point x="49" y="645"/>
			<point x="92" y="695"/>
			<point x="154" y="725"/>
			<point x="193" y="725" type="qcurve"/>
			<point x="241" y="725"/>
			<point x="299" y="680"/>
			<point x="329" y="617"/>
			<point x="332" y="547"/>
			<point x="325" y="523" type="qcurve"/>
			<point x="316" y="494"/>
			<point x="284" y="442"/>
			<point x="239" y="402"/>
			<point x="182" y="378"/>
		</contour>
		<contour>
			<point x="471" y="653" type="qcurve"/>
			<point x="482" y="668"/>
			<point x="507" y="681"/>
			<point x="519" y="681" type="qcurve"/>
			<point x="533" y="681"/>
			<point x="556" y="667"/>
			<point x="568" y="644"/>
			<point x="565" y="613"/>
			<point x="554" y="597" type="qcurve"/>
			<point x="457" y="457"/>
			<point x="261" y="167"/>
			<point x="172" y="14" type="qcurve"/>
			<point x="161" y="-3"/>
			<point x="137" y="-19"/>
			<point x="125" y="-19" type="qcurve"/>
			<point x="114" y="-19"/>
			<point x="96" y="-7"/>
			<point x="86" y="13"/>
			<point x="87" y="41"/>
			<point x="95" y="57" type="qcurve"/>
			<point x="130" y="126"/>
			<point x="223" y="283"/>
			<point x="325" y="440"/>
			<point x="427" y="590"/>
		</contour>
		<contour>
			<point x="471" y="-9" type="qcurve"/>
			<point x="443" y="-9"/>
			<point x="395" y="11"/>
			<point x="360" y="49"/>
			<point x="342" y="106"/>
			<point x="345" y="143" type="qcurve"/>
			<point x="348" y="180"/>
			<point x="379" y="246"/>
			<point x="426" y="296"/>
			<point x="486" y="325"/>
			<point x="518" y="325" type="qcurve"/>
			<point x="548" y="325"/>
			<point x="597" y="301"/>
			<point x="629" y="254"/>
			<point x="641" y="186"/>
			<point x="635" y="142" type="qcurve"/>
			<point x="630" y="112"/>
			<point x="603" y="57"/>
			<point x="560" y="15"/>
			<point x="504" y="-9"/>
		</contour>
		<contour>
			<point x="155" y="468" type="qcurve"/>
			<point x="179" y="468"/>
			<point x="222" y="509"/>
			<point x="229" y="548" type="qcurve"/>
			<point x="232" y="564"/>
			<point x="229" y="595"/>
			<point x="217" y="620"/>
			<point x="197" y="635"/>
			<point x="183" y="635" type="qcurve"/>
			<point x="158" y="635"/>
			<point x="126" y="583"/>
			<point x="121" y="548" type="qcurve"/>
			<point x="119" y="533"/>
			<point x="120" y="504"/>
			<point x="127" y="482"/>
			<point x="143" y="468"/>
		</contour>
		<contour>
			<point x="539" y="160" type="qcurve"/>
			<point x="544" y="195"/>
			<point x="527" y="233"/>
			<point x="509" y="233" type="qcurve"/>
			<point x="497" y="233"/>
			<point x="476" y="219"/>
			<point x="458" y="195"/>
			<point x="446" y="164"/>
			<point x="444" y="148" type="qcurve"/>
			<point x="440" y="119"/>
			<point x="455" y="81"/>
			<point x="475" y="81" type="qcurve"/>
			<point x="496" y="81"/>
			<point x="534" y="123"/>
		</contour>
	</outline>
</glyph>
<glyph name="ampersand" format="2">
	<unicode hex="0026"/>
	<advance width="675"/>
	<outline>
		<contour>
			<point x="208" y="-7" type="qcurve"/>
			<point x="169" y="-7"/>
			<point x="105" y="10"/>
			<point x="61" y="45"/>
			<point x="37" y="100"/>
			<point x="38" y="138" type="qcurve"/>
			<point x="38" y="172"/>
			<point x="60" y="233"/>
			<point x="95" y="287"/>
			<point x="141" y="335"/>
			<point x="166" y="357" type="qcurve"/>
			<point x="140" y="419"/>
			<point x="143" y="471" type="qcurve"/>
			<point x="144" y="512"/>
			<point x="175" y="579"/>
			<point x="224" y="627"/>
			<point x="286" y="653"/>
			<point x="319" y="653" type="qcurve"/>
			<point x="369" y="653"/>
			<point x="433" y="595"/>
			<point x="433" y="544" type="qcurve"/>
			<point x="433" y="514"/>
			<point x="407" y="460"/>
			<point x="365" y="411"/>
			<point x="312" y="364"/>
			<point x="285" y="341" type="qcurve"/>
			<point x="297" y="322"/>
			<point x="327" y="284"/>
			<point x="345" y="264" type="qcurve"/>
			<point x="383" y="220"/>
			<point x="438" y="174" type="qcurve"/>
			<point x="471" y="195"/>
			<point x="535" y="242"/>
			<point x="567" y="267" type="qcurve"/>
			<point x="592" y="286"/>
			<point x="629" y="281"/>
			<point x="645" y="252"/>
			<point x="634" y="207"/>
			<point x="610" y="187" type="qcurve"/>
			<point x="586" y="167"/>
			<point x="539" y="129"/>
			<point x="515" y="112" type="qcurve"/>
			<point x="540" y="94"/>
			<point x="592" y="57"/>
			<point x="620" y="38" type="qcurve"/>
			<point x="642" y="23"/>
			<point x="647" y="-15"/>
			<point x="626" y="-42"/>
			<point x="586" y="-51"/>
			<point x="564" y="-37" type="qcurve"/>
			<point x="526" y="-13"/>
			<point x="457" y="33"/>
			<point x="427" y="56" type="qcurve"/>
			<point x="370" y="26"/>
			<point x="261" y="-7"/>
		</contour>
		<contour>
			<point x="210" y="87" type="qcurve"/>
			<point x="243" y="87"/>
			<point x="312" y="105"/>
			<point x="347" y="122" type="qcurve"/>
			<point x="324" y="143"/>
			<point x="283" y="185"/>
			<point x="266" y="205" type="qcurve"/>
			<point x="250" y="223"/>
			<point x="222" y="258"/>
			<point x="211" y="275" type="qcurve"/>
			<point x="182" y="246"/>
			<point x="143" y="182"/>
			<point x="143" y="146" type="qcurve"/>
			<point x="143" y="87"/>
		</contour>
		<contour>
			<point x="242" y="476" type="qcurve"/>
			<point x="240" y="448"/>
			<point x="246" y="425" type="qcurve"/>
			<point x="281" y="454"/>
			<point x="327" y="506"/>
			<point x="327" y="537" type="qcurve"/>
			<point x="327" y="559"/>
			<point x="308" y="559" type="qcurve"/>
			<point x="284" y="559"/>
			<point x="244" y="511"/>
		</contour>
	</outline>
</glyph>
<glyph name="parenleft" format="2">
	<unicode hex="0028"/>
	<advance width="461"/>
	<outline>
		<contour>
			<point x="364" y="-112" type="qcurve"/>
			<point x="353" y="-112"/>
			<point x="326" y="-106"/>
			<point x="313" y="-101" type="qcurve"/>
			<point x="260" y="-83"/>
			<point x="172" y="-16"/>
			<point x="110" y="82"/>
			<point x="77" y="210"/>
			<point x="80" y="288" type="qcurve"/>
			<point x="85" y="425"/>
			<point x="206" y="634"/>
			<point x="321" y="693" type="qcurve"/>
			<point x="334" y="700"/>
			<point x="355" y="705"/>
			<point x="364" y="705" type="qcurve"/>
			<point x="380" y="705"/>
			<point x="398" y="689"/>
			<point x="402" y="665"/>
			<point x="392" y="640"/>
			<point x="380" y="631" type="qcurve"/>
			<point x="331" y="596"/>
			<point x="260" y="527"/>
			<point x="212" y="446"/>
			<point x="188" y="345"/>
			<point x="187" y="278" type="qcurve"/>
			<point x="186" y="206"/>
			<point x="214" y="100"/>
			<point x="265" y="25"/>
			<point x="336" y="-24"/>
			<point x="379" y="-39" type="qcurve"/>
			<point x="395" y="-45"/>
			<point x="408" y="-69"/>
			<point x="404" y="-93"/>
			<point x="383" y="-112"/>
		</contour>
	</outline>
</glyph>
<glyph name="asterisk" format="2">
	<unicode hex="002A"/>
	<advance width="691"/>
	<outline>
		<contour>
			<point x="447" y="282" type="qcurve"/>
			<point x="421" y="319"/>
			<point x="370" y="393"/>
			<point x="342" y="429" type="qcurve"/>
			<point x="319" y="385"/>
			<point x="280" y="294"/>
			<point x="260" y="248" type="qcurve"/>
			<point x="251" y="226"/>
			<point x="224" y="207"/>
			<point x="210" y="207" type="qcurve"/>
			<point x="190" y="207"/>
			<point x="167" y="239"/>
			<point x="177" y="270" type="qcurve"/>
			<point x="188" y="305"/>
			<point x="218" y="377"/>
			<point x="238" y="415" type="qcurve"/>
			<point x="206" y="406"/>
			<point x="143" y="387"/>
			<point x="113" y="379" type="qcurve"/>
			<point x="83" y="371"/>
			<point x="52" y="398"/>
			<point x="52" y="419" type="qcurve"/>
			<point x="52" y="434"/>
			<point x="70" y="463"/>
			<point x="90" y="470" type="qcurve"/>
			<point x="122" y="481"/>
			<point x="213" y="504"/>
			<point x="264" y="516" type="qcurve"/>
			<point x="236" y="545"/>
			<point x="176" y="597"/>
			<point x="144" y="623" type="qcurve"/>
			<point x="125" y="638"/>
			<point x="124" y="674"/>
			<point x="145" y="700"/>
			<point x="181" y="709"/>
			<point x="199" y="696" type="qcurve"/>
			<point x="231" y="673"/>
			<point x="295" y="615"/>
			<point x="327" y="581" type="qcurve"/>
			<point x="346" y="616"/>
			<point x="385" y="684"/>
			<point x="407" y="716" type="qcurve"/>
			<point x="418" y="731"/>
			<point x="443" y="744"/>
			<point x="455" y="744" type="qcurve"/>
			<point x="469" y="744"/>
			<point x="491" y="731"/>
			<point x="502" y="709"/>
			<point x="499" y="679"/>
			<point x="488" y="662" type="qcurve"/>
			<point x="468" y="633"/>
			<point x="430" y="578"/>
			<point x="412" y="549" type="qcurve"/>
			<point x="460" y="559"/>
			<point x="552" y="576"/>
			<point x="591" y="580" type="qcurve"/>
			<point x="616" y="582"/>
			<point x="644" y="559"/>
			<point x="647" y="529"/>
			<point x="626" y="500"/>
			<point x="604" y="496" type="qcurve"/>
			<point x="565" y="489"/>
			<point x="475" y="474"/>
			<point x="427" y="464" type="qcurve"/>
			<point x="455" y="429"/>
			<point x="506" y="359"/>
			<point x="528" y="325" type="qcurve"/>
			<point x="541" y="304"/>
			<point x="530" y="270"/>
			<point x="501" y="253"/>
			<point x="462" y="261"/>
		</contour>
	</outline>
</glyph>
<glyph name="plus" format="2">
	<unicode hex="002B"/>
	<advance width="595"/>
	<outline>
		<contour>
			<point x="291" y="59" type="qcurve"/>
			<point x="273" y="59"/>
			<point x="244" y="87"/>
			<point x="245" y="114" type="qcurve"/>
			<point x="247" y="192"/>
			<point x="245" y="272" type="qcurve"/>
			<point x="108" y="267" type="line"/>
			<point x="80" y="266"/>
			<point x="52" y="293"/>
			<point x="52" y="313" type="qcurve"/>
			<point x="52" y="334"/>
			<point x="81" y="363"/>
			<point x="110" y="366" type="qcurve"/>
			<point x="139" y="369"/>
			<point x="206" y="372"/>
			<point x="243" y="373" type="qcurve"/>
			<point x="238" y="511" type="line"/>
			<point x="236" y="537"/>
			<point x="267" y="563"/>
			<point x="287" y="563" type="qcurve"/>
			<point x="307" y="563"/>
			<point x="337" y="539"/>
			<point x="339" y="513" type="qcurve"/>
			<point x="342" y="480"/>
			<point x="346" y="410"/>
			<point x="347" y="374" type="qcurve"/>
			<point x="389" y="374"/>
			<point x="466" y="372"/>
			<point x="500" y="370" type="qcurve"/>
			<point x="524" y="369"/>
			<point x="547" y="341"/>
			<point x="547" y="308"/>
			<point x="523" y="281"/>
			<point x="500" y="281" type="qcurve"/>
			<point x="464" y="280"/>
			<point x="387" y="279"/>
			<point x="348" y="277" type="qcurve"/>
			<point x="348" y="230"/>
			<point x="344" y="146"/>
			<point x="341" y="113" type="qcurve"/>
			<point x="339" y="86"/>
			<point x="311" y="59"/>
		</contour>
	</outline>
</glyph>
<glyph name="slash" format="2">
	<unicode hex="002F"/>
	<advance width="441"/>
	<outline>
		<contour>
			<point x="47" y="-15" type="qcurve"/>
			<point x="26" y="-15"/>
			<point x="-1" y="21"/>
			<point x="10" y="55" type="qcurve"/>
			<point x="63" y="223"/>
			<point x="234" y="533"/>
			<point x="337" y="676" type="qcurve"/>
			<point x="351" y="695"/>
			<point x="380" y="710"/>
			<point x="394" y="710" type="qcurve"/>
			<point x="407" y="710"/>
			<point x="429" y="697"/>
			<point x="440" y="675"/>
			<point x="437" y="646"/>
			<point x="427" y="631" type="qcurve"/>
			<point x="330" y="488"/>
			<point x="160" y="185"/>
			<point x="100" y="27" type="qcurve"/>
			<point x="92" y="6"/>
			<point x="64" y="-15"/>
		</contour>
	</outline>
</glyph>
<glyph name="zero" format="2">
	<unicode hex="0030"/>
	<advance width="624"/>
	<outline>
		<contour>
			<point x="432" y="539" type="qcurve"/>
			<point x="465" y="525"/>
			<point x="512" y="472"/>
			<point x="542" y="402"/>
			<point x="554" y="319"/>
			<point x="551" y="276" type="qcurve"/>
			<point x="547" y="224"/>
			<point x="508" y="119"/>
			<point x="438" y="34"/>
			<point x="339" y="-19"/>
			<point x="276" y="-19" type="qcurve"/>
			<point x="221" y="-19"/>
			<point x="138" y="23"/>
			<point x="85" y="104"/>
			<point x="66" y="221"/>
			<point x="76" y="296" type="qcurve"/>
			<point x="84" y="355"/>
			<point x="129" y="459"/>
			<point x="198" y="536"/>
			<point x="290" y="581"/>
			<point x="345" y="581" type="qcurve"/>
			<point x="379" y="581"/>
			<point x="424" y="559"/>
		</contour>
		<contour>
			<point x="353" y="490" type="qcurve"/>
			<point x="303" y="484"/>
			<point x="239" y="441"/>
			<point x="201" y="381"/>
			<point x="184" y="313"/>
			<point x="181" y="282" type="qcurve"/>
			<point x="175" y="225"/>
			<point x="182" y="147"/>
			<point x="206" y="99"/>
			<point x="246" y="77"/>
			<point x="273" y="77" type="qcurve"/>
			<point x="312" y="77"/>
			<point x="374" y="112"/>
			<point x="418" y="170"/>
			<point x="444" y="247"/>
			<point x="447" y="288" type="qcurve"/>
			<point x="449" y="315"/>
			<point x="448" y="356"/>
			<point x="440" y="388"/>
			<point x="428" y="413"/>
			<point x="420" y="424" type="qcurve"/>
			<point x="411" y="436"/>
			<point x="389" y="449"/>
			<point x="370" y="459"/>
			<point x="355" y="475"/>
		</contour>
	</outline>
</glyph>
<glyph name="one" format="2">
	<unicode hex="0031"/>
	<advance width="574"/>
	<outline>
		<contour>
			<point x="400" y="26" type="qcurve"/>
			<point x="398" y="108"/>
			<point x="406" y="366"/>
			<point x="415" y="523" type="qcurve"/>
			<point x="379" y="469"/>
			<point x="304" y="367"/>
			<point x="258" y="307" type="qcurve"/>
			<point x="229" y="270"/>
			<point x="172" y="201"/>
			<point x="139" y="170" type="qcurve"/>
			<point x="116" y="149"/>
			<point x="74" y="150"/>
			<point x="48" y="176"/>
			<point x="47" y="219"/>
			<point x="66" y="240" type="qcurve"/>
			<point x="141" y="323"/>
			<point x="301" y="508"/>
			<point x="379" y="614" type="qcurve"/>
			<point x="394" y="639"/>
			<point x="426" y="667"/>
			<point x="451" y="667" type="qcurve"/>
			<point x="482" y="667"/>
			<point x="510" y="622"/>
			<point x="510" y="590" type="qcurve"/>
			<point x="510" y="438"/>
			<point x="504" y="154"/>
			<point x="502" y="23" type="qcurve"/>
			<point x="501" y="-6"/>
			<point x="468" y="-32"/>
			<point x="451" y="-32" type="qcurve"/>
			<point x="432" y="-32"/>
			<point x="401" y="-3"/>
		</contour>
	</outline>
</glyph>
<glyph name="two" format="2">
	<unicode hex="0032"/>
	<advance width="546"/>
	<outline>
		<contour>
			<point x="168" y="515" type="qcurve"/>
			<point x="162" y="498"/>
			<point x="132" y="482"/>
			<point x="104" y="486"/>
			<point x="85" y="513"/>
			<point x="88" y="538" type="qcurve"/>
			<point x="92" y="570"/>
			<point x="122" y="627"/>
			<point x="169" y="670"/>
			<point x="232" y="695"/>
			<point x="270" y="695" type="qcurve"/>
			<point x="314" y="695"/>
			<point x="379" y="667"/>
			<point x="421" y="618"/>
			<point x="440" y="554"/>
			<point x="439" y="518" type="qcurve"/>
			<point x="436" y="462"/>
			<point x="386" y="349"/>
			<point x="308" y="237"/>
			<point x="211" y="129"/>
			<point x="163" y="79" type="qcurve"/>
			<point x="199" y="83"/>
			<point x="276" y="90"/>
			<point x="353" y="95"/>
			<point x="423" y="98"/>
			<point x="452" y="98" type="qcurve"/>
			<point x="479" y="98"/>
			<point x="509" y="72"/>
			<point x="509" y="51" type="qcurve"/>
			<point x="509" y="33"/>
			<point x="482" y="3"/>
			<point x="455" y="1" type="qcurve"/>
			<point x="364" y="-4"/>
			<point x="188" y="-12"/>
			<point x="103" y="-12" type="qcurve"/>
			<point x="94" y="-12"/>
			<point x="83" y="-14"/>
			<point x="74" y="-14" type="qcurve"/>
			<point x="56" y="-14"/>
			<point x="29" y="11"/>
			<point x="29" y="32" type="qcurve"/>
			<point x="29" y="49"/>
			<point x="42" y="72"/>
			<point x="53" y="85" type="qcurve"/>
			<point x="97" y="136"/>
			<point x="190" y="243"/>
			<point x="268" y="351"/>
			<point x="323" y="460"/>
			<point x="329" y="513" type="qcurve"/>
			<point x="334" y="551"/>
			<point x="301" y="600"/>
			<point x="265" y="600" type="qcurve"/>
			<point x="230" y="600"/>
			<point x="184" y="558"/>
		</contour>
	</outline>
</glyph>
<glyph name="three" format="2">
	<unicode hex="0033"/>
	<advance width="562"/>
	<outline>
		<contour>
			<point x="154" y="600" type="qcurve"/>
			<point x="134" y="597"/>
			<point x="107" y="616"/>
			<point x="101" y="645"/>
			<point x="119" y="677"/>
			<point x="144" y="687" type="qcurve"/>
			<point x="167" y="696"/>
			<point x="232" y="711"/>
			<point x="278" y="711" type="qcurve"/>
			<point x="377" y="711"/>
			<point x="487" y="625"/>
			<point x="482" y="551" type="qcurve"/>
			<point x="478" y="499"/>
			<point x="407" y="432"/>
			<point x="340" y="410" type="qcurve"/>
			<point x="431" y="384"/>
			<point x="508" y="273"/>
			<point x="500" y="188" type="qcurve"/>
			<point x="495" y="140"/>
			<point x="452" y="59"/>
			<point x="380" y="0"/>
			<point x="284" y="-33"/>
			<point x="227" y="-33" type="qcurve"/>
			<point x="179" y="-33"/>
			<point x="97" y="-17"/>
			<point x="69" y="1" type="qcurve"/>
			<point x="54" y="11"/>
			<point x="42" y="40"/>
			<point x="47" y="67"/>
			<point x="70" y="83"/>
			<point x="91" y="79" type="qcurve"/>
			<point x="113" y="75"/>
			<point x="172" y="59"/>
			<point x="212" y="59" type="qcurve"/>
			<point x="293" y="59"/>
			<point x="384" y="134"/>
			<point x="392" y="200" type="qcurve"/>
			<point x="400" y="268"/>
			<point x="317" y="344"/>
			<point x="239" y="358" type="qcurve"/>
			<point x="218" y="359"/>
			<point x="194" y="383"/>
			<point x="190" y="413"/>
			<point x="209" y="442"/>
			<point x="232" y="448" type="qcurve"/>
			<point x="367" y="482"/>
			<point x="374" y="548" type="qcurve"/>
			<point x="378" y="581"/>
			<point x="324" y="617"/>
			<point x="270" y="617" type="qcurve"/>
			<point x="233" y="617"/>
			<point x="179" y="604"/>
		</contour>
	</outline>
</glyph>
<glyph name="five" format="2">
	<unicode hex="0035"/>
	<advance width="475"/>
	<outline>
		<contour>
			<point x="88" y="607" type="line"/>
			<point x="53" y="602"/>
			<point x="22" y="633"/>
			<point x="22" y="655" type="qcurve"/>
			<point x="22" y="702"/>
			<point x="83" y="709" type="qcurve"/>
			<point x="180" y="721"/>
			<point x="354" y="735"/>
			<point x="450" y="735" type="qcurve"/>
			<point x="478" y="735"/>
			<point x="504" y="708"/>
			<point x="504" y="691" type="qcurve"/>
			<point x="504" y="673"/>
			<point x="478" y="646"/>
			<point x="451" y="644" type="qcurve"/>
			<point x="413" y="642"/>
			<point x="300" y="633"/>
			<point x="235" y="626" type="qcurve"/>
			<point x="218" y="575"/>
			<point x="188" y="481"/>
			<point x="177" y="434" type="qcurve"/>
			<point x="195" y="429"/>
			<point x="235" y="415"/>
			<point x="256" y="407" type="qcurve"/>
			<point x="360" y="366"/>
			<point x="443" y="239"/>
			<point x="435" y="145" type="qcurve"/>
			<point x="432" y="109"/>
			<point x="403" y="39"/>
			<point x="353" y="-16"/>
			<point x="283" y="-50"/>
			<point x="238" y="-50" type="qcurve"/>
			<point x="201" y="-50"/>
			<point x="136" y="-35"/>
			<point x="111" y="-24" type="qcurve"/>
			<point x="91" y="-15"/>
			<point x="74" y="8"/>
			<point x="74" y="24" type="qcurve"/>
			<point x="74" y="44"/>
			<point x="106" y="70"/>
			<point x="134" y="63" type="qcurve"/>
			<point x="160" y="57"/>
			<point x="204" y="45"/>
			<point x="231" y="45" type="qcurve"/>
			<point x="250" y="45"/>
			<point x="284" y="56"/>
			<point x="309" y="83"/>
			<point x="326" y="127"/>
			<point x="328" y="160" type="qcurve"/>
			<point x="332" y="218"/>
			<point x="285" y="284"/>
			<point x="229" y="312" type="qcurve"/>
			<point x="207" y="323"/>
			<point x="160" y="344"/>
			<point x="138" y="353" type="qcurve"/>
			<point x="115" y="357"/>
			<point x="89" y="377"/>
			<point x="79" y="405"/>
			<point x="80" y="441"/>
			<point x="83" y="461" type="qcurve"/>
			<point x="88" y="491"/>
			<point x="108" y="572"/>
			<point x="120" y="612" type="qcurve"/>
			<point x="112" y="610"/>
			<point x="104" y="609" type="qcurve"/>
		</contour>
	</outline>
</glyph>
<glyph name="seven" format="2">
	<unicode hex="0037"/>
	<advance width="509"/>
	<outline>
		<contour>
			<point x="473" y="302" type="qcurve"/>
			<point x="457" y="300"/>
			<point x="390" y="295"/>
			<point x="347" y="293" type="qcurve"/>
			<point x="326" y="221"/>
			<point x="275" y="85"/>
			<point x="246" y="23" type="qcurve"/>
			<point x="237" y="3"/>
			<point x="215" y="-27"/>
			<point x="192" y="-27" type="qcurve"/>
			<point x="182" y="-27"/>
			<point x="162" y="-18"/>
			<point x="148" y="-1"/>
			<point x="145" y="25"/>
			<point x="153" y="43" type="qcurve"/>
			<point x="164" y="68"/>
			<point x="188" y="128"/>
			<point x="212" y="192"/>
			<point x="234" y="258"/>
			<point x="244" y="289" type="qcurve"/>
			<point x="206" y="287"/>
			<point x="134" y="284"/>
			<point x="104" y="284" type="qcurve"/>
			<point x="81" y="284"/>
			<point x="58" y="311"/>
			<point x="59" y="345"/>
			<point x="82" y="375"/>
			<point x="106" y="377" type="qcurve"/>
			<point x="138" y="379"/>
			<point x="224" y="383"/>
			<point x="271" y="385" type="qcurve"/>
			<point x="271" y="387"/>
			<point x="272" y="389" type="qcurve"/>
			<point x="289" y="462"/>
			<point x="283" y="560"/>
			<point x="249" y="586" type="qcurve"/>
			<point x="221" y="608"/>
			<point x="127" y="624"/>
			<point x="71" y="631" type="qcurve"/>
			<point x="51" y="633"/>
			<point x="22" y="655"/>
			<point x="22" y="675" type="qcurve"/>
			<point x="22" y="696"/>
			<point x="48" y="723"/>
			<point x="73" y="723" type="qcurve"/>
			<point x="95" y="723"/>
			<point x="159" y="718"/>
			<point x="228" y="704"/>
			<point x="292" y="682"/>
			<point x="313" y="665" type="qcurve"/>
			<point x="344" y="641"/>
			<point x="377" y="575"/>
			<point x="388" y="503"/>
			<point x="382" y="428"/>
			<point x="374" y="394" type="qcurve"/>
			<point x="372" y="388" type="line"/>
			<point x="401" y="389"/>
			<point x="427" y="389" type="qcurve"/>
			<point x="473" y="389" type="line"/>
			<point x="499" y="389"/>
			<point x="525" y="364"/>
			<point x="525" y="332"/>
			<point x="499" y="305"/>
		</contour>
	</outline>
</glyph>
<glyph name="nine" format="2">
	<unicode hex="0039"/>
	<advance width="514"/>
	<outline>
		<contour>
			<point x="437" y="661" type="qcurve"/>
			<point x="456" y="641"/>
			<point x="456" y="592"/>
			<point x="435" y="580" type="qcurve"/>
			<point x="418" y="570"/>
			<point x="380" y="582"/>
			<point x="366" y="602" type="qcurve"/>
			<point x="331" y="624"/>
			<point x="272" y="624" type="qcurve"/>
			<point x="225" y="624"/>
			<point x="159" y="585"/>
			<point x="154" y="544" type="qcurve"/>
			<point x="150" y="508"/>
			<point x="198" y="464"/>
			<point x="237" y="464" type="qcurve"/>
			<point x="284" y="464"/>
			<point x="344" y="492"/>
			<point x="374" y="527" type="qcurve"/>
			<point x="391" y="547"/>
			<point x="415" y="566"/>
			<point x="433" y="566" type="qcurve"/>
			<point x="447" y="566"/>
			<point x="470" y="552"/>
			<point x="480" y="521"/>
			<point x="475" y="469"/>
			<point x="462" y="431" type="qcurve"/>
			<point x="457" y="396"/>
			<point x="447" y="316"/>
			<point x="432" y="229"/>
			<point x="408" y="139"/>
			<point x="389" y="93" type="qcurve"/>
			<point x="369" y="45"/>
			<point x="319" y="-17"/>
			<point x="262" y="-55"/>
			<point x="200" y="-70"/>
			<point x="170" y="-70" type="qcurve"/>
			<point x="125" y="-70"/>
			<point x="58" y="-46"/>
			<point x="34" y="-26" type="qcurve"/>
			<point x="10" y="-6"/>
			<point x="1" y="34"/>
			<point x="16" y="63"/>
			<point x="49" y="74"/>
			<point x="69" y="65" type="qcurve"/>
			<point x="79" y="60"/>
			<point x="98" y="47"/>
			<point x="120" y="35"/>
			<point x="149" y="26"/>
			<point x="168" y="26" type="qcurve"/>
			<point x="212" y="26"/>
			<point x="271" y="80"/>
			<point x="294" y="133" type="qcurve"/>
			<point x="307" y="163"/>
			<point x="326" y="231"/>
			<point x="341" y="303"/>
			<point x="353" y="376"/>
			<point x="358" y="412" type="qcurve"/>
			<point x="306" y="368"/>
			<point x="236" y="368" type="qcurve"/>
			<point x="197" y="368"/>
			<point x="125" y="390"/>
			<point x="72" y="436"/>
			<point x="45" y="506"/>
			<point x="50" y="554" type="qcurve"/>
			<point x="55" y="597"/>
			<point x="97" y="660"/>
			<point x="157" y="701"/>
			<point x="227" y="720"/>
			<point x="260" y="720" type="qcurve"/>
			<point x="324" y="720"/>
			<point x="412" y="687"/>
		</contour>
	</outline>
</glyph>
<glyph name="semicolon" format="2">
	<unicode hex="003B"/>
	<advance width="360"/>
	<outline>
		<contour>
			<point x="120" y="49" type="qcurve"/>
			<point x="136" y="97"/>
			<point x="180" y="97" type="qcurve"/>
			<point x="203" y="97"/>
			<point x="233" y="66"/>
			<point x="230" y="37" type="qcurve"/>
			<point x="228" y="14"/>
			<point x="210" y="-37"/>
			<point x="186" y="-88"/>
			<point x="158" y="-134"/>
			<point x="146" y="-151" type="qcurve"/>
			<point x="123" y="-184"/>
			<point x="91" y="-211"/>
			<point x="72" y="-211" type="qcurve"/>
			<point x="63" y="-211"/>
			<point x="43" y="-202"/>
			<point x="30" y="-184"/>
			<point x="29" y="-156"/>
			<point x="39" y="-136" type="qcurve"/>
			<point x="48" y="-118"/>
			<point x="70" y="-73"/>
			<point x="92" y="-23"/>
			<point x="112" y="26"/>
		</contour>
		<contour>
			<point x="106" y="411" type="qcurve"/>
			<point x="106" y="442"/>
			<point x="142" y="484"/>
			<point x="171" y="484" type="qcurve"/>
			<point x="194" y="484"/>
			<point x="228" y="458"/>
			<point x="236" y="438" type="qcurve"/>
			<point x="257" y="421"/>
			<point x="257" y="395" type="qcurve"/>
			<point x="257" y="385"/>
			<point x="247" y="361"/>
			<point x="228" y="341"/>
			<point x="200" y="328"/>
			<point x="181" y="328" type="qcurve"/>
			<point x="144" y="328"/>
			<point x="106" y="372"/>
		</contour>
	</outline>
</glyph>
<glyph name="less" format="2">
	<unicode hex="003C"/>
	<advance width="595"/>
	<outline>
		<contour>
			<point x="387" y="539" type="qcurve"/>
			<point x="395" y="543"/>
			<point x="408" y="545"/>
			<point x="414" y="545" type="qcurve"/>
			<point x="438" y="545"/>
			<point x="466" y="516"/>
			<point x="466" y="498" type="qcurve"/>
			<point x="466" y="487"/>
			<point x="449" y="459"/>
			<point x="437" y="451" type="qcurve"/>
			<point x="418" y="438"/>
			<point x="368" y="401"/>
			<point x="318" y="359"/>
			<point x="273" y="314"/>
			<point x="258" y="295" type="qcurve"/>
			<point x="269" y="287" type="line"/>
			<point x="284" y="276"/>
			<point x="333" y="238"/>
			<point x="356" y="213" type="qcurve"/>
			<point x="369" y="199"/>
			<point x="379" y="177"/>
			<point x="379" y="163" type="qcurve"/>
			<point x="379" y="143"/>
			<point x="351" y="119"/>
			<point x="331" y="119" type="qcurve"/>
			<point x="321" y="119"/>
			<point x="301" y="124"/>
			<point x="292" y="135" type="qcurve"/>
			<point x="276" y="153"/>
			<point x="230" y="188"/>
			<point x="187" y="226"/>
			<point x="156" y="268"/>
			<point x="156" y="292" type="qcurve"/>
			<point x="156" y="324"/>
			<point x="179" y="356" type="qcurve"/>
			<point x="191" y="372"/>
			<point x="244" y="426"/>
			<point x="306" y="482"/>
			<point x="367" y="529"/>
		</contour>
	</outline>
</glyph>
<glyph name="equal" format="2">
	<unicode hex="003D"/>
	<advance width="595"/>
	<outline>
		<contour>
			<point x="81" y="169" type="qcurve"/>
			<point x="58" y="174"/>
			<point x="37" y="203"/>
			<point x="37" y="219" type="qcurve"/>
			<point x="37" y="235"/>
			<point x="58" y="263"/>
			<point x="81" y="269" type="qcurve"/>
			<point x="182" y="270"/>
			<point x="382" y="279"/>
			<point x="483" y="280" type="qcurve"/>
			<point x="510" y="277"/>
			<point x="537" y="247"/>
			<point x="537" y="230" type="qcurve"/>
			<point x="537" y="213"/>
			<point x="510" y="182"/>
			<point x="483" y="180" type="qcurve"/>
			<point x="382" y="179"/>
			<point x="182" y="170"/>
		</contour>
		<contour>
			<point x="76" y="353" type="qcurve"/>
			<point x="53" y="358"/>
			<point x="32" y="387"/>
			<point x="32" y="403" type="qcurve"/>
			<point x="32" y="419"/>
			<point x="53" y="447"/>
			<point x="76" y="453" type="qcurve"/>
			<point x="177" y="455"/>
			<point x="375" y="469"/>
			<point x="476" y="471" type="qcurve"/>
			<point x="503" y="468"/>
			<point x="530" y="438"/>
			<point x="530" y="421" type="qcurve"/>
			<point x="530" y="404"/>
			<point x="503" y="373"/>
			<point x="476" y="371" type="qcurve"/>
			<point x="375" y="369"/>
			<point x="177" y="355"/>
		</contour>
	</outline>
</glyph>
<glyph name="greater" format="2">
	<unicode hex="003E"/>
	<advance width="595"/>
	<outline>
		<contour>
			<point x="124" y="445" type="qcurve"/>
			<point x="113" y="454"/>
			<point x="106" y="475"/>
			<point x="106" y="486" type="qcurve"/>
			<point x="106" y="507"/>
			<point x="133" y="533"/>
			<point x="154" y="533" type="qcurve"/>
			<point x="161" y="533"/>
			<point x="178" y="530"/>
			<point x="184" y="525" type="qcurve"/>
			<point x="224" y="495"/>
			<point x="320" y="425"/>
			<point x="380" y="379" type="qcurve"/>
			<point x="416" y="352"/>
			<point x="442" y="312"/>
			<point x="442" y="295" type="qcurve"/>
			<point x="442" y="263"/>
			<point x="397" y="218" type="qcurve"/>
			<point x="389" y="210"/>
			<point x="358" y="171"/>
			<point x="320" y="131"/>
			<point x="279" y="100"/>
			<point x="262" y="100" type="qcurve"/>
			<point x="236" y="100"/>
			<point x="208" y="129"/>
			<point x="208" y="148" type="qcurve"/>
			<point x="208" y="162"/>
			<point x="221" y="187"/>
			<point x="236" y="193" type="qcurve"/>
			<point x="245" y="196"/>
			<point x="267" y="218"/>
			<point x="289" y="244"/>
			<point x="310" y="269"/>
			<point x="316" y="277" type="qcurve"/>
			<point x="328" y="291" type="line"/>
			<point x="307" y="309" type="line"/>
			<point x="261" y="345"/>
			<point x="171" y="408"/>
		</contour>
	</outline>
</glyph>
<glyph name="question" format="2">
	<unicode hex="003F"/>
	<advance width="538"/>
	<outline>
		<contour>
			<point x="157" y="447" type="qcurve"/>
			<point x="157" y="422"/>
			<point x="125" y="397"/>
			<point x="108" y="397" type="qcurve"/>
			<point x="93" y="397"/>
			<point x="62" y="416"/>
			<point x="57" y="439" type="qcurve"/>
			<point x="52" y="459"/>
			<point x="47" y="499"/>
			<point x="47" y="519" type="qcurve"/>
			<point x="47" y="540"/>
			<point x="61" y="578"/>
			<point x="82" y="595" type="qcurve"/>
			<point x="112" y="621"/>
			<point x="151" y="641" type="qcurve"/>
			<point x="167" y="649"/>
			<point x="217" y="672"/>
			<point x="275" y="693"/>
			<point x="336" y="707"/>
			<point x="363" y="707" type="qcurve"/>
			<point x="378" y="707"/>
			<point x="405" y="701"/>
			<point x="415" y="694" type="qcurve"/>
			<point x="436" y="680"/>
			<point x="464" y="627"/>
			<point x="464" y="600" type="qcurve"/>
			<point x="464" y="550"/>
			<point x="428" y="467"/>
			<point x="386" y="393"/>
			<point x="350" y="326"/>
			<point x="350" y="292" type="qcurve"/>
			<point x="350" y="281"/>
			<point x="358" y="262"/>
			<point x="368" y="245"/>
			<point x="376" y="227"/>
			<point x="376" y="217" type="qcurve"/>
			<point x="376" y="196"/>
			<point x="349" y="169"/>
			<point x="330" y="169" type="qcurve"/>
			<point x="304" y="169"/>
			<point x="284" y="195" type="qcurve"/>
			<point x="271" y="212"/>
			<point x="250" y="256"/>
			<point x="250" y="285" type="qcurve"/>
			<point x="250" y="309"/>
			<point x="262" y="356"/>
			<point x="280" y="401"/>
			<point x="302" y="443"/>
			<point x="312" y="461" type="qcurve"/>
			<point x="318" y="472"/>
			<point x="335" y="500"/>
			<point x="350" y="531"/>
			<point x="361" y="564"/>
			<point x="361" y="579" type="qcurve"/>
			<point x="361" y="594"/>
			<point x="355" y="606" type="qcurve"/>
			<point x="315" y="598"/>
			<point x="225" y="572"/>
			<point x="190" y="548" type="qcurve"/>
			<point x="179" y="540"/>
			<point x="155" y="523"/>
			<point x="146" y="512" type="qcurve"/>
			<point x="148" y="495"/>
			<point x="157" y="465"/>
		</contour>
		<contour>
			<point x="357" y="63" type="qcurve"/>
			<point x="357" y="37"/>
			<point x="323" y="-5"/>
			<point x="294" y="-5" type="qcurve"/>
			<point x="279" y="-5"/>
			<point x="255" y="10"/>
			<point x="238" y="33"/>
			<point x="228" y="61"/>
			<point x="228" y="75" type="qcurve"/>
			<point x="228" y="104"/>
			<point x="261" y="130"/>
			<point x="282" y="130" type="qcurve"/>
			<point x="295" y="130"/>
			<point x="322" y="121"/>
			<point x="343" y="103"/>
			<point x="357" y="78"/>
		</contour>
	</outline>
</glyph>
<glyph name="at" format="2">
	<unicode hex="0040"/>
	<advance width="764"/>
	<outline>
		<contour>
			<point x="357" y="505" type="qcurve"/>
			<point x="373" y="505"/>
			<point x="412" y="495"/>
			<point x="446" y="475"/>
			<point x="470" y="446"/>
			<point x="470" y="427" type="qcurve"/>
			<point x="470" y="403"/>
			<point x="441" y="375"/>
			<point x="422" y="375" type="qcurve"/>
			<point x="413" y="375"/>
			<point x="397" y="384"/>
			<point x="382" y="396"/>
			<point x="365" y="405"/>
			<point x="354" y="405" type="qcurve"/>
			<point x="346" y="405"/>
			<point x="332" y="393"/>
			<point x="323" y="375"/>
			<point x="318" y="353"/>
			<point x="318" y="343" type="qcurve"/>
			<point x="318" y="338"/>
			<point x="318" y="330"/>
			<point x="320" y="326" type="qcurve"/>
			<point x="345" y="326"/>
			<point x="380" y="338"/>
			<point x="396" y="338" type="qcurve"/>
			<point x="419" y="338"/>
			<point x="447" y="310"/>
			<point x="447" y="277" type="qcurve"/>
			<point x="452" y="263"/>
			<point x="456" y="257"/>
			<point x="458" y="257" type="qcurve"/>
			<point x="484" y="265"/>
			<point x="532" y="287"/>
			<point x="550" y="304" type="qcurve"/>
			<point x="579" y="330"/>
			<point x="610" y="402"/>
			<point x="610" y="439" type="qcurve"/>
			<point x="610" y="467"/>
			<point x="591" y="518"/>
			<point x="552" y="556"/>
			<point x="492" y="578"/>
			<point x="450" y="578" type="qcurve"/>
			<point x="420" y="578"/>
			<point x="356" y="570"/>
			<point x="296" y="551"/>
			<point x="242" y="520"/>
			<point x="220" y="496" type="qcurve"/>
			<point x="200" y="475"/>
			<point x="175" y="432"/>
			<point x="161" y="383"/>
			<point x="156" y="325"/>
			<point x="156" y="289" type="qcurve"/>
			<point x="156" y="258"/>
			<point x="163" y="200"/>
			<point x="180" y="148"/>
			<point x="208" y="104"/>
			<point x="228" y="88" type="qcurve"/>
			<point x="244" y="75"/>
			<point x="289" y="53"/>
			<point x="340" y="36"/>
			<point x="391" y="27"/>
			<point x="413" y="27" type="qcurve"/>
			<point x="438" y="27"/>
			<point x="488" y="32"/>
			<point x="513" y="36" type="qcurve"/>
			<point x="526" y="47"/>
			<point x="552" y="61"/>
			<point x="568" y="64" type="qcurve"/>
			<point x="594" y="61"/>
			<point x="622" y="32"/>
			<point x="622" y="15" type="qcurve"/>
			<point x="622" y="-18"/>
			<point x="565" y="-54"/>
			<point x="488" y="-70"/>
			<point x="410" y="-73"/>
			<point x="388" y="-73" type="qcurve"/>
			<point x="328" y="-73"/>
			<point x="212" y="-26"/>
			<point x="163" y="11" type="qcurve"/>
			<point x="101" y="57"/>
			<point x="55" y="202"/>
			<point x="55" y="291" type="qcurve"/>
			<point x="55" y="334"/>
			<point x="64" y="403"/>
			<point x="82" y="461"/>
			<point x="109" y="513"/>
			<point x="128" y="538" type="qcurve"/>
			<point x="152" y="570"/>
			<point x="214" y="621"/>
			<point x="295" y="657"/>
			<point x="397" y="677"/>
			<point x="460" y="677" type="qcurve"/>
			<point x="527" y="677"/>
			<point x="621" y="632"/>
			<point x="681" y="562"/>
			<point x="709" y="475"/>
			<point x="709" y="432" type="qcurve"/>
			<point x="709" y="362"/>
			<point x="638" y="239"/>
			<point x="570" y="194" type="qcurve"/>
			<point x="558" y="186"/>
			<point x="527" y="173"/>
			<point x="495" y="163"/>
			<point x="465" y="157"/>
			<point x="455" y="157" type="qcurve"/>
			<point x="420" y="157"/>
			<point x="371" y="197"/>
			<point x="359" y="229" type="qcurve"/>
			<point x="341" y="226"/>
			<point x="324" y="226" type="qcurve"/>
			<point x="296" y="226"/>
			<point x="256" y="243"/>
			<point x="231" y="273"/>
			<point x="219" y="313"/>
			<point x="219" y="336" type="qcurve"/>
			<point x="219" y="365"/>
			<point x="238" y="425"/>
			<point x="274" y="474"/>
			<point x="325" y="505"/>
		</contour>
	</outline>
</glyph>
<glyph name="A" format="2">
	<unicode hex="0041"/>
	<advance width="652"/>
	<outline>
		<contour>
			<point x="58" y="-21" type="qcurve"/>
			<point x="36" y="-21"/>
			<point x="6" y="13"/>
			<point x="15" y="46" type="qcurve"/>
			<point x="58" y="198"/>
			<point x="188" y="513"/>
			<point x="268" y="661" type="qcurve"/>
			<point x="278" y="690"/>
			<point x="323" y="722"/>
			<point x="351" y="722" type="qcurve"/>
			<point x="383" y="722"/>
			<point x="423" y="691"/>
			<point x="433" y="660" type="qcurve"/>
			<point x="461" y="597"/>
			<point x="516" y="446"/>
			<point x="538" y="374" type="qcurve"/>
			<point x="555" y="317"/>
			<point x="584" y="216"/>
			<point x="609" y="124"/>
			<point x="627" y="46"/>
			<point x="632" y="18" type="qcurve"/>
			<point x="635" y="4"/>
			<point x="628" y="-18"/>
			<point x="613" y="-34"/>
			<point x="593" y="-42"/>
			<point x="583" y="-42" type="qcurve"/>
			<point x="569" y="-42"/>
			<point x="545" y="-25"/>
			<point x="540" y="-8" type="qcurve"/>
			<point x="526" y="42"/>
			<point x="495" y="158"/>
			<point x="478" y="219" type="qcurve"/>
			<point x="399" y="215"/>
			<point x="246" y="204"/>
			<point x="168" y="196" type="qcurve"/>
			<point x="152" y="151"/>
			<point x="124" y="63"/>
			<point x="112" y="21" type="qcurve"/>
			<point x="106" y="0"/>
			<point x="75" y="-21"/>
		</contour>
		<contour>
			<point x="203" y="290" type="qcurve"/>
			<point x="325" y="302"/>
			<point x="453" y="308" type="qcurve"/>
			<point x="441" y="348" type="line"/>
			<point x="418" y="426"/>
			<point x="370" y="560"/>
			<point x="345" y="621" type="qcurve"/>
			<point x="306" y="537"/>
			<point x="235" y="373"/>
		</contour>
	</outline>
	<anchor name="mark0" x="365" y="725"/>
	<anchor name="mark1" x="321" y="0"/>
	<anchor name="mark2" x="0" y="0"/>
</glyph>
<glyph name="C" format="2">
	<unicode hex="0043"/>
	<advance width="576"/>
	<outline>
		<contour>
			<point x="34" y="317" type="qcurve"/>
			<point x="34" y="403"/>
			<point x="104" y="550"/>
			<point x="166" y="601" type="qcurve"/>
			<point x="194" y="624"/>
			<point x="260" y="661"/>
			<point x="328" y="685"/>
			<point x="394" y="697"/>
			<point x="423" y="697" type="qcurve"/>
			<point x="449" y="697"/>
			<point x="481" y="674"/>
			<point x="484" y="640"/>
			<point x="460" y="614"/>
			<point x="439" y="609" type="qcurve"/>
			<point x="369" y="593"/>
			<point x="268" y="550"/>
			<point x="234" y="521" type="qcurve"/>
			<point x="191" y="484"/>
			<point x="145" y="377"/>
			<point x="145" y="314" type="qcurve"/>
			<point x="145" y="258"/>
			<point x="185" y="166"/>
			<point x="259" y="100"/>
			<point x="356" y="67"/>
			<point x="412" y="67" type="qcurve"/>
			<point x="428" y="67"/>
			<point x="473" y="70"/>
			<point x="492" y="72" type="qcurve"/>
			<point x="514" y="73"/>
			<point x="538" y="56"/>
			<point x="539" y="28"/>
			<point x="519" y="1"/>
			<point x="503" y="-7" type="qcurve"/>
			<point x="483" y="-17"/>
			<point x="432" y="-27"/>
			<point x="404" y="-27" type="qcurve"/>
			<point x="331" y="-27"/>
			<point x="197" y="20"/>
			<point x="95" y="109"/>
			<point x="34" y="236"/>
		</contour>
	</outline>
	<anchor name="mark0" x="341" y="725"/>
	<anchor name="mark1" x="336" y="0"/>
	<anchor name="mark2" x="0" y="0"/>
</glyph>
<glyph name="D" format="2">
	<unicode hex="0044"/>
	<advance width="782"/>
	<outline>
		<contour>
			<point x="124" y="25" type="qcurve"/>
			<point x="124" y="41"/>
			<point x="146" y="63"/>
			<point x="172" y="65" type="qcurve"/>
			<point x="167" y="73"/>
			<point x="159" y="97"/>
			<point x="158" y="116" type="qcurve"/>
			<point x="154" y="174"/>
			<point x="152" y="301"/>
			<point x="154" y="430"/>
			<point x="159" y="555"/>
			<point x="163" y="610" type="qcurve"/>
			<point x="146" y="606"/>
			<point x="115" y="598"/>
			<point x="98" y="593" type="qcurve"/>
			<point x="67" y="583"/>
			<point x="36" y="607"/>
			<point x="36" y="628" type="qcurve"/>
			<point x="36" y="645"/>
			<point x="57" y="669"/>
			<point x="80" y="680" type="qcurve"/>
			<point x="118" y="699"/>
			<point x="251" y="725"/>
			<point x="333" y="725" type="qcurve"/>
			<point x="433" y="725"/>
			<point x="589" y="674"/>
			<point x="695" y="579"/>
			<point x="745" y="445"/>
			<point x="739" y="362" type="qcurve"/>
			<point x="733" y="287"/>
			<point x="671" y="172"/>
			<point x="577" y="86"/>
			<point x="461" y="28"/>
			<point x="341" y="-8"/>
			<point x="228" y="-24"/>
			<point x="184" y="-24" type="qcurve"/>
			<point x="155" y="-24"/>
			<point x="124" y="5"/>
		</contour>
		<contour>
			<point x="341" y="628" type="qcurve"/>
			<point x="303" y="628"/>
			<point x="266" y="625" type="qcurve"/>
			<point x="261" y="540"/>
			<point x="258" y="397"/>
			<point x="256" y="335" type="qcurve"/>
			<point x="255" y="293"/>
			<point x="257" y="231"/>
			<point x="259" y="180"/>
			<point x="260" y="138"/>
			<point x="259" y="117" type="qcurve"/>
			<point x="258" y="105"/>
			<point x="252" y="82"/>
			<point x="246" y="72" type="qcurve"/>
			<point x="329" y="83"/>
			<point x="464" y="128"/>
			<point x="561" y="199"/>
			<point x="620" y="298"/>
			<point x="626" y="363" type="qcurve"/>
			<point x="638" y="494"/>
			<point x="494" y="628"/>
		</contour>
	</outline>
	<anchor name="mark0" x="389" y="725"/>
	<anchor name="mark1" x="316" y="0"/>
	<anchor name="mark2" x="0" y="0"/>
</glyph>
<glyph name="E" format="2">
	<unicode hex="0045"/>
	<advance width="566"/>
	<outline>
		<contour>
			<point x="458" y="-2" type="qcurve"/>
			<point x="430" y="-4"/>
			<point x="353" y="-6"/>
			<point x="266" y="-7"/>
			<point x="176" y="-8"/>
			<point x="134" y="-8" type="qcurve"/>
			<point x="109" y="-8"/>
			<point x="79" y="6"/>
			<point x="64" y="29"/>
			<point x="59" y="59"/>
			<point x="59" y="75" type="qcurve"/>
			<point x="58" y="130"/>
			<point x="58" y="280"/>
			<point x="61" y="444"/>
			<point x="66" y="608"/>
			<point x="70" y="678" type="qcurve"/>
			<point x="72" y="715"/>
			<point x="117" y="743"/>
			<point x="151" y="743" type="qcurve"/>
			<point x="217" y="743" type="line"/>
			<point x="260" y="743"/>
			<point x="355" y="742"/>
			<point x="445" y="739"/>
			<point x="475" y="737" type="qcurve"/>
			<point x="499" y="735"/>
			<point x="529" y="708"/>
			<point x="529" y="687" type="qcurve"/>
			<point x="529" y="667"/>
			<point x="503" y="641"/>
			<point x="475" y="641" type="qcurve"/>
			<point x="442" y="641"/>
			<point x="366" y="643"/>
			<point x="286" y="645"/>
			<point x="207" y="647"/>
			<point x="171" y="648" type="qcurve"/>
			<point x="169" y="597"/>
			<point x="166" y="490"/>
			<point x="164" y="434" type="qcurve"/>
			<point x="214" y="435"/>
			<point x="322" y="433"/>
			<point x="362" y="431" type="qcurve"/>
			<point x="388" y="429"/>
			<point x="416" y="405"/>
			<point x="416" y="385" type="qcurve"/>
			<point x="416" y="364"/>
			<point x="385" y="338"/>
			<point x="362" y="337" type="qcurve"/>
			<point x="315" y="335"/>
			<point x="213" y="338"/>
			<point x="162" y="340" type="qcurve"/>
			<point x="160" y="274"/>
			<point x="160" y="146"/>
			<point x="162" y="87" type="qcurve"/>
			<point x="253" y="92"/>
			<point x="412" y="96"/>
			<point x="457" y="96" type="qcurve"/>
			<point x="486" y="96"/>
			<point x="518" y="73"/>
			<point x="518" y="50" type="qcurve"/>
			<point x="518" y="27"/>
			<point x="486" y="0"/>
		</contour>
	</outline>
	<anchor name="mark0" x="300" y="725"/>
	<anchor name="mark1" x="291" y="0"/>
	<anchor name="mark2" x="0" y="0"/>
</glyph>
<glyph name="F" format="2">
	<unicode hex="0046"/>
	<advance width="625"/>
	<outline>
		<contour>
			<point x="159" y="-14" type="qcurve"/>
			<point x="136" y="-14"/>
			<point x="107" y="17"/>
			<point x="106" y="44" type="qcurve"/>
			<point x="105" y="89"/>
			<point x="107" y="222"/>
			<point x="112" y="380"/>
			<point x="120" y="555"/>
			<point x="125" y="642" type="qcurve"/>
			<point x="117" y="642"/>
			<point x="105" y="643"/>
			<point x="100" y="644" type="qcurve"/>
			<point x="75" y="646"/>
			<point x="52" y="676"/>
			<point x="55" y="709"/>
			<point x="85" y="735"/>
			<point x="112" y="734" type="qcurve"/>
			<point x="222" y="729"/>
			<point x="423" y="731"/>
			<point x="527" y="734" type="qcurve"/>
			<point x="566" y="735"/>
			<point x="597" y="707"/>
			<point x="597" y="684" type="qcurve"/>
			<point x="597" y="665"/>
			<point x="571" y="640"/>
			<point x="544" y="638" type="qcurve"/>
			<point x="515" y="636"/>
			<point x="439" y="635"/>
			<point x="355" y="635"/>
			<point x="267" y="636"/>
			<point x="227" y="637" type="qcurve"/>
			<point x="224" y="578"/>
			<point x="218" y="462"/>
			<point x="216" y="405" type="qcurve"/>
			<point x="245" y="406"/>
			<point x="306" y="408"/>
			<point x="362" y="409"/>
			<point x="410" y="409"/>
			<point x="425" y="409" type="qcurve"/>
			<point x="487" y="406"/>
			<point x="487" y="359" type="qcurve"/>
			<point x="487" y="336"/>
			<point x="456" y="309"/>
			<point x="425" y="309" type="qcurve"/>
			<point x="416" y="309"/>
			<point x="370" y="310"/>
			<point x="311" y="311"/>
			<point x="244" y="311"/>
			<point x="213" y="311" type="qcurve"/>
			<point x="211" y="230"/>
			<point x="209" y="96"/>
			<point x="210" y="51" type="qcurve"/>
			<point x="211" y="21"/>
			<point x="184" y="-14"/>
		</contour>
	</outline>
	<anchor name="mark0" x="338" y="725"/>
	<anchor name="mark1" x="162" y="5"/>
	<anchor name="mark2" x="0" y="0"/>
</glyph>
<glyph name="G" format="2">
	<unicode hex="0047"/>
	<advance width="728"/>
	<outline>
		<contour>
			<point x="246" y="-25" type="qcurve"/>
			<point x="183" y="-25"/>
			<point x="91" y="30"/>
			<point x="44" y="136"/>
			<point x="49" y="292"/>
			<point x="83" y="394" type="qcurve"/>
			<point x="105" y="461"/>
			<point x="175" y="588"/>
			<point x="268" y="688"/>
			<point x="383" y="749"/>
			<point x="451" y="749" type="qcurve"/>
			<point x="497" y="749"/>
			<point x="584" y="717"/>
			<point x="618" y="687" type="qcurve"/>
			<point x="633" y="673"/>
			<point x="637" y="638"/>
			<point x="622" y="611"/>
			<point x="593" y="599"/>
			<point x="575" y="609" type="qcurve"/>
			<point x="547" y="625"/>
			<point x="484" y="655"/>
			<point x="448" y="655" type="qcurve"/>
			<point x="408" y="655"/>
			<point x="331" y="610"/>
			<point x="262" y="533"/>
			<point x="206" y="431"/>
			<point x="187" y="374" type="qcurve"/>
			<point x="166" y="310"/>
			<point x="151" y="199"/>
			<point x="166" y="116"/>
			<point x="210" y="69"/>
			<point x="246" y="69" type="qcurve"/>
			<point x="285" y="69"/>
			<point x="355" y="99"/>
			<point x="413" y="150"/>
			<point x="458" y="214"/>
			<point x="472" y="249" type="qcurve"/>
			<point x="440" y="250"/>
			<point x="377" y="250"/>
			<point x="345" y="252" type="qcurve"/>
			<point x="317" y="253"/>
			<point x="292" y="278"/>
			<point x="292" y="298" type="qcurve"/>
			<point x="292" y="318"/>
			<point x="322" y="345"/>
			<point x="347" y="346" type="qcurve"/>
			<point x="375" y="347"/>
			<point x="430" y="346"/>
			<point x="481" y="343"/>
			<point x="523" y="338"/>
			<point x="538" y="335" type="qcurve"/>
			<point x="593" y="325"/>
			<point x="590" y="268" type="qcurve"/>
			<point x="587" y="219"/>
			<point x="591" y="152"/>
			<point x="610" y="102"/>
			<point x="645" y="65"/>
			<point x="673" y="46" type="qcurve"/>
			<point x="686" y="37"/>
			<point x="699" y="9"/>
			<point x="693" y="-18"/>
			<point x="669" y="-37"/>
			<point x="646" y="-37" type="qcurve"/>
			<point x="620" y="-37"/>
			<point x="572" y="-10"/>
			<point x="532" y="36"/>
			<point x="505" y="95"/>
			<point x="501" y="128" type="qcurve"/>
			<point x="453" y="56"/>
			<point x="326" y="-25"/>
		</contour>
	</outline>
	<anchor name="mark0" x="449" y="725"/>
	<anchor name="mark1" x="248" y="-5"/>
	<anchor name="mark2" x="0" y="0"/>
</glyph>
<glyph name="I" format="2">
	<unicode hex="0049"/>
	<advance width="297"/>
	<outline>
		<contour>
			<point x="109" y="673" type="qcurve"/>
			<point x="110" y="693"/>
			<point x="136" y="722"/>
			<point x="160" y="722" type="qcurve"/>
			<point x="180" y="722"/>
			<point x="210" y="692"/>
			<point x="209" y="667" type="qcurve"/>
			<point x="206" y="586"/>
			<point x="202" y="509" type="qcurve"/>
			<point x="195" y="356" type="line"/>
			<point x="192" y="280"/>
			<point x="185" y="125"/>
			<point x="183" y="41" type="qcurve"/>
			<point x="182" y="12"/>
			<point x="153" y="-17"/>
			<point x="132" y="-17" type="qcurve"/>
			<point x="113" y="-17"/>
			<point x="86" y="12"/>
			<point x="86" y="41" type="qcurve"/>
			<point x="85" y="124"/>
			<point x="89" y="281"/>
			<point x="96" y="435"/>
			<point x="104" y="591"/>
		</contour>
	</outline>
	<anchor name="mark0" x="159" y="690"/>
	<anchor name="mark1" x="131" y="0"/>
	<anchor name="mark2" x="0" y="0"/>
</glyph>
<glyph name="J" format="2">
	<unicode hex="004A"/>
	<advance width="578"/>
	<outline>
		<contour>
			<point x="275" y="-35" type="qcurve"/>
			<point x="218" y="-35"/>
			<point x="130" y="-1"/>
			<point x="68" y="60"/>
			<point x="36" y="145"/>
			<point x="36" y="196" type="qcurve"/>
			<point x="36" y="231"/>
			<point x="59" y="275"/>
			<point x="85" y="275" type="qcurve"/>
			<point x="102" y="275"/>
			<point x="130" y="252"/>
			<point x="129" y="223" type="qcurve"/>
			<point x="127" y="151"/>
			<point x="197" y="59"/>
			<point x="266" y="59" type="qcurve"/>
			<point x="323" y="59"/>
			<point x="396" y="140"/>
			<point x="407" y="228" type="qcurve"/>
			<point x="413" y="275"/>
			<point x="416" y="380"/>
			<point x="413" y="486"/>
			<point x="405" y="588"/>
			<point x="401" y="631" type="qcurve"/>
			<point x="334" y="631"/>
			<point x="191" y="630"/>
			<point x="134" y="630" type="qcurve"/>
			<point x="107" y="630"/>
			<point x="79" y="656"/>
			<point x="79" y="676" type="qcurve"/>
			<point x="79" y="696"/>
			<point x="106" y="724"/>
			<point x="135" y="725" type="qcurve"/>
			<point x="168" y="726"/>
			<point x="244" y="727"/>
			<point x="321" y="727"/>
			<point x="396" y="725"/>
			<point x="430" y="723" type="qcurve"/>
			<point x="465" y="721"/>
			<point x="495" y="689"/>
			<point x="498" y="663" type="qcurve"/>
			<point x="504" y="615"/>
			<point x="512" y="504"/>
			<point x="515" y="388"/>
			<point x="511" y="273"/>
			<point x="505" y="221" type="qcurve"/>
			<point x="473" y="-35"/>
		</contour>
	</outline>
	<anchor name="mark0" x="280" y="725"/>
	<anchor name="mark1" x="283" y="-16"/>
	<anchor name="mark2" x="0" y="0"/>
</glyph>
<glyph name="K" format="2">
	<unicode hex="004B"/>
	<advance width="582"/>
	<outline>
		<contour>
			<point x="76" y="707" type="qcurve"/>
			<point x="76" y="727"/>
			<point x="107" y="753"/>
			<point x="128" y="753" type="qcurve"/>
			<point x="148" y="753"/>
			<point x="177" y="724"/>
			<point x="177" y="703" type="qcurve"/>
			<point x="177" y="588"/>
			<point x="160" y="362"/>
			<point x="155" y="247" type="qcurve"/>
			<point x="166" y="278"/>
			<point x="202" y="347"/>
			<point x="246" y="418"/>
			<point x="295" y="487"/>
			<point x="318" y="519" type="qcurve"/>
			<point x="351" y="564"/>
			<point x="411" y="655"/>
			<point x="443" y="699" type="qcurve"/>
			<point x="455" y="715"/>
			<point x="481" y="732"/>
			<point x="500" y="732" type="qcurve"/>
			<point x="520" y="732"/>
			<point x="548" y="705"/>
			<point x="548" y="684" type="qcurve"/>
			<point x="548" y="677"/>
			<point x="542" y="658"/>
			<point x="537" y="651" type="qcurve"/>
			<point x="493" y="594"/>
			<point x="408" y="467"/>
			<point x="353" y="389" type="qcurve"/>
			<point x="368" y="345"/>
			<point x="416" y="244"/>
			<point x="469" y="152"/>
			<point x="521" y="79"/>
			<point x="539" y="63" type="qcurve"/>
			<point x="550" y="52"/>
			<point x="561" y="29"/>
			<point x="561" y="18" type="qcurve"/>
			<point x="561" y="-1"/>
			<point x="534" y="-28"/>
			<point x="514" y="-28" type="qcurve"/>
			<point x="493" y="-28"/>
			<point x="478" y="-16" type="qcurve"/>
			<point x="459" y="1"/>
			<point x="409" y="66"/>
			<point x="357" y="149"/>
			<point x="306" y="243"/>
			<point x="285" y="290" type="qcurve"/>
			<point x="274" y="270"/>
			<point x="252" y="224"/>
			<point x="233" y="176"/>
			<point x="215" y="129"/>
			<point x="207" y="110" type="qcurve"/>
			<point x="197" y="86"/>
			<point x="179" y="51"/>
			<point x="165" y="36" type="qcurve"/>
			<point x="156" y="11"/>
			<point x="123" y="-17"/>
			<point x="103" y="-17" type="qcurve"/>
			<point x="83" y="-17"/>
			<point x="54" y="7"/>
			<point x="54" y="24" type="qcurve"/>
			<point x="54" y="44"/>
			<point x="51" y="81"/>
			<point x="51" y="101" type="qcurve"/>
			<point x="51" y="177"/>
			<point x="59" y="329"/>
			<point x="68" y="480"/>
			<point x="76" y="631"/>
		</contour>
	</outline>
	<anchor name="mark0" x="294" y="725"/>
	<anchor name="mark1" x="293" y="0"/>
	<anchor name="mark2" x="0" y="0"/>
</glyph>
<glyph name="L" format="2">
	<unicode hex="004C"/>
	<advance width="529"/>
	<outline>
		<contour>
			<point x="106" y="673" type="qcurve"/>
			<point x="107" y="695"/>
			<point x="136" y="721"/>
			<point x="157" y="721" type="qcurve"/>
			<point x="178" y="721"/>
			<point x="207" y="693"/>
			<point x="206" y="671" type="qcurve"/>
			<point x="205" y="613"/>
			<point x="197" y="479"/>
			<point x="175" y="235"/>
			<point x="168" y="124"/>
			<point x="166" y="77" type="qcurve"/>
			<point x="178" y="76"/>
			<point x="203" y="76" type="qcurve"/>
			<point x="227" y="76"/>
			<point x="284" y="78"/>
			<point x="347" y="82"/>
			<point x="446" y="89"/>
			<point x="463" y="90" type="qcurve"/>
			<point x="488" y="92"/>
			<point x="517" y="66"/>
			<point x="517" y="22"/>
			<point x="488" y="-4"/>
			<point x="463" y="-6" type="qcurve"/>
			<point x="438" y="-9"/>
			<point x="368" y="-14"/>
			<point x="296" y="-18"/>
			<point x="235" y="-20"/>
			<point x="212" y="-20" type="qcurve"/>
			<point x="177" y="-20"/>
			<point x="132" y="-16"/>
			<point x="113" y="-12" type="qcurve"/>
			<point x="85" y="-6"/>
			<point x="64" y="33"/>
			<point x="64" y="81" type="qcurve"/>
			<point x="64" y="129"/>
			<point x="72" y="249"/>
			<point x="96" y="499"/>
			<point x="105" y="622"/>
		</contour>
	</outline>
	<anchor name="mark0" x="159" y="675"/>
	<anchor name="mark1" x="288" y="-3"/>
	<anchor name="mark2" x="0" y="0"/>
</glyph>
<glyph name="O" format="2">
	<unicode hex="004F"/>
	<advance width="730"/>
	<outline>
		<contour>
			<point x="349" y="715" type="qcurve"/>
			<point x="410" y="715"/>
			<point x="509" y="671"/>
			<point x="532" y="637" type="qcurve"/>
			<point x="571" y="620"/>
			<point x="635" y="558"/>
			<point x="679" y="475"/>
			<point x="699" y="381"/>
			<point x="696" y="333" type="qcurve"/>
			<point x="692" y="263"/>
			<point x="635" y="138"/>
			<point x="537" y="43"/>
			<point x="414" y="-7"/>
			<point x="347" y="-7" type="qcurve"/>
			<point x="274" y="-7"/>
			<point x="156" y="44"/>
			<point x="73" y="141"/>
			<point x="33" y="275"/>
			<point x="35" y="356" type="qcurve"/>
			<point x="37" y="431"/>
			<point x="88" y="562"/>
			<point x="173" y="659"/>
			<point x="286" y="715"/>
		</contour>
		<contour>
			<point x="587" y="339" type="qcurve"/>
			<point x="590" y="384"/>
			<point x="573" y="453"/>
			<point x="553" y="486" type="qcurve"/>
			<point x="547" y="496"/>
			<point x="529" y="516"/>
			<point x="491" y="555"/>
			<point x="477" y="575"/>
			<point x="476" y="584" type="qcurve"/>
			<point x="466" y="586"/>
			<point x="442" y="595"/>
			<point x="431" y="601" type="qcurve"/>
			<point x="415" y="611"/>
			<point x="379" y="620"/>
			<point x="361" y="620" type="qcurve"/>
			<point x="315" y="620"/>
			<point x="235" y="577"/>
			<point x="176" y="500"/>
			<point x="145" y="402"/>
			<point x="145" y="350" type="qcurve"/>
			<point x="146" y="224"/>
			<point x="250" y="89"/>
			<point x="341" y="89" type="qcurve"/>
			<point x="392" y="89"/>
			<point x="479" y="126"/>
			<point x="544" y="193"/>
			<point x="584" y="285"/>
		</contour>
	</outline>
	<anchor name="mark0" x="371" y="700"/>
	<anchor name="mark1" x="330" y="10"/>
	<anchor name="mark2" x="0" y="0"/>
</glyph>
<glyph name="P" format="2">
	<unicode hex="0050"/>
	<advance width="597"/>
	<outline>
		<contour>
			<point x="48" y="31" type="qcurve"/>
			<point x="66" y="254"/>
			<point x="87" y="560"/>
			<point x="94" y="692" type="qcurve"/>
			<point x="95" y="711"/>
			<point x="124" y="733"/>
			<point x="143" y="733" type="qcurve"/>
			<point x="158" y="733"/>
			<point x="183" y="719"/>
			<point x="189" y="706" type="qcurve"/>
			<point x="263" y="736"/>
			<point x="348" y="736" type="qcurve"/>
			<point x="420" y="736"/>
			<point x="528" y="679"/>
			<point x="577" y="579"/>
			<point x="571" y="512" type="qcurve"/>
			<point x="565" y="441"/>
			<point x="477" y="344"/>
			<point x="324" y="295"/>
			<point x="222" y="295" type="qcurve"/>
			<point x="199" y="295"/>
			<point x="173" y="297" type="qcurve"/>
			<point x="168" y="234"/>
			<point x="155" y="98"/>
			<point x="147" y="21" type="qcurve"/>
			<point x="145" y="-2"/>
			<point x="115" y="-27"/>
			<point x="94" y="-27" type="qcurve"/>
			<point x="72" y="-27"/>
			<point x="46" y="5"/>
		</contour>
		<contour>
			<point x="191" y="620" type="qcurve"/>
			<point x="188" y="551"/>
			<point x="182" y="432"/>
			<point x="178" y="379" type="qcurve"/>
			<point x="196" y="377"/>
			<point x="224" y="377" type="qcurve"/>
			<point x="335" y="377"/>
			<point x="458" y="453"/>
			<point x="464" y="520" type="qcurve"/>
			<point x="469" y="581"/>
			<point x="395" y="641"/>
			<point x="317" y="641" type="qcurve"/>
			<point x="256" y="641"/>
		</contour>
	</outline>
	<anchor name="mark0" x="326" y="725"/>
	<anchor name="mark1" x="98" y="-5"/>
	<anchor name="mark2" x="0" y="0"/>
</glyph>
<glyph name="Q" format="2">
	<unicode hex="0051"/>
	<advance width="638"/>
	<outline>
		<contour>
			<point x="548" y="-40" type="qcurve"/>
			<point x="502" y="-27"/>
			<point x="413" y="21"/>
			<point x="377" y="52" type="qcurve"/>
			<point x="314" y="23"/>
			<point x="255" y="23" type="qcurve"/>
			<point x="194" y="23"/>
			<point x="98" y="74"/>
			<point x="41" y="171"/>
			<point x="29" y="304"/>
			<point x="45" y="386" type="qcurve"/>
			<point x="60" y="462"/>
			<point x="125" y="591"/>
			<point x="218" y="685"/>
			<point x="327" y="733"/>
			<point x="384" y="733" type="qcurve"/>
			<point x="450" y="733"/>
			<point x="547" y="678"/>
			<point x="601" y="574"/>
			<point x="608" y="430"/>
			<point x="589" y="343" type="qcurve"/>
			<point x="573" y="270"/>
			<point x="508" y="153"/>
			<point x="462" y="111" type="qcurve"/>
			<point x="486" y="94"/>
			<point x="544" y="64"/>
			<point x="582" y="49" type="qcurve"/>
			<point x="603" y="40"/>
			<point x="621" y="9"/>
			<point x="613" y="-24"/>
			<point x="587" y="-43"/>
			<point x="569" y="-43" type="qcurve"/>
			<point x="559" y="-43"/>
		</contour>
		<contour>
			<point x="258" y="120" type="qcurve"/>
			<point x="285" y="120"/>
			<point x="310" y="127" type="qcurve"/>
			<point x="285" y="164"/>
			<point x="275" y="204" type="qcurve"/>
			<point x="267" y="235"/>
			<point x="288" y="273"/>
			<point x="309" y="273" type="qcurve"/>
			<point x="338" y="273"/>
			<point x="358" y="234" type="qcurve"/>
			<point x="374" y="202"/>
			<point x="394" y="176" type="qcurve"/>
			<point x="429" y="209"/>
			<point x="476" y="306"/>
			<point x="488" y="369" type="qcurve"/>
			<point x="500" y="432"/>
			<point x="498" y="532"/>
			<point x="469" y="602"/>
			<point x="417" y="637"/>
			<point x="380" y="637" type="qcurve"/>
			<point x="341" y="637"/>
			<point x="267" y="598"/>
			<point x="205" y="526"/>
			<point x="160" y="428"/>
			<point x="149" y="371" type="qcurve"/>
			<point x="124" y="246"/>
			<point x="180" y="120"/>
		</contour>
	</outline>
	<anchor name="mark0" x="385" y="700"/>
	<anchor name="mark1" x="239" y="44"/>
	<anchor name="mark2" x="0" y="0"/>
</glyph>
<glyph name="T" format="2">
	<unicode hex="0054"/>
	<advance width="599"/>
	<outline>
		<contour>
			<point x="265" y="-9" type="qcurve"/>
			<point x="246" y="-9"/>
			<point x="215" y="20"/>
			<point x="216" y="49" type="qcurve"/>
			<point x="220" y="190"/>
			<point x="232" y="460"/>
			<point x="238" y="600" type="qcurve"/>
			<point x="193" y="598"/>
			<point x="106" y="594"/>
			<point x="61" y="592" type="qcurve"/>
			<point x="32" y="590"/>
			<point x="6" y="619"/>
			<point x="6" y="639" type="qcurve"/>
			<point x="6" y="661"/>
			<point x="32" y="688"/>
			<point x="62" y="690" type="qcurve"/>
			<point x="120" y="694"/>
			<point x="246" y="700"/>
			<point x="369" y="704"/>
			<point x="481" y="704"/>
			<point x="525" y="703" type="qcurve"/>
			<point x="556" y="702"/>
			<point x="585" y="676"/>
			<point x="585" y="654" type="qcurve"/>
			<point x="585" y="636"/>
			<point x="560" y="614"/>
			<point x="534" y="613" type="qcurve"/>
			<point x="484" y="611"/>
			<point x="386" y="607"/>
			<point x="337" y="605" type="qcurve"/>
			<point x="333" y="462"/>
			<point x="321" y="187"/>
			<point x="316" y="44" type="qcurve"/>
			<point x="314" y="15"/>
			<point x="285" y="-9"/>
		</contour>
	</outline>
	<anchor name="mark0" x="290" y="695"/>
	<anchor name="mark1" x="266" y="14"/>
	<anchor name="mark2" x="0" y="0"/>
</glyph>
<glyph name="U" format="2">
	<unicode hex="0055"/>
	<advance width="605"/>
	<outline>
		<contour>
			<point x="86" y="672" type="qcurve"/>
			<point x="92" y="694"/>
			<point x="120" y="717"/>
			<point x="138" y="717" type="qcurve"/>
			<point x="162" y="717"/>
			<point x="189" y="681"/>
			<point x="184" y="654" type="qcurve"/>
			<point x="167" y="561"/>
			<point x="159" y="514"/>
			<point x="150" y="457"/>
			<point x="144" y="393"/>
			<point x="142" y="359" type="qcurve"/>
			<point x="139" y="300"/>
			<point x="151" y="198"/>
			<point x="179" y="123"/>
			<point x="218" y="85"/>
			<point x="241" y="85" type="qcurve"/>
			<point x="282" y="85"/>
			<point x="338" y="153"/>
			<point x="360" y="229" type="qcurve"/>
			<point x="378" y="291"/>
			<point x="405" y="419"/>
			<point x="414" y="490" type="qcurve"/>
			<point x="415" y="514"/>
			<point x="419" y="564"/>
			<point x="424" y="610"/>
			<point x="431" y="648"/>
			<point x="434" y="661" type="qcurve"/>
			<point x="446" y="709"/>
			<point x="487" y="709" type="qcurve"/>
			<point x="509" y="709"/>
			<point x="533" y="680"/>
			<point x="534" y="656" type="qcurve"/>
			<point x="535" y="628"/>
			<point x="526" y="555"/>
			<point x="514" y="486" type="qcurve"/>
			<point x="506" y="414"/>
			<point x="498" y="286"/>
			<point x="499" y="184"/>
			<point x="510" y="115"/>
			<point x="519" y="99" type="qcurve"/>
			<point x="525" y="88"/>
			<point x="544" y="67"/>
			<point x="561" y="53" type="qcurve"/>
			<point x="577" y="39"/>
			<point x="577" y="20" type="qcurve"/>
			<point x="577" y="-1"/>
			<point x="549" y="-25"/>
			<point x="526" y="-25" type="qcurve"/>
			<point x="483" y="-25"/>
			<point x="426" y="75"/>
			<point x="419" y="163" type="qcurve"/>
			<point x="401" y="113"/>
			<point x="359" y="45"/>
			<point x="313" y="6"/>
			<point x="263" y="-11"/>
			<point x="232" y="-11" type="qcurve"/>
			<point x="179" y="-11"/>
			<point x="103" y="47"/>
			<point x="57" y="154"/>
			<point x="39" y="296"/>
			<point x="43" y="380" type="qcurve"/>
			<point x="45" y="421"/>
			<point x="52" y="493"/>
			<point x="62" y="561"/>
			<point x="76" y="630"/>
		</contour>
	</outline>
	<anchor name="mark0" x="302" y="695"/>
	<anchor name="mark1" x="233" y="10"/>
	<anchor name="mark2" x="0" y="0"/>
</glyph>
<glyph name="V" format="2">
	<unicode hex="0056"/>
	<advance width="716"/>
	<outline>
		<contour>
			<point x="81" y="633" type="qcurve"/>
			<point x="75" y="664"/>
			<point x="105" y="702"/>
			<point x="129" y="702" type="qcurve"/>
			<point x="148" y="702"/>
			<point x="175" y="678"/>
			<point x="180" y="657" type="qcurve"/>
			<point x="194" y="596"/>
			<point x="277" y="236"/>
			<point x="302" y="132" type="qcurve"/>
			<point x="371" y="254"/>
			<point x="503" y="519"/>
			<point x="569" y="667" type="qcurve"/>
			<point x="575" y="682"/>
			<point x="600" y="697"/>
			<point x="615" y="697" type="qcurve"/>
			<point x="629" y="697"/>
			<point x="653" y="686"/>
			<point x="666" y="665"/>
			<point x="667" y="639"/>
			<point x="661" y="624" type="qcurve"/>
			<point x="598" y="480"/>
			<point x="436" y="174"/>
			<point x="335" y="9" type="qcurve"/>
			<point x="315" y="-24"/>
			<point x="282" y="-24" type="qcurve"/>
			<point x="265" y="-24"/>
			<point x="242" y="-4"/>
			<point x="236" y="15" type="qcurve"/>
			<point x="196" y="149"/>
			<point x="121" y="448"/>
		</contour>
	</outline>
	<anchor name="mark0" x="362" y="695"/>
	<anchor name="mark1" x="281" y="-3"/>
	<anchor name="mark2" x="0" y="0"/>
</glyph>
<glyph name="X" format="2">
	<unicode hex="0058"/>
	<advance width="724"/>
	<outline>
		<contour>
			<point x="101" y="588" type="qcurve"/>
			<point x="95" y="596"/>
			<point x="86" y="618"/>
			<point x="86" y="629" type="qcurve"/>
			<point x="86" y="652"/>
			<point x="112" y="679"/>
			<point x="131" y="679" type="qcurve"/>
			<point x="148" y="679"/>
			<point x="168" y="662"/>
			<point x="176" y="651" type="qcurve"/>
			<point x="218" y="597"/>
			<point x="319" y="486"/>
			<point x="362" y="428" type="qcurve"/>
			<point x="433" y="492"/>
			<point x="565" y="613"/>
			<point x="626" y="685" type="qcurve"/>
			<point x="634" y="695"/>
			<point x="657" y="703"/>
			<point x="666" y="703" type="qcurve"/>
			<point x="686" y="703"/>
			<point x="714" y="676"/>
			<point x="714" y="656" type="qcurve"/>
			<point x="714" y="634"/>
			<point x="701" y="620" type="qcurve"/>
			<point x="636" y="548"/>
			<point x="498" y="418"/>
			<point x="426" y="352" type="qcurve"/>
			<point x="455" y="316"/>
			<point x="518" y="244"/>
			<point x="582" y="178"/>
			<point x="646" y="121"/>
			<point x="676" y="101" type="qcurve"/>
			<point x="691" y="90"/>
			<point x="702" y="65"/>
			<point x="702" y="52" type="qcurve"/>
			<point x="702" y="33"/>
			<point x="677" y="6"/>
			<point x="659" y="6" type="qcurve"/>
			<point x="651" y="6"/>
			<point x="634" y="9"/>
			<point x="628" y="13" type="qcurve"/>
			<point x="593" y="35"/>
			<point x="521" y="98"/>
			<point x="450" y="170"/>
			<point x="383" y="247"/>
			<point x="353" y="285" type="qcurve"/>
			<point x="320" y="254"/>
			<point x="259" y="198"/>
			<point x="200" y="140"/>
			<point x="143" y="73"/>
			<point x="115" y="30" type="qcurve"/>
			<point x="107" y="16"/>
			<point x="82" y="8"/>
			<point x="71" y="8" type="qcurve"/>
			<point x="52" y="8"/>
			<point x="26" y="35"/>
			<point x="26" y="56" type="qcurve"/>
			<point x="26" y="74"/>
			<point x="35" y="88" type="qcurve"/>
			<point x="57" y="121"/>
			<point x="93" y="170"/>
			<point x="131" y="212"/>
			<point x="174" y="255"/>
			<point x="203" y="282" type="qcurve"/>
			<point x="288" y="361" type="line"/>
			<point x="262" y="397"/>
			<point x="217" y="450"/>
			<point x="173" y="500"/>
			<point x="128" y="553"/>
		</contour>
	</outline>
	<anchor name="mark0" x="378" y="675"/>
	<anchor name="mark1" x="344" y="16"/>
	<anchor name="mark2" x="0" y="0"/>
</glyph>
<glyph name="Y" format="2">
	<unicode hex="0059"/>
	<advance width="657"/>
	<outline>
		<contour>
			<point x="27" y="674" type="qcurve"/>
			<point x="25" y="679"/>
			<point x="25" y="689"/>
			<point x="25" y="694" type="qcurve"/>
			<point x="25" y="713"/>
			<point x="52" y="739"/>
			<point x="72" y="739" type="qcurve"/>
			<point x="89" y="739"/>
			<point x="118" y="718"/>
			<point x="124" y="698" type="qcurve"/>
			<point x="149" y="615"/>
			<point x="225" y="488"/>
			<point x="282" y="428" type="qcurve"/>
			<point x="286" y="429"/>
			<point x="296" y="430"/>
			<point x="304" y="430" type="qcurve"/>
			<point x="336" y="454"/>
			<point x="399" y="501"/>
			<point x="425" y="533" type="qcurve"/>
			<point x="441" y="553"/>
			<point x="467" y="599"/>
			<point x="494" y="644"/>
			<point x="524" y="686"/>
			<point x="544" y="702" type="qcurve"/>
			<point x="556" y="712"/>
			<point x="585" y="730"/>
			<point x="599" y="730" type="qcurve"/>
			<point x="622" y="730"/>
			<point x="646" y="696"/>
			<point x="646" y="678" type="qcurve"/>
			<point x="646" y="665"/>
			<point x="632" y="643"/>
			<point x="613" y="623"/>
			<point x="591" y="603"/>
			<point x="583" y="591" type="qcurve"/>
			<point x="563" y="561"/>
			<point x="526" y="500"/>
			<point x="503" y="471" type="qcurve"/>
			<point x="488" y="452"/>
			<point x="450" y="414"/>
			<point x="408" y="379"/>
			<point x="364" y="347"/>
			<point x="343" y="334" type="qcurve"/>
			<point x="340" y="295"/>
			<point x="329" y="212"/>
			<point x="317" y="130"/>
			<point x="309" y="54"/>
			<point x="309" y="21" type="qcurve"/>
			<point x="309" y="-5"/>
			<point x="275" y="-29"/>
			<point x="258" y="-29" type="qcurve"/>
			<point x="239" y="-29"/>
			<point x="209" y="0"/>
			<point x="209" y="29" type="qcurve"/>
			<point x="209" y="60"/>
			<point x="217" y="134"/>
			<point x="227" y="212"/>
			<point x="239" y="291"/>
			<point x="242" y="329" type="qcurve"/>
			<point x="205" y="354"/>
			<point x="137" y="439"/>
			<point x="81" y="536"/>
			<point x="39" y="635"/>
		</contour>
	</outline>
	<anchor name="mark0" x="323" y="725"/>
	<anchor name="mark1" x="259" y="-6"/>
	<anchor name="mark2" x="0" y="0"/>
</glyph>
<glyph name="Z" format="2">
	<unicode hex="005A"/>
	<advance width="687"/>
	<outline>
		<contour>
			<point x="291" y="418" type="line"/>
			<point x="407" y="615" type="line"/>
			<point x="357" y="617"/>
			<point x="276" y="620"/>
			<point x="201" y="621"/>
			<point x="128" y="621"/>
			<point x="87" y="621" type="qcurve"/>
			<point x="64" y="621"/>
			<point x="37" y="653"/>
			<point x="37" y="671" type="qcurve"/>
			<point x="37" y="689"/>
			<point x="66" y="721"/>
			<point x="87" y="721" type="qcurve"/>
			<point x="186" y="721"/>
			<point x="377" y="719"/>
			<point x="474" y="717" type="qcurve"/>
			<point x="478" y="717"/>
			<point x="486" y="718"/>
			<point x="490" y="718" type="qcurve"/>
			<point x="510" y="718"/>
			<point x="546" y="692"/>
			<point x="546" y="664" type="qcurve"/>
			<point x="546" y="645"/>
			<point x="521" y="612"/>
			<point x="511" y="596" type="qcurve"/>
			<point x="410" y="424" type="line"/>
			<point x="351" y="321" type="line"/>
			<point x="338" y="297"/>
			<point x="308" y="245"/>
			<point x="294" y="219" type="qcurve"/>
			<point x="277" y="187"/>
			<point x="240" y="128"/>
			<point x="220" y="96" type="qcurve"/>
			<point x="211" y="83" type="line"/>
			<point x="274" y="85"/>
			<point x="401" y="90"/>
			<point x="512" y="95"/>
			<point x="599" y="98"/>
			<point x="623" y="98" type="qcurve"/>
			<point x="650" y="98"/>
			<point x="677" y="65"/>
			<point x="677" y="48" type="qcurve"/>
			<point x="677" y="31"/>
			<point x="648" y="-2"/>
			<point x="623" y="-2" type="qcurve"/>
			<point x="606" y="-2"/>
			<point x="560" y="-3"/>
			<point x="508" y="-5"/>
			<point x="453" y="-7"/>
			<point x="429" y="-8" type="qcurve"/>
			<point x="364" y="-10"/>
			<point x="241" y="-17"/>
			<point x="185" y="-17" type="qcurve"/>
			<point x="164" y="-17"/>
			<point x="121" y="-14"/>
			<point x="87" y="-4"/>
			<point x="66" y="18"/>
			<point x="66" y="38" type="qcurve"/>
			<point x="66" y="58"/>
			<point x="84" y="80"/>
			<point x="95" y="92" type="qcurve"/>
			<point x="112" y="111"/>
			<point x="139" y="155"/>
			<point x="153" y="176" type="qcurve"/>
			<point x="175" y="210"/>
			<point x="216" y="281"/>
			<point x="236" y="316" type="qcurve"/>
		</contour>
	</outline>
	<anchor name="mark0" x="286" y="707"/>
	<anchor name="mark1" x="373" y="8"/>
	<anchor name="mark2" x="0" y="0"/>
</glyph>
<glyph name="bracketleft" format="2">
	<unicode hex="005B"/>
	<advance width="408"/>
	<outline>
		<contour>
			<point x="201" y="738" type="qcurve"/>
			<point x="241" y="738"/>
			<point x="300" y="728"/>
			<point x="338" y="719" type="qcurve"/>
			<point x="360" y="714"/>
			<point x="380" y="685"/>
			<point x="380" y="671" type="qcurve"/>
			<point x="380" y="653"/>
			<point x="353" y="621"/>
			<point x="326" y="621" type="qcurve"/>
			<point x="311" y="621"/>
			<point x="286" y="626"/>
			<point x="259" y="633"/>
			<point x="224" y="638"/>
			<point x="199" y="638" type="qcurve"/>
			<point x="184" y="534"/>
			<point x="175" y="326"/>
			<point x="175" y="221" type="qcurve"/>
			<point x="175" y="159"/>
			<point x="186" y="27"/>
			<point x="194" y="-27" type="qcurve"/>
			<point x="220" y="-26"/>
			<point x="271" y="-19"/>
			<point x="296" y="-19" type="qcurve"/>
			<point x="325" y="-19"/>
			<point x="352" y="-52"/>
			<point x="352" y="-69" type="qcurve"/>
			<point x="352" y="-105"/>
			<point x="273" y="-126"/>
			<point x="197" y="-126" type="qcurve"/>
			<point x="177" y="-126"/>
			<point x="139" y="-121"/>
			<point x="110" y="-106"/>
			<point x="92" y="-81"/>
			<point x="92" y="-61" type="qcurve"/>
			<point x="92" y="-53" type="line"/>
			<point x="89" y="-26"/>
			<point x="84" y="42"/>
			<point x="80" y="117"/>
			<point x="77" y="194"/>
			<point x="77" y="231" type="qcurve"/>
			<point x="77" y="266"/>
			<point x="78" y="355"/>
			<point x="80" y="449"/>
			<point x="85" y="543"/>
			<point x="93" y="625"/>
			<point x="106" y="689"/>
			<point x="115" y="706" type="qcurve"/>
			<point x="125" y="724"/>
			<point x="172" y="738"/>
		</contour>
	</outline>
</glyph>
<glyph name="backslash" format="2">
	<unicode hex="005C"/>
	<advance width="489"/>
	<outline>
		<contour>
			<point x="63" y="650" type="qcurve"/>
			<point x="63" y="676"/>
			<point x="93" y="698"/>
			<point x="112" y="698" type="qcurve"/>
			<point x="127" y="698"/>
			<point x="147" y="683"/>
			<point x="158" y="664"/>
			<point x="163" y="647"/>
			<point x="165" y="644" type="qcurve"/>
			<point x="194" y="597"/>
			<point x="240" y="496"/>
			<point x="282" y="393"/>
			<point x="322" y="287"/>
			<point x="344" y="235" type="qcurve"/>
			<point x="356" y="207"/>
			<point x="387" y="147"/>
			<point x="416" y="89"/>
			<point x="435" y="33"/>
			<point x="435" y="9" type="qcurve"/>
			<point x="435" y="-16"/>
			<point x="403" y="-41"/>
			<point x="386" y="-41" type="qcurve"/>
			<point x="371" y="-41"/>
			<point x="338" y="-19"/>
			<point x="334" y="7" type="qcurve"/>
			<point x="330" y="33"/>
			<point x="311" y="81"/>
			<point x="287" y="127"/>
			<point x="262" y="172"/>
			<point x="252" y="195" type="qcurve"/>
			<point x="220" y="270"/>
			<point x="167" y="420"/>
			<point x="135" y="493" type="qcurve"/>
			<point x="127" y="511"/>
			<point x="103" y="550"/>
			<point x="80" y="590"/>
			<point x="63" y="630"/>
		</contour>
	</outline>
</glyph>
<glyph name="underscore" format="2">
	<unicode hex="005F"/>
	<advance width="442"/>
	<outline>
		<contour>
			<point x="-4" y="-227" type="qcurve"/>
			<point x="-27" y="-222"/>
			<point x="-48" y="-193"/>
			<point x="-48" y="-177" type="qcurve"/>
			<point x="-48" y="-161"/>
			<point x="-27" y="-133"/>
			<point x="-4" y="-127" type="qcurve"/>
			<point x="105" y="-125"/>
			<point x="318" y="-109"/>
			<point x="427" y="-107" type="qcurve"/>
			<point x="454" y="-110"/>
			<point x="481" y="-140"/>
			<point x="481" y="-157" type="qcurve"/>
			<point x="481" y="-174"/>
			<point x="454" y="-205"/>
			<point x="427" y="-207" type="qcurve"/>
			<point x="318" y="-209"/>
			<point x="105" y="-225"/>
		</contour>
	</outline>
</glyph>
<glyph name="b" format="2">
	<unicode hex="0062"/>
	<advance width="581"/>
	<outline>
		<contour>
			<point x="123" y="720" type="qcurve"/>
			<point x="124" y="735"/>
			<point x="135" y="755"/>
			<point x="150" y="765"/>
			<point x="166" y="769"/>
			<point x="174" y="769" type="qcurve"/>
			<point x="192" y="769"/>
			<point x="223" y="744"/>
			<point x="221" y="712" type="qcurve"/>
			<point x="217" y="665"/>
			<point x="210" y="584"/>
			<point x="200" y="509"/>
			<point x="188" y="435"/>
			<point x="180" y="396" type="qcurve"/>
			<point x="202" y="431"/>
			<point x="250" y="474"/>
			<point x="298" y="497"/>
			<point x="343" y="505"/>
			<point x="362" y="505" type="qcurve"/>
			<point x="406" y="505"/>
			<point x="475" y="469"/>
			<point x="522" y="406"/>
			<point x="546" y="320"/>
			<point x="546" y="271" type="qcurve"/>
			<point x="546" y="203"/>
			<point x="510" y="87"/>
			<point x="443" y="3"/>
			<point x="347" y="-45"/>
			<point x="288" y="-45" type="qcurve"/>
			<point x="246" y="-45"/>
			<point x="173" y="-19"/>
			<point x="118" y="27"/>
			<point x="81" y="92"/>
			<point x="74" y="130" type="qcurve"/>
			<point x="71" y="140"/>
			<point x="75" y="153" type="qcurve"/>
			<point x="60" y="167"/>
			<point x="64" y="192" type="qcurve"/>
			<point x="82" y="329"/>
			<point x="112" y="585"/>
		</contour>
		<contour>
			<point x="163" y="189" type="qcurve"/>
			<point x="160" y="169"/>
			<point x="151" y="157" type="qcurve"/>
			<point x="172" y="102"/>
			<point x="236" y="49"/>
			<point x="288" y="49" type="qcurve"/>
			<point x="361" y="49"/>
			<point x="435" y="165"/>
			<point x="438" y="264" type="qcurve"/>
			<point x="439" y="294"/>
			<point x="427" y="347"/>
			<point x="403" y="386"/>
			<point x="367" y="409"/>
			<point x="342" y="409" type="qcurve"/>
			<point x="318" y="409"/>
			<point x="268" y="386"/>
			<point x="222" y="334"/>
			<point x="180" y="250"/>
		</contour>
	</outline>
	<anchor name="mark0" x="180" y="725"/>
	<anchor name="mark1" x="294" y="0"/>
	<anchor name="mark2" x="0" y="0"/>
</glyph>
<glyph name="c" format="2">
	<unicode hex="0063"/>
	<advance width="551"/>
	<outline>
		<contour>
			<point x="493" y="406" type="qcurve"/>
			<point x="493" y="382"/>
			<point x="463" y="351"/>
			<point x="439" y="351" type="qcurve"/>
			<point x="416" y="351"/>
			<point x="385" y="380"/>
			<point x="379" y="414" type="qcurve"/>
			<point x="363" y="418"/>
			<point x="330" y="423"/>
			<point x="310" y="423" type="qcurve"/>
			<point x="276" y="423"/>
			<point x="223" y="398"/>
			<point x="184" y="353"/>
			<point x="160" y="291"/>
			<point x="156" y="254" type="qcurve"/>
			<point x="147" y="171"/>
			<point x="209" y="81"/>
			<point x="274" y="81" type="qcurve"/>
			<point x="321" y="81"/>
			<point x="394" y="114"/>
			<point x="425" y="140" type="qcurve"/>
			<point x="446" y="158"/>
			<point x="480" y="154"/>
			<point x="498" y="128"/>
			<point x="494" y="89"/>
			<point x="478" y="72" type="qcurve"/>
			<point x="459" y="51"/>
			<point x="410" y="19"/>
			<point x="355" y="-3"/>
			<point x="296" y="-14"/>
			<point x="268" y="-14" type="qcurve"/>
			<point x="213" y="-14"/>
			<point x="128" y="23"/>
			<point x="72" y="92"/>
			<point x="45" y="192"/>
			<point x="49" y="254" type="qcurve"/>
			<point x="52" y="311"/>
			<point x="93" y="407"/>
			<point x="162" y="478"/>
			<point x="254" y="518"/>
			<point x="310" y="518" type="qcurve"/>
			<point x="344" y="518"/>
			<point x="410" y="502"/>
			<point x="461" y="472"/>
			<point x="493" y="431"/>
		</contour>
	</outline>
	<anchor name="mark0" x="300" y="500"/>
	<anchor name="mark1" x="276" y="0"/>
	<anchor name="mark2" x="464" y="112"/>
</glyph>
<glyph name="f" format="2">
	<unicode hex="0066"/>
	<advance width="450"/>
	<outline>
		<contour>
			<point x="43" y="477" type="qcurve"/>
			<point x="67" y="479"/>
			<point x="114" y="481"/>
			<point x="138" y="482" type="qcurve"/>
			<point x="150" y="545"/>
			<point x="185" y="645"/>
			<point x="236" y="715"/>
			<point x="305" y="752"/>
			<point x="350" y="752" type="qcurve"/>
			<point x="375" y="752"/>
			<point x="419" y="739"/>
			<point x="455" y="718"/>
			<point x="483" y="694"/>
			<point x="492" y="683" type="qcurve"/>
			<point x="508" y="662"/>
			<point x="510" y="624"/>
			<point x="493" y="600"/>
			<point x="462" y="595"/>
			<point x="447" y="608" type="qcurve"/>
			<point x="425" y="626"/>
			<point x="376" y="656"/>
			<point x="349" y="656" type="qcurve"/>
			<point x="313" y="656"/>
			<point x="264" y="574"/>
			<point x="245" y="484" type="qcurve"/>
			<point x="283" y="485"/>
			<point x="359" y="484"/>
			<point x="397" y="483" type="qcurve"/>
			<point x="426" y="482"/>
			<point x="451" y="454"/>
			<point x="451" y="440" type="qcurve"/>
			<point x="451" y="422"/>
			<point x="426" y="397"/>
			<point x="400" y="396" type="qcurve"/>
			<point x="314" y="395"/>
			<point x="228" y="390" type="qcurve"/>
			<point x="214" y="295"/>
			<point x="206" y="125"/>
			<point x="206" y="33" type="qcurve"/>
			<point x="206" y="0"/>
			<point x="171" y="-26"/>
			<point x="154" y="-26" type="qcurve"/>
			<point x="135" y="-26"/>
			<point x="106" y="3"/>
			<point x="105" y="32" type="qcurve"/>
			<point x="104" y="65"/>
			<point x="105" y="147"/>
			<point x="109" y="239"/>
			<point x="117" y="336"/>
			<point x="123" y="384" type="qcurve"/>
			<point x="103" y="383"/>
			<point x="62" y="381"/>
			<point x="42" y="379" type="qcurve"/>
			<point x="24" y="378"/>
			<point x="2" y="387"/>
			<point x="-12" y="403"/>
			<point x="-17" y="421"/>
			<point x="-17" y="429" type="qcurve"/>
			<point x="-17" y="444"/>
			<point x="7" y="475"/>
		</contour>
	</outline>
	<anchor name="mark0" x="360" y="725"/>
	<anchor name="mark1" x="151" y="0"/>
	<anchor name="mark2" x="0" y="0"/>
</glyph>
<glyph name="h" format="2">
	<unicode hex="0068"/>
	<advance width="602"/>
	<outline>
		<contour>
			<point x="112" y="739" type="qcurve"/>
			<point x="114" y="762"/>
			<point x="140" y="790"/>
			<point x="163" y="790" type="qcurve"/>
			<point x="183" y="790"/>
			<point x="213" y="760"/>
			<point x="211" y="736" type="qcurve"/>
			<point x="206" y="672"/>
			<point x="197" y="563"/>
			<point x="186" y="464"/>
			<point x="174" y="372"/>
			<point x="167" y="326" type="qcurve"/>
			<point x="208" y="431"/>
			<point x="309" y="518"/>
			<point x="373" y="518" type="qcurve"/>
			<point x="414" y="518"/>
			<point x="469" y="483"/>
			<point x="499" y="419"/>
			<point x="506" y="325"/>
			<point x="500" y="267" type="qcurve"/>
			<point x="494" y="204"/>
			<point x="493" y="127"/>
			<point x="507" y="83"/>
			<point x="533" y="66"/>
			<point x="554" y="63" type="qcurve"/>
			<point x="565" y="61"/>
			<point x="586" y="60"/>
			<point x="602" y="57"/>
			<point x="611" y="48"/>
			<point x="611" y="39" type="qcurve"/>
			<point x="611" y="23"/>
			<point x="595" y="0"/>
			<point x="569" y="-15"/>
			<point x="539" y="-22"/>
			<point x="526" y="-22" type="qcurve"/>
			<point x="481" y="-22"/>
			<point x="425" y="16"/>
			<point x="397" y="82"/>
			<point x="392" y="173"/>
			<point x="397" y="226" type="qcurve"/>
			<point x="403" y="286"/>
			<point x="403" y="363"/>
			<point x="392" y="407"/>
			<point x="370" y="424"/>
			<point x="354" y="424" type="qcurve"/>
			<point x="328" y="424"/>
			<point x="273" y="375"/>
			<point x="241" y="312" type="qcurve"/>
			<point x="215" y="263"/>
			<point x="167" y="122"/>
			<point x="153" y="28" type="qcurve"/>
			<point x="153" y="11"/>
			<point x="127" y="-20"/>
			<point x="100" y="-20" type="qcurve"/>
			<point x="78" y="-20"/>
			<point x="53" y="10"/>
			<point x="54" y="33" type="qcurve"/>
			<point x="55" y="72"/>
			<point x="62" y="175"/>
			<point x="71" y="293"/>
			<point x="81" y="422"/>
			<point x="93" y="553"/>
			<point x="106" y="681"/>
		</contour>
	</outline>
	<anchor name="mark0" x="180" y="750"/>
	<anchor name="mark1" x="278" y="0"/>
	<anchor name="mark2" x="0" y="0"/>
</glyph>
<glyph name="i" format="2">
	<unicode hex="0069"/>
	<advance width="240"/>
	<outline>
		<contour>
			<point x="76" y="467" type="qcurve"/>
			<point x="77" y="490"/>
			<point x="103" y="520"/>
			<point x="127" y="520" type="qcurve"/>
			<point x="151" y="520"/>
			<point x="178" y="490"/>
			<point x="178" y="464" type="qcurve"/>
			<point x="177" y="410"/>
			<point x="172" y="299"/>
			<point x="165" y="190"/>
			<point x="157" y="88"/>
			<point x="153" y="45" type="qcurve"/>
			<point x="150" y="16"/>
			<point x="119" y="-11"/>
			<point x="102" y="-11" type="qcurve"/>
			<point x="83" y="-11"/>
			<point x="52" y="19"/>
			<point x="54" y="52" type="qcurve"/>
			<point x="57" y="110"/>
			<point x="63" y="212"/>
			<point x="69" y="310"/>
			<point x="74" y="411"/>
		</contour>
		<contour>
			<point x="140" y="606" type="qcurve"/>
			<point x="120" y="606"/>
			<point x="92" y="619"/>
			<point x="74" y="638"/>
			<point x="65" y="661"/>
			<point x="65" y="671" type="qcurve"/>
			<point x="65" y="699"/>
			<point x="107" y="747"/>
			<point x="142" y="747" type="qcurve"/>
			<point x="170" y="747"/>
			<point x="207" y="709"/>
			<point x="207" y="677" type="qcurve"/>
			<point x="207" y="649"/>
			<point x="171" y="606"/>
		</contour>
	</outline>
	<anchor name="mark0" x="150" y="725"/>
	<anchor name="mark1" x="102" y="0"/>
	<anchor name="mark2" x="0" y="0"/>
</glyph>
<glyph name="j" format="2">
	<unicode hex="006A"/>
	<advance width="316"/>
	<outline>
		<contour>
			<point x="166" y="605" type="qcurve"/>
			<point x="131" y="605"/>
			<point x="92" y="650"/>
			<point x="92" y="677" type="qcurve"/>
			<point x="92" y="689"/>
			<point x="102" y="714"/>
			<point x="121" y="735"/>
			<point x="149" y="749"/>
			<point x="167" y="749" type="qcurve"/>
			<point x="182" y="749"/>
			<point x="208" y="735"/>
			<point x="227" y="711"/>
			<point x="237" y="682"/>
			<point x="237" y="667" type="qcurve"/>
			<point x="237" y="643"/>
			<point x="203" y="605"/>
		</contour>
		<contour>
			<point x="107" y="462" type="qcurve"/>
			<point x="109" y="486"/>
			<point x="138" y="513"/>
			<point x="159" y="513" type="qcurve"/>
			<point x="181" y="513"/>
			<point x="213" y="483"/>
			<point x="211" y="450" type="qcurve"/>
			<point x="210" y="414"/>
			<point x="206" y="355"/>
			<point x="204" y="297"/>
			<point x="205" y="236"/>
			<point x="209" y="198" type="qcurve"/>
			<point x="213" y="162"/>
			<point x="226" y="89"/>
			<point x="236" y="11"/>
			<point x="240" y="-70"/>
			<point x="235" y="-113" type="qcurve"/>
			<point x="230" y="-154"/>
			<point x="194" y="-236"/>
			<point x="131" y="-301"/>
			<point x="44" y="-341"/>
			<point x="-12" y="-341" type="qcurve"/>
			<point x="-74" y="-341"/>
			<point x="-151" y="-298"/>
			<point x="-171" y="-274" type="qcurve"/>
			<point x="-185" y="-256"/>
			<point x="-186" y="-220"/>
			<point x="-168" y="-197"/>
			<point x="-135" y="-195"/>
			<point x="-115" y="-212" type="qcurve"/>
			<point x="-94" y="-230"/>
			<point x="-54" y="-247"/>
			<point x="-28" y="-247" type="qcurve"/>
			<point x="42" y="-247"/>
			<point x="127" y="-164"/>
			<point x="131" y="-93" type="qcurve"/>
			<point x="132" y="-65"/>
			<point x="129" y="-10"/>
			<point x="123" y="49"/>
			<point x="114" y="116"/>
			<point x="109" y="157" type="qcurve"/>
			<point x="98" y="248"/>
			<point x="102" y="401"/>
		</contour>
	</outline>
	<anchor name="mark0" x="163" y="725"/>
	<anchor name="mark1" x="-18" y="-355"/>
	<anchor name="mark2" x="0" y="0"/>
</glyph>
<glyph name="o" format="2">
	<unicode hex="006F"/>
	<advance width="574"/>
	<outline>
		<contour>
			<point x="397" y="463" type="qcurve"/>
			<point x="422" y="467"/>
			<point x="476" y="432"/>
			<point x="517" y="367"/>
			<point x="536" y="285"/>
			<point x="533" y="241" type="qcurve"/>
			<point x="529" y="182"/>
			<point x="483" y="75"/>
			<point x="406" y="-3"/>
			<point x="308" y="-45"/>
			<point x="252" y="-45" type="qcurve"/>
			<point x="205" y="-45"/>
			<point x="123" y="-10"/>
			<point x="63" y="56"/>
			<point x="32" y="144"/>
			<point x="32" y="197" type="qcurve"/>
			<point x="32" y="260"/>
			<point x="69" y="377"/>
			<point x="138" y="466"/>
			<point x="228" y="513"/>
			<point x="278" y="513" type="qcurve"/>
			<point x="310" y="513"/>
			<point x="379" y="489"/>
		</contour>
		<contour>
			<point x="367" y="415" type="qcurve"/>
			<point x="354" y="411"/>
			<point x="302" y="423"/>
			<point x="288" y="423" type="qcurve"/>
			<point x="257" y="423"/>
			<point x="202" y="387"/>
			<point x="160" y="323"/>
			<point x="137" y="243"/>
			<point x="137" y="200" type="qcurve"/>
			<point x="137" y="165"/>
			<point x="154" y="106"/>
			<point x="186" y="65"/>
			<point x="230" y="45"/>
			<point x="257" y="45" type="qcurve"/>
			<point x="290" y="45"/>
			<point x="351" y="77"/>
			<point x="399" y="134"/>
			<point x="427" y="208"/>
			<point x="429" y="249" type="qcurve"/>
			<point x="431" y="284"/>
			<point x="421" y="339"/>
			<point x="403" y="381"/>
			<point x="379" y="408"/>
		</contour>
	</outline>
	<anchor name="mark0" x="300" y="500"/>
	<anchor name="mark1" x="265" y="0"/>
	<anchor name="mark2" x="0" y="0"/>
</glyph>
<glyph name="p" format="2">
	<unicode hex="0070"/>
	<advance width="606"/>
	<outline>
		<contour>
			<point x="115" y="532" type="qcurve"/>
			<point x="135" y="532"/>
			<point x="168" y="509"/>
			<point x="174" y="483" type="qcurve"/>
			<point x="183" y="447"/>
			<point x="193" y="361"/>
			<point x="196" y="313" type="qcurve"/>
			<point x="208" y="349"/>
			<point x="246" y="420"/>
			<point x="298" y="476"/>
			<point x="363" y="511"/>
			<point x="404" y="511" type="qcurve"/>
			<point x="449" y="511"/>
			<point x="515" y="474"/>
			<point x="557" y="404"/>
			<point x="571" y="305"/>
			<point x="563" y="244" type="qcurve"/>
			<point x="555" y="186"/>
			<point x="514" y="95"/>
			<point x="454" y="33"/>
			<point x="382" y="1"/>
			<point x="345" y="1" type="qcurve"/>
			<point x="307" y="1"/>
			<point x="241" y="24"/>
			<point x="215" y="44" type="qcurve"/>
			<point x="213" y="-43"/>
			<point x="203" y="-214"/>
			<point x="197" y="-285" type="qcurve"/>
			<point x="191" y="-340"/>
			<point x="150" y="-340" type="qcurve"/>
			<point x="130" y="-340"/>
			<point x="99" y="-312"/>
			<point x="101" y="-284" type="qcurve"/>
			<point x="104" y="-235"/>
			<point x="107" y="-143"/>
			<point x="110" y="-52"/>
			<point x="110" y="-5" type="qcurve"/>
			<point x="110" y="93" type="line"/>
			<point x="109" y="149"/>
			<point x="105" y="230"/>
			<point x="103" y="265" type="qcurve"/>
			<point x="100" y="310"/>
			<point x="84" y="415"/>
			<point x="71" y="467" type="qcurve"/>
			<point x="63" y="496"/>
			<point x="90" y="532"/>
		</contour>
		<contour>
			<point x="396" y="415" type="qcurve"/>
			<point x="372" y="415"/>
			<point x="321" y="381"/>
			<point x="273" y="311"/>
			<point x="233" y="204"/>
			<point x="220" y="132" type="qcurve"/>
			<point x="247" y="114"/>
			<point x="303" y="93"/>
			<point x="336" y="93" type="qcurve"/>
			<point x="384" y="93"/>
			<point x="446" y="179"/>
			<point x="456" y="258" type="qcurve"/>
			<point x="466" y="341"/>
			<point x="434" y="415"/>
		</contour>
	</outline>
	<anchor name="mark0" x="350" y="500"/>
	<anchor name="mark1" x="358" y="0"/>
	<anchor name="mark2" x="0" y="0"/>
</glyph>
<glyph name="q" format="2">
	<unicode hex="0071"/>
	<advance width="569"/>
	<outline>
		<contour>
			<point x="420" y="482" type="qcurve"/>
			<point x="426" y="478"/>
			<point x="428" y="475" type="qcurve"/>
			<point x="436" y="487"/>
			<point x="460" y="497"/>
			<point x="473" y="497" type="qcurve"/>
			<point x="495" y="497"/>
			<point x="522" y="466"/>
			<point x="522" y="439" type="qcurve"/>
			<point x="522" y="421"/>
			<point x="515" y="386"/>
			<point x="513" y="371" type="qcurve"/>
			<point x="504" y="304"/>
			<point x="485" y="177"/>
			<point x="477" y="107" type="qcurve"/>
			<point x="466" y="9"/>
			<point x="453" y="-190"/>
			<point x="450" y="-286" type="qcurve"/>
			<point x="449" y="-315"/>
			<point x="416" y="-340"/>
			<point x="399" y="-340" type="qcurve"/>
			<point x="380" y="-340"/>
			<point x="350" y="-311"/>
			<point x="350" y="-282" type="qcurve"/>
			<point x="350" y="-247"/>
			<point x="354" y="-136"/>
			<point x="359" y="-61" type="qcurve"/>
			<point x="361" y="-25"/>
			<point x="370" y="52"/>
			<point x="376" y="92" type="qcurve"/>
			<point x="347" y="42"/>
			<point x="267" y="-16"/>
			<point x="212" y="-16" type="qcurve"/>
			<point x="170" y="-16"/>
			<point x="102" y="22"/>
			<point x="57" y="94"/>
			<point x="38" y="198"/>
			<point x="46" y="263" type="qcurve"/>
			<point x="53" y="318"/>
			<point x="94" y="410"/>
			<point x="159" y="476"/>
			<point x="243" y="513"/>
			<point x="293" y="513" type="qcurve"/>
			<point x="330" y="513"/>
			<point x="400" y="494"/>
		</contour>
		<contour>
			<point x="226" y="80" type="qcurve"/>
			<point x="287" y="80"/>
			<point x="385" y="240"/>
			<point x="413" y="401" type="qcurve"/>
			<point x="409" y="401"/>
			<point x="401" y="403" type="qcurve"/>
			<point x="381" y="408"/>
			<point x="332" y="417"/>
			<point x="303" y="417" type="qcurve"/>
			<point x="235" y="417"/>
			<point x="156" y="326"/>
			<point x="148" y="246" type="qcurve"/>
			<point x="141" y="169"/>
			<point x="183" y="80"/>
		</contour>
	</outline>
	<anchor name="mark0" x="291" y="500"/>
	<anchor name="mark1" x="222" y="0"/>
	<anchor name="mark2" x="0" y="0"/>
</glyph>
<glyph name="u" format="2">
	<unicode hex="0075"/>
	<advance width="673"/>
	<outline>
		<contour>
			<point x="109" y="488" type="qcurve"/>
			<point x="114" y="510"/>
			<point x="145" y="530"/>
			<point x="160" y="530" type="qcurve"/>
			<point x="169" y="530"/>
			<point x="188" y="523"/>
			<point x="202" y="508"/>
			<point x="209" y="482"/>
			<point x="206" y="464" type="qcurve"/>
			<point x="200" y="432"/>
			<point x="186" y="370"/>
			<point x="172" y="302"/>
			<point x="159" y="228"/>
			<point x="156" y="184" type="qcurve"/>
			<point x="154" y="162"/>
			<point x="159" y="121"/>
			<point x="174" y="90"/>
			<point x="200" y="72"/>
			<point x="220" y="72" type="qcurve"/>
			<point x="264" y="72"/>
			<point x="340" y="130"/>
			<point x="402" y="232"/>
			<point x="446" y="372"/>
			<point x="458" y="453" type="qcurve"/>
			<point x="463" y="482"/>
			<point x="493" y="503"/>
			<point x="512" y="503" type="qcurve"/>
			<point x="535" y="503"/>
			<point x="562" y="472"/>
			<point x="560" y="443" type="qcurve"/>
			<point x="558" y="414"/>
			<point x="553" y="351"/>
			<point x="550" y="287"/>
			<point x="549" y="226"/>
			<point x="549" y="199" type="qcurve"/>
			<point x="549" y="154"/>
			<point x="557" y="80"/>
			<point x="563" y="52" type="qcurve"/>
			<point x="600" y="58" type="line"/>
			<point x="624" y="62"/>
			<point x="649" y="43"/>
			<point x="653" y="14"/>
			<point x="637" y="-17"/>
			<point x="620" y="-24" type="qcurve"/>
			<point x="583" y="-40"/>
			<point x="553" y="-40" type="qcurve"/>
			<point x="497" y="-40"/>
			<point x="454" y="72"/>
			<point x="457" y="178" type="qcurve"/>
			<point x="431" y="115"/>
			<point x="370" y="37"/>
			<point x="307" y="-8"/>
			<point x="246" y="-24"/>
			<point x="221" y="-24" type="qcurve"/>
			<point x="181" y="-24"/>
			<point x="118" y="6"/>
			<point x="75" y="60"/>
			<point x="54" y="135"/>
			<point x="56" y="180" type="qcurve"/>
			<point x="58" y="225"/>
			<point x="68" y="305"/>
			<point x="83" y="380"/>
			<point x="100" y="451"/>
		</contour>
	</outline>
	<anchor name="mark0" x="336" y="500"/>
	<anchor name="mark1" x="216" y="0"/>
	<anchor name="mark2" x="0" y="0"/>
</glyph>
<glyph name="w" format="2">
	<unicode hex="0077"/>
	<advance width="805"/>
	<outline>
		<contour>
			<point x="43" y="469" type="qcurve"/>
			<point x="39" y="502"/>
			<point x="72" y="532"/>
			<point x="91" y="532" type="qcurve"/>
			<point x="111" y="532"/>
			<point x="141" y="507"/>
			<point x="146" y="476" type="qcurve"/>
			<point x="157" y="385"/>
			<point x="194" y="201"/>
			<point x="224" y="119" type="qcurve"/>
			<point x="244" y="182"/>
			<point x="293" y="295"/>
			<point x="320" y="346" type="qcurve"/>
			<point x="331" y="373"/>
			<point x="365" y="397"/>
			<point x="385" y="397" type="qcurve"/>
			<point x="408" y="397"/>
			<point x="441" y="368"/>
			<point x="446" y="343" type="qcurve"/>
			<point x="488" y="219"/>
			<point x="551" y="103" type="qcurve"/>
			<point x="579" y="141"/>
			<point x="618" y="220"/>
			<point x="642" y="307"/>
			<point x="653" y="405"/>
			<point x="653" y="463" type="qcurve"/>
			<point x="653" y="492"/>
			<point x="686" y="520"/>
			<point x="707" y="520" type="qcurve"/>
			<point x="727" y="520"/>
			<point x="759" y="491"/>
			<point x="759" y="462" type="qcurve"/>
			<point x="759" y="409"/>
			<point x="747" y="299"/>
			<point x="714" y="190"/>
			<point x="658" y="86"/>
			<point x="613" y="39" type="qcurve"/>
			<point x="597" y="16"/>
			<point x="566" y="-5"/>
			<point x="543" y="-5" type="qcurve"/>
			<point x="517" y="-5"/>
			<point x="484" y="21"/>
			<point x="470" y="42" type="qcurve"/>
			<point x="444" y="83"/>
			<point x="400" y="179"/>
			<point x="378" y="243" type="qcurve"/>
			<point x="350" y="184"/>
			<point x="309" y="92"/>
			<point x="289" y="46" type="qcurve"/>
			<point x="282" y="17"/>
			<point x="242" y="-8"/>
			<point x="222" y="-8" type="qcurve"/>
			<point x="169" y="-8"/>
			<point x="149" y="58" type="qcurve"/>
			<point x="127" y="109"/>
			<point x="93" y="206"/>
			<point x="67" y="306"/>
			<point x="49" y="410"/>
		</contour>
	</outline>
	<anchor name="mark0" x="407" y="500"/>
	<anchor name="mark1" x="370" y="0"/>
	<anchor name="mark2" x="0" y="0"/>
</glyph>
<glyph name="x" format="2">
	<unicode hex="0078"/>
	<advance width="580"/>
	<outline>
		<contour>
			<point x="41" y="468" type="qcurve"/>
			<point x="36" y="483"/>
			<point x="41" y="507"/>
			<point x="54" y="525"/>
			<point x="74" y="534"/>
			<point x="83" y="534" type="qcurve"/>
			<point x="122" y="534"/>
			<point x="136" y="500" type="qcurve"/>
			<point x="150" y="468"/>
			<point x="201" y="366"/>
			<point x="234" y="312" type="qcurve"/>
			<point x="312" y="409"/>
			<point x="448" y="518"/>
			<point x="496" y="518" type="qcurve"/>
			<point x="517" y="518"/>
			<point x="543" y="495"/>
			<point x="549" y="464"/>
			<point x="532" y="431"/>
			<point x="509" y="421" type="qcurve"/>
			<point x="443" y="392"/>
			<point x="337" y="289"/>
			<point x="291" y="231" type="qcurve"/>
			<point x="328" y="186"/>
			<point x="404" y="111"/>
			<point x="441" y="79" type="qcurve"/>
			<point x="456" y="66"/>
			<point x="466" y="33"/>
			<point x="458" y="5"/>
			<point x="432" y="-13"/>
			<point x="413" y="-12" type="qcurve"/>
			<point x="395" y="-11"/>
			<point x="349" y="21"/>
			<point x="299" y="71"/>
			<point x="248" y="131"/>
			<point x="225" y="160" type="qcurve"/>
			<point x="201" y="128"/>
			<point x="171" y="53"/>
			<point x="169" y="8" type="qcurve"/>
			<point x="181" y="-5"/>
			<point x="186" y="-33"/>
			<point x="176" y="-57"/>
			<point x="152" y="-73"/>
			<point x="134" y="-73" type="qcurve"/>
			<point x="117" y="-73"/>
			<point x="92" y="-56"/>
			<point x="76" y="-27"/>
			<point x="68" y="10"/>
			<point x="68" y="31" type="qcurve"/>
			<point x="68" y="76"/>
			<point x="114" y="185"/>
			<point x="163" y="244" type="qcurve"/>
			<point x="120" y="308"/>
			<point x="56" y="424"/>
		</contour>
	</outline>
	<anchor name="mark0" x="285" y="500"/>
	<anchor name="mark1" x="258" y="0"/>
	<anchor name="mark2" x="0" y="0"/>
</glyph>
<glyph name="asciitilde" format="2">
	<unicode hex="007E"/>
	<advance width="500"/>
	<outline>
		<contour>
			<point x="140" y="224" type="qcurve"/>
			<point x="136" y="198"/>
			<point x="106" y="174"/>
			<point x="89" y="174" type="qcurve"/>
			<point x="70" y="174"/>
			<point x="40" y="203"/>
			<point x="40" y="232" type="qcurve"/>
			<point x="40" y="257"/>
			<point x="58" y="309"/>
			<point x="89" y="350"/>
			<point x="132" y="376"/>
			<point x="157" y="376" type="qcurve"/>
			<point x="188" y="376"/>
			<point x="221" y="356" type="qcurve"/>
			<point x="236" y="347"/>
			<point x="267" y="319"/>
			<point x="301" y="293"/>
			<point x="337" y="274"/>
			<point x="356" y="274" type="qcurve"/>
			<point x="368" y="274"/>
			<point x="375" y="284"/>
			<point x="375" y="294" type="qcurve"/>
			<point x="375" y="297"/>
			<point x="372" y="317"/>
			<point x="372" y="322" type="qcurve"/>
			<point x="372" y="348"/>
			<point x="401" y="373"/>
			<point x="419" y="373" type="qcurve"/>
			<point x="442" y="373"/>
			<point x="476" y="332"/>
			<point x="476" y="294" type="qcurve"/>
			<point x="476" y="268"/>
			<point x="458" y="224"/>
			<point x="425" y="191"/>
			<point x="381" y="172"/>
			<point x="356" y="172" type="qcurve"/>
			<point x="325" y="172"/>
			<point x="274" y="195"/>
			<point x="227" y="228"/>
			<point x="183" y="263"/>
			<point x="159" y="275" type="qcurve"/>
			<point x="148" y="267"/>
			<point x="141" y="241"/>
		</contour>
	</outline>
</glyph>
<glyph name="cent" format="2">
	<unicode hex="00A2"/>
	<advance width="547"/>
	<outline>
		<contour>
			<point x="278" y="649" type="qcurve"/>
			<point x="286" y="670"/>
			<point x="314" y="691"/>
			<point x="329" y="691" type="qcurve"/>
			<point x="346" y="691"/>
			<point x="374" y="666"/>
			<point x="378" y="641" type="qcurve"/>
			<point x="376" y="606"/>
			<point x="366" y="537"/>
			<point x="360" y="503" type="qcurve"/>
			<point x="376" y="502"/>
			<point x="413" y="495"/>
			<point x="445" y="478"/>
			<point x="466" y="453"/>
			<point x="466" y="434" type="qcurve"/>
			<point x="466" y="410"/>
			<point x="438" y="383"/>
			<point x="419" y="383" type="qcurve"/>
			<point x="401" y="383"/>
			<point x="387" y="394" type="qcurve"/>
			<point x="374" y="396"/>
			<point x="355" y="402"/>
			<point x="342" y="402" type="qcurve"/>
			<point x="317" y="244"/>
			<point x="306" y="78" type="qcurve"/>
			<point x="323" y="78"/>
			<point x="349" y="80"/>
			<point x="373" y="86"/>
			<point x="398" y="98"/>
			<point x="415" y="109" type="qcurve"/>
			<point x="423" y="114"/>
			<point x="438" y="117"/>
			<point x="446" y="117" type="qcurve"/>
			<point x="463" y="117"/>
			<point x="489" y="87"/>
			<point x="489" y="69" type="qcurve"/>
			<point x="489" y="43"/>
			<point x="461" y="25" type="qcurve"/>
			<point x="434" y="8"/>
			<point x="372" y="-16"/>
			<point x="352" y="-19" type="qcurve"/>
			<point x="334" y="-22"/>
			<point x="314" y="-22" type="qcurve"/>
			<point x="311" y="-22"/>
			<point x="304" y="-21"/>
			<point x="300" y="-21" type="qcurve"/>
			<point x="299" y="-42"/>
			<point x="298" y="-85"/>
			<point x="298" y="-106" type="qcurve"/>
			<point x="294" y="-132"/>
			<point x="264" y="-156"/>
			<point x="247" y="-156" type="qcurve"/>
			<point x="228" y="-156"/>
			<point x="198" y="-127"/>
			<point x="198" y="-98" type="qcurve"/>
			<point x="198" y="-52"/>
			<point x="201" y="-5" type="qcurve"/>
			<point x="162" y="8"/>
			<point x="106" y="59"/>
			<point x="68" y="125"/>
			<point x="50" y="203"/>
			<point x="50" y="242" type="qcurve"/>
			<point x="50" y="272"/>
			<point x="63" y="331"/>
			<point x="85" y="382"/>
			<point x="116" y="424"/>
			<point x="133" y="438" type="qcurve"/>
			<point x="159" y="460"/>
			<point x="223" y="486"/>
			<point x="257" y="493" type="qcurve"/>
			<point x="264" y="532"/>
			<point x="276" y="609"/>
		</contour>
		<contour>
			<point x="149" y="244" type="qcurve"/>
			<point x="149" y="227"/>
			<point x="155" y="186"/>
			<point x="169" y="146"/>
			<point x="192" y="111"/>
			<point x="209" y="101" type="qcurve"/>
			<point x="215" y="173"/>
			<point x="232" y="313"/>
			<point x="241" y="385" type="qcurve"/>
			<point x="196" y="370"/>
			<point x="149" y="290"/>
		</contour>
	</outline>
</glyph>
<glyph name="copyright" format="2">
	<unicode hex="00A9"/>
	<advance width="896"/>
	<outline>
		<contour>
			<point x="500" y="669" type="qcurve"/>
			<point x="527" y="669"/>
			<point x="554" y="636"/>
			<point x="554" y="619" type="qcurve"/>
			<point x="554" y="602"/>
			<point x="527" y="571"/>
			<point x="500" y="569" type="qcurve"/>
			<point x="464" y="567"/>
			<point x="381" y="566"/>
			<point x="299" y="553"/>
			<point x="226" y="521"/>
			<point x="201" y="490" type="qcurve"/>
			<point x="171" y="452"/>
			<point x="151" y="350"/>
			<point x="151" y="305" type="qcurve"/>
			<point x="151" y="249"/>
			<point x="184" y="149"/>
			<point x="254" y="73"/>
			<point x="362" y="28"/>
			<point x="438" y="28" type="qcurve"/>
			<point x="489" y="28"/>
			<point x="596" y="57"/>
			<point x="684" y="114"/>
			<point x="740" y="197"/>
			<point x="740" y="251" type="qcurve"/>
			<point x="740" y="278"/>
			<point x="730" y="352"/>
			<point x="709" y="425"/>
			<point x="676" y="485"/>
			<point x="653" y="499" type="qcurve"/>
			<point x="637" y="508"/>
			<point x="623" y="535"/>
			<point x="623" y="547" type="qcurve"/>
			<point x="623" y="565"/>
			<point x="650" y="593"/>
			<point x="672" y="593" type="qcurve"/>
			<point x="691" y="593"/>
			<point x="739" y="565"/>
			<point x="754" y="547" type="qcurve"/>
			<point x="770" y="527"/>
			<point x="803" y="454"/>
			<point x="828" y="370"/>
			<point x="844" y="284"/>
			<point x="844" y="251" type="qcurve"/>
			<point x="844" y="189"/>
			<point x="783" y="74"/>
			<point x="680" y="-15"/>
			<point x="542" y="-69"/>
			<point x="465" y="-69" type="qcurve"/>
			<point x="402" y="-69"/>
			<point x="273" y="-46"/>
			<point x="208" y="-10" type="qcurve"/>
			<point x="161" y="16"/>
			<point x="100" y="85"/>
			<point x="64" y="166"/>
			<point x="50" y="256"/>
			<point x="50" y="303" type="qcurve"/>
			<point x="50" y="347"/>
			<point x="61" y="417"/>
			<point x="79" y="474"/>
			<point x="104" y="523"/>
			<point x="119" y="546" type="qcurve"/>
			<point x="146" y="590"/>
			<point x="239" y="639"/>
			<point x="346" y="663"/>
			<point x="455" y="669"/>
		</contour>
		<contour>
			<point x="547" y="469" type="qcurve"/>
			<point x="574" y="466"/>
			<point x="601" y="436"/>
			<point x="601" y="419" type="qcurve"/>
			<point x="601" y="402"/>
			<point x="574" y="371"/>
			<point x="547" y="369" type="qcurve"/>
			<point x="536" y="369"/>
			<point x="506" y="374"/>
			<point x="472" y="380"/>
			<point x="436" y="385"/>
			<point x="420" y="385" type="qcurve"/>
			<point x="385" y="385"/>
			<point x="353" y="358"/>
			<point x="353" y="323" type="qcurve"/>
			<point x="353" y="290"/>
			<point x="367" y="248"/>
			<point x="390" y="226"/>
			<point x="419" y="218"/>
			<point x="434" y="218" type="qcurve"/>
			<point x="449" y="218"/>
			<point x="482" y="221"/>
			<point x="500" y="222" type="qcurve"/>
			<point x="527" y="219"/>
			<point x="554" y="189"/>
			<point x="554" y="172" type="qcurve"/>
			<point x="554" y="155"/>
			<point x="527" y="127"/>
			<point x="500" y="122" type="qcurve"/>
			<point x="486" y="120"/>
			<point x="446" y="116"/>
			<point x="428" y="116" type="qcurve"/>
			<point x="386" y="116"/>
			<point x="320" y="154"/>
			<point x="275" y="213"/>
			<point x="252" y="286"/>
			<point x="252" y="321" type="qcurve"/>
			<point x="252" y="348"/>
			<point x="270" y="407"/>
			<point x="308" y="455"/>
			<point x="366" y="486"/>
			<point x="407" y="486" type="qcurve"/>
			<point x="443" y="486"/>
			<point x="516" y="471"/>
		</contour>
	</outline>
</glyph>
<glyph name="ordfeminine" format="2">
	<unicode hex="00AA"/>
	<advance width="497"/>
	<outline>
		<contour>
			<point x="326" y="710" type="qcurve"/>
			<point x="348" y="688"/>
			<point x="348" y="665" type="qcurve"/>
			<point x="348" y="648"/>
			<point x="336" y="634" type="qcurve"/>
			<point x="353" y="616"/>
			<point x="367" y="570"/>
			<point x="382" y="527"/>
			<point x="408" y="494"/>
			<point x="437" y="488" type="qcurve"/>
			<point x="457" y="480"/>
			<point x="475" y="453"/>
			<point x="475" y="439" type="qcurve"/>
			<point x="475" y="421"/>
			<point x="447" y="392"/>
			<point x="421" y="390" type="qcurve"/>
			<point x="376" y="399"/>
			<point x="323" y="435"/>
			<point x="304" y="466" type="qcurve"/>
			<point x="277" y="431"/>
			<point x="204" y="386"/>
			<point x="170" y="386" type="qcurve"/>
			<point x="147" y="386"/>
			<point x="107" y="406"/>
			<point x="77" y="443"/>
			<point x="60" y="494"/>
			<point x="60" y="526" type="qcurve"/>
			<point x="60" y="565"/>
			<point x="91" y="637"/>
			<point x="144" y="692"/>
			<point x="213" y="725"/>
			<point x="252" y="725" type="qcurve"/>
			<point x="269" y="725"/>
			<point x="310" y="721"/>
		</contour>
		<contour>
			<point x="249" y="611" type="qcurve"/>
			<point x="250" y="617"/>
			<point x="254" y="624" type="qcurve"/>
			<point x="243" y="624"/>
			<point x="223" y="623"/>
			<point x="218" y="620" type="qcurve"/>
			<point x="195" y="608"/>
			<point x="160" y="552"/>
			<point x="160" y="523" type="qcurve"/>
			<point x="160" y="520"/>
			<point x="161" y="507"/>
			<point x="164" y="495"/>
			<point x="169" y="486"/>
			<point x="172" y="486" type="qcurve"/>
			<point x="179" y="486"/>
			<point x="203" y="503"/>
			<point x="213" y="512" type="qcurve"/>
			<point x="225" y="523"/>
			<point x="236" y="547"/>
			<point x="242" y="572"/>
			<point x="245" y="597"/>
		</contour>
	</outline>
</glyph>
<glyph name="guillemotleft" format="2">
	<unicode hex="00AB"/>
	<advance width="581"/>
	<outline>
		<contour>
			<point x="260" y="483" type="qcurve"/>
			<point x="270" y="496"/>
			<point x="293" y="507"/>
			<point x="305" y="507" type="qcurve"/>
			<point x="324" y="507"/>
			<point x="352" y="479"/>
			<point x="352" y="455" type="qcurve"/>
			<point x="352" y="447"/>
			<point x="351" y="443" type="qcurve"/>
			<point x="338" y="408"/>
			<point x="290" y="355"/>
			<point x="234" y="307"/>
			<point x="179" y="259"/>
			<point x="160" y="228" type="qcurve"/>
			<point x="171" y="207"/>
			<point x="206" y="175"/>
			<point x="245" y="146"/>
			<point x="280" y="114"/>
			<point x="291" y="92" type="qcurve"/>
			<point x="292" y="88"/>
			<point x="292" y="80" type="qcurve"/>
			<point x="292" y="56"/>
			<point x="264" y="28"/>
			<point x="245" y="28" type="qcurve"/>
			<point x="233" y="28"/>
			<point x="210" y="39"/>
			<point x="200" y="52" type="qcurve"/>
			<point x="189" y="73"/>
			<point x="143" y="107"/>
			<point x="96" y="146"/>
			<point x="60" y="195"/>
			<point x="60" y="229" type="qcurve"/>
			<point x="60" y="255"/>
			<point x="85" y="300"/>
			<point x="124" y="341"/>
			<point x="172" y="380"/>
			<point x="216" y="420"/>
			<point x="252" y="460"/>
		</contour>
		<contour>
			<point x="419" y="469" type="qcurve"/>
			<point x="429" y="482"/>
			<point x="452" y="493"/>
			<point x="464" y="493" type="qcurve"/>
			<point x="483" y="493"/>
			<point x="511" y="465"/>
			<point x="511" y="441" type="qcurve"/>
			<point x="511" y="433"/>
			<point x="510" y="429" type="qcurve"/>
			<point x="487" y="381"/>
			<point x="437" y="305"/>
			<point x="402" y="263" type="qcurve"/>
			<point x="400" y="260"/>
			<point x="390" y="250"/>
			<point x="380" y="237"/>
			<point x="372" y="223"/>
			<point x="372" y="216" type="qcurve"/>
			<point x="372" y="212"/>
			<point x="373" y="210" type="qcurve"/>
			<point x="379" y="195"/>
			<point x="403" y="167"/>
			<point x="427" y="140"/>
			<point x="444" y="113"/>
			<point x="444" y="98" type="qcurve"/>
			<point x="444" y="78"/>
			<point x="416" y="51"/>
			<point x="396" y="51" type="qcurve"/>
			<point x="384" y="51"/>
			<point x="358" y="66"/>
			<point x="333" y="89"/>
			<point x="310" y="117"/>
			<point x="303" y="130" type="qcurve"/>
			<point x="286" y="157"/>
			<point x="272" y="200"/>
			<point x="272" y="219" type="qcurve"/>
			<point x="272" y="238"/>
			<point x="286" y="272"/>
			<point x="310" y="305"/>
			<point x="341" y="342"/>
			<point x="358" y="364" type="qcurve"/>
			<point x="371" y="380"/>
			<point x="385" y="401"/>
			<point x="396" y="422"/>
			<point x="408" y="448"/>
		</contour>
	</outline>
</glyph>
<glyph name="macron" format="2">
	<unicode hex="00AF"/>
	<advance width="500"/>
	<outline>
		<contour>
			<point x="131" y="537" type="qcurve"/>
			<point x="123" y="533"/>
			<point x="109" y="531"/>
			<point x="103" y="531" type="qcurve"/>
			<point x="81" y="531"/>
			<point x="54" y="558"/>
			<point x="54" y="577" type="qcurve"/>
			<point x="54" y="601"/>
			<point x="92" y="630"/>
			<point x="150" y="645"/>
			<point x="218" y="650"/>
			<point x="247" y="650" type="qcurve"/>
			<point x="285" y="650"/>
			<point x="359" y="646"/>
			<point x="391" y="646" type="qcurve"/>
			<point x="418" y="643"/>
			<point x="445" y="613"/>
			<point x="445" y="596" type="qcurve"/>
			<point x="445" y="579"/>
			<point x="418" y="548"/>
			<point x="391" y="546" type="qcurve"/>
			<point x="369" y="546"/>
			<point x="292" y="550"/>
			<point x="250" y="550" type="qcurve"/>
			<point x="214" y="550"/>
			<point x="149" y="545"/>
		</contour>
	</outline>
</glyph>
<glyph name="twosuperior" format="2">
	<unicode hex="00B2"/>
	<advance width="399"/>
	<outline>
		<contour>
			<point x="137" y="618" type="line"/>
			<point x="132" y="612"/>
			<point x="114" y="603"/>
			<point x="100" y="603" type="qcurve"/>
			<point x="75" y="603"/>
			<point x="47" y="632"/>
			<point x="47" y="651" type="qcurve"/>
			<point x="47" y="676"/>
			<point x="89" y="706"/>
			<point x="115" y="720" type="qcurve"/>
			<point x="135" y="731"/>
			<point x="180" y="748"/>
			<point x="200" y="748" type="qcurve"/>
			<point x="228" y="748"/>
			<point x="276" y="688"/>
			<point x="276" y="633" type="qcurve"/>
			<point x="276" y="598"/>
			<point x="245" y="534"/>
			<point x="222" y="508" type="qcurve"/>
			<point x="247" y="511"/>
			<point x="306" y="514"/>
			<point x="332" y="514" type="qcurve"/>
			<point x="352" y="514"/>
			<point x="378" y="488"/>
			<point x="378" y="469" type="qcurve"/>
			<point x="378" y="449"/>
			<point x="345" y="411"/>
			<point x="306" y="411" type="qcurve"/>
			<point x="294" y="411"/>
			<point x="271" y="413"/>
			<point x="261" y="413" type="qcurve"/>
			<point x="232" y="408"/>
			<point x="172" y="399"/>
			<point x="143" y="399" type="qcurve"/>
			<point x="124" y="399"/>
			<point x="90" y="404"/>
			<point x="64" y="418"/>
			<point x="49" y="443"/>
			<point x="49" y="462" type="qcurve"/>
			<point x="53" y="487"/>
			<point x="91" y="525"/>
			<point x="135" y="561"/>
			<point x="173" y="603"/>
			<point x="176" y="633" type="qcurve"/>
			<point x="176" y="637"/>
			<point x="175" y="639" type="qcurve"/>
		</contour>
	</outline>
</glyph>
<glyph name="acute" format="2">
	<unicode hex="00B4"/>
	<advance width="293"/>
	<outline>
		<contour>
			<point x="184" y="562" type="line"/>
			<point x="179" y="557"/>
			<point x="158" y="537"/>
			<point x="132" y="517"/>
			<point x="105" y="502"/>
			<point x="93" y="502" type="qcurve"/>
			<point x="74" y="502"/>
			<point x="43" y="532"/>
			<point x="43" y="551" type="qcurve"/>
			<point x="43" y="562"/>
			<point x="57" y="583"/>
			<point x="76" y="601"/>
			<point x="94" y="614"/>
			<point x="98" y="618" type="qcurve"/>
			<point x="110" y="629"/>
			<point x="138" y="651"/>
			<point x="150" y="663" type="qcurve"/>
			<point x="161" y="677"/>
			<point x="184" y="688"/>
			<point x="195" y="688" type="qcurve"/>
			<point x="214" y="688"/>
			<point x="241" y="661"/>
			<point x="241" y="640" type="qcurve"/>
			<point x="241" y="625"/>
			<point x="227" y="596"/>
			<point x="207" y="584" type="qcurve"/>
		</contour>
	</outline>
</glyph>
<glyph name="periodcentered" format="2">
	<unicode hex="00B7"/>
	<advance width="347"/>
	<outline>
		<contour>
			<point x="233" y="321" type="qcurve"/>
			<point x="233" y="298"/>
			<point x="198" y="259"/>
			<point x="174" y="259" type="qcurve"/>
			<point x="152" y="259"/>
			<point x="114" y="297"/>
			<point x="114" y="326" type="qcurve"/>
			<point x="114" y="358"/>
			<point x="150" y="384"/>
			<point x="168" y="384" type="qcurve"/>
			<point x="179" y="384"/>
			<point x="202" y="374"/>
			<point x="221" y="357"/>
			<point x="233" y="334"/>
		</contour>
	</outline>
</glyph>
<glyph name="cedilla" format="2">
	<unicode hex="00B8"/>
	<advance width="297"/>
	<outline>
		<contour>
			<point x="97" y="46" type="qcurve"/>
			<point x="105" y="56"/>
			<point x="123" y="68"/>
			<point x="138" y="68" type="qcurve"/>
			<point x="156" y="68"/>
			<point x="185" y="41"/>
			<point x="185" y="15" type="qcurve"/>
			<point x="185" y="-1"/>
			<point x="177" y="-19" type="qcurve"/>
			<point x="212" y="-27"/>
			<point x="262" y="-78"/>
			<point x="262" y="-116" type="qcurve"/>
			<point x="262" y="-143"/>
			<point x="235" y="-186"/>
			<point x="193" y="-216"/>
			<point x="141" y="-233"/>
			<point x="116" y="-233" type="qcurve"/>
			<point x="78" y="-233"/>
			<point x="26" y="-203"/>
			<point x="26" y="-176" type="qcurve"/>
			<point x="26" y="-157"/>
			<point x="53" y="-127"/>
			<point x="73" y="-127" type="qcurve"/>
			<point x="82" y="-127"/>
			<point x="115" y="-130"/>
			<point x="127" y="-132" type="qcurve"/>
			<point x="134" y="-130"/>
			<point x="151" y="-124"/>
			<point x="158" y="-117" type="qcurve"/>
			<point x="109" y="-117"/>
			<point x="68" y="-79"/>
			<point x="68" y="-49" type="qcurve"/>
			<point x="68" y="-34"/>
			<point x="78" y="2"/>
			<point x="86" y="21" type="qcurve"/>
			<point x="87" y="23"/>
			<point x="93" y="41"/>
		</contour>
	</outline>
</glyph>
<glyph name="onesuperior" format="2">
	<unicode hex="00B9"/>
	<advance width="369"/>
	<outline>
		<contour>
			<point x="115" y="522" type="qcurve"/>
			<point x="104" y="513"/>
			<point x="85" y="503"/>
			<point x="73" y="503" type="qcurve"/>
			<point x="54" y="503"/>
			<point x="27" y="531"/>
			<point x="27" y="551" type="qcurve"/>
			<point x="27" y="569"/>
			<point x="42" y="590" type="qcurve"/>
			<point x="80" y="627"/>
			<point x="167" y="696"/>
			<point x="200" y="738" type="qcurve"/>
			<point x="209" y="749"/>
			<point x="228" y="765"/>
			<point x="248" y="765" type="qcurve"/>
			<point x="291" y="765"/>
			<point x="299" y="717" type="qcurve"/>
			<point x="299" y="653"/>
			<point x="285" y="527"/>
			<point x="282" y="463" type="qcurve"/>
			<point x="278" y="437"/>
			<point x="248" y="413"/>
			<point x="231" y="413" type="qcurve"/>
			<point x="212" y="413"/>
			<point x="182" y="442"/>
			<point x="182" y="471" type="qcurve"/>
			<point x="184" y="502"/>
			<point x="189" y="563"/>
			<point x="191" y="594" type="qcurve"/>
			<point x="162" y="568"/>
			<point x="130" y="536"/>
		</contour>
	</outline>
</glyph>
<glyph name="ordmasculine" format="2">
	<unicode hex="00BA"/>
	<advance width="475"/>
	<outline>
		<contour>
			<point x="333" y="727" type="qcurve"/>
			<point x="370" y="708"/>
			<point x="405" y="624"/>
			<point x="405" y="577" type="qcurve"/>
			<point x="405" y="526"/>
			<point x="373" y="457"/>
			<point x="321" y="415"/>
			<point x="252" y="396"/>
			<point x="215" y="396" type="qcurve"/>
			<point x="184" y="396"/>
			<point x="125" y="416"/>
			<point x="79" y="452"/>
			<point x="51" y="502"/>
			<point x="51" y="531" type="qcurve"/>
			<point x="51" y="564"/>
			<point x="72" y="600" type="qcurve"/>
			<point x="108" y="661"/>
			<point x="224" y="733"/>
			<point x="293" y="744" type="qcurve"/>
			<point x="319" y="741"/>
		</contour>
		<contour>
			<point x="286" y="639" type="qcurve"/>
			<point x="283" y="639"/>
			<point x="279" y="641" type="qcurve"/>
			<point x="271" y="639"/>
			<point x="257" y="633"/>
			<point x="246" y="628" type="qcurve"/>
			<point x="238" y="624"/>
			<point x="207" y="603"/>
			<point x="177" y="576"/>
			<point x="154" y="546"/>
			<point x="154" y="532" type="qcurve"/>
			<point x="154" y="521"/>
			<point x="167" y="507"/>
			<point x="187" y="499"/>
			<point x="212" y="496"/>
			<point x="224" y="496" type="qcurve"/>
			<point x="240" y="496"/>
			<point x="269" y="503"/>
			<point x="291" y="519"/>
			<point x="304" y="548"/>
			<point x="304" y="569" type="qcurve"/>
			<point x="304" y="580"/>
			<point x="302" y="604"/>
			<point x="298" y="625"/>
			<point x="291" y="639"/>
		</contour>
	</outline>
</glyph>
<glyph name="guillemotright" format="2">
	<unicode hex="00BB"/>
	<advance width="577"/>
	<outline>
		<contour>
			<point x="62" y="444" type="qcurve"/>
			<point x="57" y="459"/>
			<point x="57" y="468" type="qcurve"/>
			<point x="57" y="491"/>
			<point x="85" y="518"/>
			<point x="103" y="518" type="qcurve"/>
			<point x="115" y="518"/>
			<point x="139" y="501"/>
			<point x="162" y="475"/>
			<point x="186" y="445"/>
			<point x="198" y="433" type="qcurve"/>
			<point x="215" y="416"/>
			<point x="263" y="370"/>
			<point x="308" y="322"/>
			<point x="340" y="276"/>
			<point x="340" y="258" type="qcurve"/>
			<point x="340" y="252"/>
			<point x="336" y="239"/>
			<point x="331" y="230" type="qcurve"/>
			<point x="315" y="204"/>
			<point x="273" y="164"/>
			<point x="230" y="127"/>
			<point x="189" y="88"/>
			<point x="173" y="61" type="qcurve"/>
			<point x="153" y="42"/>
			<point x="131" y="42" type="qcurve"/>
			<point x="112" y="42"/>
			<point x="85" y="69"/>
			<point x="85" y="91" type="qcurve"/>
			<point x="85" y="113"/>
			<point x="119" y="158"/>
			<point x="166" y="201"/>
			<point x="215" y="240"/>
			<point x="229" y="257" type="qcurve"/>
			<point x="209" y="281"/>
			<point x="162" y="324"/>
			<point x="116" y="368"/>
			<point x="75" y="415"/>
		</contour>
		<contour>
			<point x="265" y="451" type="qcurve"/>
			<point x="260" y="466"/>
			<point x="260" y="475" type="qcurve"/>
			<point x="260" y="498"/>
			<point x="288" y="525"/>
			<point x="306" y="525" type="qcurve"/>
			<point x="319" y="525"/>
			<point x="341" y="509"/>
			<point x="362" y="485"/>
			<point x="384" y="456"/>
			<point x="396" y="443" type="qcurve"/>
			<point x="417" y="420"/>
			<point x="462" y="379"/>
			<point x="500" y="337"/>
			<point x="524" y="295"/>
			<point x="524" y="271" type="qcurve"/>
			<point x="524" y="251"/>
			<point x="503" y="207"/>
			<point x="480" y="183" type="qcurve"/>
			<point x="470" y="173"/>
			<point x="440" y="151"/>
			<point x="410" y="128"/>
			<point x="383" y="104"/>
			<point x="377" y="92" type="qcurve"/>
			<point x="367" y="74"/>
			<point x="341" y="58"/>
			<point x="327" y="58" type="qcurve"/>
			<point x="309" y="58"/>
			<point x="281" y="84"/>
			<point x="281" y="107" type="qcurve"/>
			<point x="281" y="135"/>
			<point x="319" y="179"/>
			<point x="367" y="217"/>
			<point x="414" y="252"/>
			<point x="423" y="270" type="qcurve"/>
			<point x="404" y="291"/>
			<point x="359" y="333"/>
			<point x="315" y="377"/>
			<point x="277" y="424"/>
		</contour>
	</outline>
</glyph>
<glyph name="Aring" format="2">
	<unicode hex="00C5"/>
	<advance width="654"/>
	<outline>
		<contour>
			<point x="374" y="827" type="qcurve"/>
			<point x="402" y="824"/>
			<point x="417" y="806" type="qcurve"/>
			<point x="422" y="806" type="line"/>
			<point x="428" y="806"/>
			<point x="448" y="798"/>
			<point x="457" y="792" type="qcurve"/>
			<point x="481" y="775"/>
			<point x="505" y="716"/>
			<point x="505" y="684" type="qcurve"/>
			<point x="505" y="630"/>
			<point x="450" y="559"/>
			<point x="403" y="548" type="qcurve"/>
			<point x="433" y="509"/>
			<point x="477" y="420"/>
			<point x="513" y="326"/>
			<point x="543" y="231"/>
			<point x="560" y="185" type="qcurve"/>
			<point x="572" y="151"/>
			<point x="597" y="78"/>
			<point x="622" y="51" type="qcurve"/>
			<point x="631" y="34"/>
			<point x="631" y="20" type="qcurve"/>
			<point x="631" y="0"/>
			<point x="603" y="-27"/>
			<point x="583" y="-27" type="qcurve"/>
			<point x="559" y="-27"/>
			<point x="523" y="11"/>
			<point x="496" y="65"/>
			<point x="476" y="124"/>
			<point x="468" y="145" type="qcurve"/>
			<point x="456" y="178" type="line"/>
			<point x="383" y="178"/>
			<point x="238" y="176"/>
			<point x="166" y="176" type="qcurve"/>
			<point x="141" y="132"/>
			<point x="102" y="44"/>
			<point x="91" y="-4" type="qcurve"/>
			<point x="81" y="-21"/>
			<point x="55" y="-38"/>
			<point x="41" y="-38" type="qcurve"/>
			<point x="23" y="-38"/>
			<point x="-6" y="-8"/>
			<point x="-6" y="20" type="qcurve"/>
			<point x="3" y="60"/>
			<point x="35" y="136"/>
			<point x="74" y="210"/>
			<point x="116" y="282"/>
			<point x="136" y="318" type="qcurve"/>
			<point x="160" y="363"/>
			<point x="206" y="451"/>
			<point x="238" y="493" type="qcurve"/>
			<point x="252" y="512"/>
			<point x="283" y="555"/>
			<point x="303" y="570" type="qcurve"/>
			<point x="280" y="593"/>
			<point x="259" y="665"/>
			<point x="259" y="698" type="qcurve"/>
			<point x="259" y="731"/>
			<point x="277" y="775"/>
			<point x="309" y="804"/>
			<point x="350" y="821"/>
		</contour>
		<contour>
			<point x="268" y="357" type="qcurve"/>
			<point x="257" y="337"/>
			<point x="235" y="296"/>
			<point x="224" y="276" type="qcurve"/>
			<point x="274" y="276"/>
			<point x="373" y="278"/>
			<point x="423" y="278" type="qcurve"/>
			<point x="406" y="326"/>
			<point x="368" y="420"/>
			<point x="341" y="462" type="qcurve"/>
			<point x="320" y="439"/>
			<point x="282" y="386"/>
		</contour>
		<contour>
			<point x="390" y="712" type="qcurve"/>
			<point x="385" y="714"/>
			<point x="379" y="720"/>
			<point x="376" y="723" type="qcurve"/>
			<point x="356" y="713"/>
			<point x="356" y="690" type="qcurve"/>
			<point x="356" y="669"/>
			<point x="372" y="647" type="qcurve"/>
			<point x="388" y="647"/>
			<point x="405" y="671"/>
			<point x="405" y="685" type="qcurve"/>
			<point x="405" y="694"/>
			<point x="398" y="709"/>
		</contour>
	</outline>
	<anchor name="mark0" x="372" y="799"/>
	<anchor name="mark1" x="314" y="0"/>
	<anchor name="mark2" x="0" y="0"/>
</glyph>
<glyph name="AE" format="2">
	<unicode hex="00C6"/>
	<advance width="858"/>
	<outline>
		<contour>
			<point x="166" y="146" type="qcurve"/>
			<point x="140" y="104"/>
			<point x="89" y="23"/>
			<point x="68" y="-21" type="qcurve"/>
			<point x="60" y="-39"/>
			<point x="31" y="-55"/>
			<point x="18" y="-55" type="qcurve"/>
			<point x="0" y="-55"/>
			<point x="-28" y="-29"/>
			<point x="-28" y="-6" type="qcurve"/>
			<point x="-28" y="4"/>
			<point x="-23" y="19" type="qcurve"/>
			<point x="3" y="77"/>
			<point x="74" y="180"/>
			<point x="104" y="236" type="qcurve"/>
			<point x="149" y="320"/>
			<point x="241" y="484"/>
			<point x="288" y="568" type="qcurve"/>
			<point x="296" y="583"/>
			<point x="319" y="640"/>
			<point x="335" y="665" type="qcurve"/>
			<point x="342" y="691"/>
			<point x="374" y="705" type="qcurve"/>
			<point x="409" y="720"/>
			<point x="489" y="733"/>
			<point x="528" y="733" type="qcurve"/>
			<point x="583" y="733"/>
			<point x="692" y="720"/>
			<point x="745" y="718" type="qcurve"/>
			<point x="772" y="715"/>
			<point x="799" y="685"/>
			<point x="799" y="668" type="qcurve"/>
			<point x="799" y="651"/>
			<point x="772" y="620"/>
			<point x="745" y="618" type="qcurve"/>
			<point x="700" y="620"/>
			<point x="588" y="633"/>
			<point x="533" y="633" type="qcurve"/>
			<point x="514" y="633"/>
			<point x="480" y="631"/>
			<point x="463" y="628" type="qcurve"/>
			<point x="474" y="575"/>
			<point x="487" y="469"/>
			<point x="492" y="415" type="qcurve"/>
			<point x="537" y="417"/>
			<point x="624" y="425"/>
			<point x="669" y="426" type="qcurve"/>
			<point x="696" y="423"/>
			<point x="723" y="393"/>
			<point x="723" y="376" type="qcurve"/>
			<point x="723" y="359"/>
			<point x="696" y="328"/>
			<point x="669" y="326" type="qcurve"/>
			<point x="625" y="325"/>
			<point x="541" y="317"/>
			<point x="498" y="315" type="qcurve"/>
			<point x="500" y="257"/>
			<point x="500" y="142"/>
			<point x="502" y="85" type="qcurve"/>
			<point x="571" y="90"/>
			<point x="706" y="101"/>
			<point x="775" y="103" type="qcurve"/>
			<point x="802" y="100"/>
			<point x="829" y="70"/>
			<point x="829" y="53" type="qcurve"/>
			<point x="829" y="36"/>
			<point x="802" y="5"/>
			<point x="775" y="3" type="qcurve"/>
			<point x="693" y="0"/>
			<point x="531" y="-14"/>
			<point x="450" y="-18" type="qcurve"/>
			<point x="430" y="-13"/>
			<point x="411" y="5"/>
			<point x="404" y="24" type="qcurve"/>
			<point x="402" y="56"/>
			<point x="401" y="118"/>
			<point x="401" y="150" type="qcurve"/>
			<point x="342" y="149"/>
			<point x="225" y="146"/>
		</contour>
		<contour>
			<point x="314" y="415" type="qcurve"/>
			<point x="289" y="373"/>
			<point x="246" y="289"/>
			<point x="223" y="246" type="qcurve"/>
			<point x="400" y="250" type="line"/>
			<point x="399" y="319"/>
			<point x="393" y="463"/>
			<point x="382" y="532" type="qcurve"/>
			<point x="365" y="503"/>
			<point x="331" y="444"/>
		</contour>
	</outline>
</glyph>
<glyph name="Ecircumflex" format="2">
	<unicode hex="00CA"/>
	<advance width="571"/>
	<outline>
		<contour>
			<point x="86" y="705" type="qcurve"/>
			<point x="94" y="726"/>
			<point x="122" y="747"/>
			<point x="137" y="747" type="qcurve"/>
			<point x="141" y="747"/>
			<point x="147" y="746"/>
			<point x="151" y="745" type="qcurve"/>
			<point x="169" y="747"/>
			<point x="206" y="747"/>
			<point x="225" y="747" type="qcurve"/>
			<point x="258" y="747"/>
			<point x="323" y="745"/>
			<point x="356" y="745" type="qcurve"/>
			<point x="391" y="745"/>
			<point x="462" y="748"/>
			<point x="497" y="753" type="qcurve"/>
			<point x="523" y="751"/>
			<point x="551" y="721"/>
			<point x="551" y="704" type="qcurve"/>
			<point x="551" y="690"/>
			<point x="533" y="662"/>
			<point x="513" y="654" type="qcurve"/>
			<point x="473" y="649"/>
			<point x="394" y="646"/>
			<point x="354" y="646" type="qcurve"/>
			<point x="325" y="646"/>
			<point x="265" y="647"/>
			<point x="236" y="647" type="qcurve"/>
			<point x="222" y="647"/>
			<point x="196" y="646"/>
			<point x="182" y="646" type="qcurve"/>
			<point x="177" y="594"/>
			<point x="165" y="490"/>
			<point x="160" y="438" type="qcurve"/>
			<point x="198" y="437"/>
			<point x="276" y="435"/>
			<point x="315" y="435" type="qcurve"/>
			<point x="342" y="432"/>
			<point x="369" y="402"/>
			<point x="369" y="385" type="qcurve"/>
			<point x="369" y="368"/>
			<point x="342" y="337"/>
			<point x="315" y="335" type="qcurve"/>
			<point x="273" y="335"/>
			<point x="192" y="337"/>
			<point x="150" y="338" type="qcurve"/>
			<point x="146" y="292"/>
			<point x="141" y="201"/>
			<point x="141" y="155" type="qcurve"/>
			<point x="141" y="138"/>
			<point x="142" y="103"/>
			<point x="143" y="86" type="qcurve"/>
			<point x="217" y="92"/>
			<point x="361" y="111"/>
			<point x="435" y="115" type="qcurve"/>
			<point x="462" y="112"/>
			<point x="489" y="82"/>
			<point x="489" y="65" type="qcurve"/>
			<point x="489" y="48"/>
			<point x="462" y="17"/>
			<point x="435" y="15" type="qcurve"/>
			<point x="396" y="13"/>
			<point x="318" y="3"/>
			<point x="241" y="-8"/>
			<point x="163" y="-16"/>
			<point x="124" y="-16" type="qcurve"/>
			<point x="94" y="-16"/>
			<point x="60" y="17"/>
			<point x="43" y="67"/>
			<point x="40" y="125"/>
			<point x="40" y="151" type="qcurve"/>
			<point x="40" y="221"/>
			<point x="51" y="360"/>
			<point x="66" y="498"/>
			<point x="81" y="636"/>
		</contour>
		<contour>
			<point x="220" y="810" type="qcurve"/>
			<point x="200" y="791"/>
			<point x="178" y="791" type="qcurve"/>
			<point x="159" y="791"/>
			<point x="132" y="819"/>
			<point x="132" y="839" type="qcurve"/>
			<point x="132" y="857"/>
			<point x="147" y="878" type="qcurve"/>
			<point x="159" y="891"/>
			<point x="202" y="923"/>
			<point x="252" y="952"/>
			<point x="305" y="972"/>
			<point x="328" y="972" type="qcurve"/>
			<point x="347" y="972"/>
			<point x="375" y="955"/>
			<point x="398" y="931"/>
			<point x="419" y="904"/>
			<point x="431" y="894" type="qcurve"/>
			<point x="441" y="885"/>
			<point x="468" y="868"/>
			<point x="492" y="848"/>
			<point x="508" y="823"/>
			<point x="508" y="807" type="qcurve"/>
			<point x="508" y="783"/>
			<point x="480" y="754"/>
			<point x="460" y="754" type="qcurve"/>
			<point x="448" y="754"/>
			<point x="431" y="764"/>
			<point x="420" y="775" type="qcurve"/>
			<point x="407" y="788"/>
			<point x="391" y="800" type="qcurve"/>
			<point x="371" y="815"/>
			<point x="334" y="849"/>
			<point x="317" y="869" type="qcurve"/>
			<point x="293" y="856"/>
			<point x="240" y="830"/>
		</contour>
	</outline>
</glyph>
<glyph name="multiply" format="2">
	<unicode hex="00D7"/>
	<advance width="595"/>
	<outline>
		<contour>
			<point x="434" y="531" type="qcurve"/>
			<point x="444" y="545"/>
			<point x="468" y="556"/>
			<point x="480" y="556" type="qcurve"/>
			<point x="498" y="556"/>
			<point x="526" y="530"/>
			<point x="526" y="509" type="qcurve"/>
			<point x="526" y="501"/>
			<point x="522" y="484"/>
			<point x="517" y="476" type="qcurve"/>
			<point x="486" y="429"/>
			<point x="394" y="356"/>
			<point x="352" y="319" type="qcurve"/>
			<point x="471" y="203" type="line"/>
			<point x="481" y="194"/>
			<point x="485" y="173"/>
			<point x="485" y="165" type="qcurve"/>
			<point x="485" y="145"/>
			<point x="457" y="118"/>
			<point x="437" y="118" type="qcurve"/>
			<point x="429" y="118"/>
			<point x="411" y="121"/>
			<point x="403" y="129" type="qcurve"/>
			<point x="284" y="247" type="line"/>
			<point x="254" y="210"/>
			<point x="193" y="134"/>
			<point x="155" y="108" type="qcurve"/>
			<point x="152" y="106"/>
			<point x="136" y="102"/>
			<point x="128" y="102" type="qcurve"/>
			<point x="107" y="102"/>
			<point x="80" y="129"/>
			<point x="80" y="149" type="qcurve"/>
			<point x="80" y="164"/>
			<point x="92" y="185"/>
			<point x="100" y="192" type="qcurve"/>
			<point x="133" y="218"/>
			<point x="185" y="281"/>
			<point x="212" y="317" type="qcurve"/>
			<point x="182" y="346"/>
			<point x="123" y="399"/>
			<point x="91" y="427" type="qcurve"/>
			<point x="80" y="436"/>
			<point x="75" y="458"/>
			<point x="75" y="467" type="qcurve"/>
			<point x="75" y="487"/>
			<point x="102" y="514"/>
			<point x="123" y="514" type="qcurve"/>
			<point x="141" y="514"/>
			<point x="160" y="499" type="qcurve"/>
			<point x="193" y="471"/>
			<point x="250" y="419"/>
			<point x="282" y="388" type="qcurve"/>
			<point x="322" y="423"/>
			<point x="405" y="489"/>
		</contour>
	</outline>
</glyph>
<glyph name="Oslash" format="2">
	<unicode hex="00D8"/>
	<advance width="731"/>
	<outline>
		<contour>
			<point x="493" y="682" type="qcurve"/>
			<point x="522" y="669"/>
			<point x="529" y="644" type="qcurve"/>
			<point x="538" y="641" type="line"/>
			<point x="546" y="634" type="line"/>
			<point x="617" y="703" type="line"/>
			<point x="636" y="714"/>
			<point x="651" y="714" type="qcurve"/>
			<point x="671" y="714"/>
			<point x="699" y="687"/>
			<point x="699" y="666" type="qcurve"/>
			<point x="699" y="651"/>
			<point x="690" y="635" type="qcurve"/>
			<point x="622" y="569" type="line"/>
			<point x="625" y="566" type="line"/>
			<point x="657" y="524"/>
			<point x="697" y="408"/>
			<point x="697" y="349" type="qcurve"/>
			<point x="697" y="266"/>
			<point x="634" y="134"/>
			<point x="528" y="42"/>
			<point x="385" y="-7"/>
			<point x="306" y="-7" type="qcurve"/>
			<point x="294" y="-7"/>
			<point x="264" y="-5"/>
			<point x="234" y="-1"/>
			<point x="208" y="7"/>
			<point x="201" y="13" type="qcurve"/>
			<point x="192" y="4" type="line"/>
			<point x="182" y="-6"/>
			<point x="169" y="-18"/>
			<point x="161" y="-28" type="qcurve"/>
			<point x="159" y="-30"/>
			<point x="150" y="-44"/>
			<point x="145" y="-51" type="qcurve"/>
			<point x="136" y="-64"/>
			<point x="113" y="-74"/>
			<point x="102" y="-74" type="qcurve"/>
			<point x="83" y="-74"/>
			<point x="55" y="-46"/>
			<point x="55" y="-23" type="qcurve"/>
			<point x="55" y="-11"/>
			<point x="69" y="15"/>
			<point x="90" y="42"/>
			<point x="114" y="67"/>
			<point x="124" y="78" type="qcurve"/>
			<point x="79" y="134"/>
			<point x="35" y="280"/>
			<point x="35" y="351" type="qcurve"/>
			<point x="35" y="421"/>
			<point x="87" y="553"/>
			<point x="178" y="655"/>
			<point x="302" y="717"/>
			<point x="374" y="717" type="qcurve"/>
			<point x="398" y="717"/>
			<point x="436" y="706"/>
			<point x="453" y="695" type="qcurve"/>
			<point x="455" y="694"/>
			<point x="466" y="690"/>
			<point x="479" y="687"/>
			<point x="490" y="683"/>
		</contour>
		<contour>
			<point x="157" y="236" type="qcurve"/>
			<point x="168" y="201"/>
			<point x="183" y="172" type="qcurve"/>
			<point x="212" y="220"/>
			<point x="268" y="317"/>
			<point x="301" y="363" type="qcurve"/>
			<point x="340" y="417"/>
			<point x="428" y="515"/>
			<point x="475" y="563" type="qcurve"/>
			<point x="470" y="570"/>
			<point x="466" y="583"/>
			<point x="461" y="588" type="qcurve"/>
			<point x="441" y="594" type="line"/>
			<point x="416" y="599"/>
			<point x="391" y="614" type="qcurve"/>
			<point x="382" y="614"/>
			<point x="341" y="612"/>
			<point x="325" y="608" type="qcurve"/>
			<point x="276" y="595"/>
			<point x="206" y="542"/>
			<point x="160" y="472"/>
			<point x="138" y="391"/>
			<point x="138" y="350" type="qcurve"/>
			<point x="138" y="321"/>
			<point x="148" y="264"/>
		</contour>
		<contour>
			<point x="584" y="284" type="qcurve"/>
			<point x="589" y="301"/>
			<point x="594" y="338"/>
			<point x="594" y="358" type="qcurve"/>
			<point x="594" y="396"/>
			<point x="572" y="468"/>
			<point x="549" y="497" type="qcurve"/>
			<point x="514" y="462"/>
			<point x="448" y="391"/>
			<point x="418" y="353" type="qcurve"/>
			<point x="370" y="293"/>
			<point x="295" y="164"/>
			<point x="256" y="98" type="qcurve"/>
			<point x="266" y="94"/>
			<point x="293" y="92"/>
			<point x="306" y="92" type="qcurve"/>
			<point x="317" y="92"/>
			<point x="334" y="93"/>
			<point x="339" y="94" type="qcurve"/>
			<point x="386" y="100"/>
			<point x="464" y="124"/>
			<point x="526" y="168"/>
			<point x="570" y="236"/>
		</contour>
	</outline>
	<anchor name="mark0" x="366" y="686"/>
	<anchor name="mark1" x="330" y="0"/>
	<anchor name="mark2" x="0" y="0"/>
</glyph>
<glyph name="germandbls" format="2">
	<unicode hex="00DF"/>
	<advance width="558"/>
	<outline>
		<contour>
			<point x="69" y="-115" type="qcurve"/>
			<point x="64" y="-29"/>
			<point x="68" y="145"/>
			<point x="74" y="230" type="qcurve"/>
			<point x="80" y="318"/>
			<point x="108" y="478"/>
			<point x="127" y="549" type="qcurve"/>
			<point x="152" y="642"/>
			<point x="248" y="726"/>
			<point x="323" y="727" type="qcurve"/>
			<point x="370" y="727"/>
			<point x="437" y="691"/>
			<point x="477" y="634"/>
			<point x="487" y="563"/>
			<point x="477" y="529" type="qcurve"/>
			<point x="463" y="483"/>
			<point x="390" y="409"/>
			<point x="345" y="375" type="qcurve"/>
			<point x="404" y="356"/>
			<point x="476" y="306"/>
			<point x="511" y="244"/>
			<point x="515" y="172"/>
			<point x="506" y="132" type="qcurve"/>
			<point x="498" y="99"/>
			<point x="465" y="41"/>
			<point x="416" y="-2"/>
			<point x="354" y="-27"/>
			<point x="317" y="-27" type="qcurve"/>
			<point x="294" y="-27"/>
			<point x="237" y="-12"/>
			<point x="218" y="-1" type="qcurve"/>
			<point x="198" y="11"/>
			<point x="184" y="40"/>
			<point x="193" y="65"/>
			<point x="221" y="79"/>
			<point x="242" y="75" type="qcurve"/>
			<point x="262" y="71"/>
			<point x="301" y="67"/>
			<point x="312" y="67" type="qcurve"/>
			<point x="387" y="67"/>
			<point x="405" y="159" type="qcurve"/>
			<point x="409" y="178"/>
			<point x="406" y="220"/>
			<point x="382" y="258"/>
			<point x="329" y="290"/>
			<point x="283" y="301" type="qcurve"/>
			<point x="259" y="307"/>
			<point x="236" y="333"/>
			<point x="233" y="364"/>
			<point x="247" y="395"/>
			<point x="261" y="405" type="qcurve"/>
			<point x="299" y="433"/>
			<point x="361" y="508"/>
			<point x="374" y="548" type="qcurve"/>
			<point x="380" y="567"/>
			<point x="375" y="598"/>
			<point x="359" y="621"/>
			<point x="334" y="633"/>
			<point x="320" y="633" type="qcurve"/>
			<point x="283" y="633"/>
			<point x="241" y="580"/>
			<point x="227" y="534" type="qcurve"/>
			<point x="219" y="506"/>
			<point x="203" y="433"/>
			<point x="190" y="352"/>
			<point x="180" y="266"/>
			<point x="177" y="225" type="qcurve"/>
			<point x="172" y="141"/>
			<point x="166" y="-29"/>
			<point x="167" y="-111" type="qcurve"/>
			<point x="167" y="-140"/>
			<point x="137" y="-167"/>
			<point x="119" y="-167" type="qcurve"/>
			<point x="101" y="-167"/>
			<point x="71" y="-141"/>
		</contour>
	</outline>
	<anchor name="mark0" x="315" y="710"/>
	<anchor name="mark1" x="342" y="-11"/>
	<anchor name="mark2" x="0" y="0"/>
</glyph>
<glyph name="ccedilla" format="2">
	<unicode hex="00E7"/>
	<advance width="516"/>
	<outline>
		<contour>
			<point x="345" y="525" type="qcurve"/>
			<point x="359" y="525"/>
			<point x="392" y="520"/>
			<point x="421" y="507"/>
			<point x="440" y="483"/>
			<point x="440" y="464" type="qcurve"/>
			<point x="440" y="438"/>
			<point x="411" y="411"/>
			<point x="393" y="411" type="qcurve"/>
			<point x="376" y="411"/>
			<point x="361" y="423" type="qcurve"/>
			<point x="354" y="424"/>
			<point x="335" y="425"/>
			<point x="332" y="425" type="qcurve"/>
			<point x="289" y="423"/>
			<point x="223" y="393"/>
			<point x="178" y="344"/>
			<point x="155" y="279"/>
			<point x="155" y="242" type="qcurve"/>
			<point x="155" y="217"/>
			<point x="166" y="166"/>
			<point x="193" y="125"/>
			<point x="238" y="99"/>
			<point x="272" y="99" type="qcurve"/>
			<point x="307" y="99"/>
			<point x="373" y="131"/>
			<point x="385" y="160" type="qcurve"/>
			<point x="395" y="173"/>
			<point x="418" y="184"/>
			<point x="430" y="184" type="qcurve"/>
			<point x="449" y="184"/>
			<point x="477" y="156"/>
			<point x="477" y="132" type="qcurve"/>
			<point x="477" y="129"/>
			<point x="469" y="94"/>
			<point x="456" y="77" type="qcurve"/>
			<point x="436" y="51"/>
			<point x="367" y="15"/>
			<point x="325" y="7" type="qcurve"/>
			<point x="347" y="-4"/>
			<point x="367" y="-49"/>
			<point x="367" y="-71" type="qcurve"/>
			<point x="367" y="-101"/>
			<point x="333" y="-143"/>
			<point x="282" y="-170"/>
			<point x="223" y="-184"/>
			<point x="199" y="-186" type="qcurve"/>
			<point x="176" y="-181"/>
			<point x="155" y="-152"/>
			<point x="155" y="-136" type="qcurve"/>
			<point x="155" y="-120"/>
			<point x="176" y="-92"/>
			<point x="199" y="-86" type="qcurve"/>
			<point x="211" y="-84"/>
			<point x="234" y="-81"/>
			<point x="245" y="-76" type="qcurve"/>
			<point x="222" y="-70"/>
			<point x="186" y="-43"/>
			<point x="186" y="-17" type="qcurve"/>
			<point x="186" y="-9"/>
			<point x="187" y="-4" type="qcurve"/>
			<point x="190" y="11" type="line"/>
			<point x="160" y="21"/>
			<point x="103" y="73"/>
			<point x="88" y="101" type="qcurve"/>
			<point x="71" y="133"/>
			<point x="55" y="204"/>
			<point x="55" y="240" type="qcurve"/>
			<point x="55" y="311"/>
			<point x="104" y="418"/>
			<point x="185" y="489"/>
			<point x="289" y="525"/>
		</contour>
	</outline>
</glyph>
<glyph name="thorn" format="2">
	<unicode hex="00FE"/>
	<advance width="574"/>
	<outline>
		<contour>
			<point x="111" y="673" type="qcurve"/>
			<point x="111" y="685"/>
			<point x="117" y="711"/>
			<point x="129" y="731"/>
			<point x="150" y="744"/>
			<point x="165" y="744" type="qcurve"/>
			<point x="184" y="744"/>
			<point x="212" y="716"/>
			<point x="212" y="692" type="qcurve"/>
			<point x="212" y="656"/>
			<point x="206" y="584"/>
			<point x="203" y="546" type="qcurve"/>
			<point x="198" y="498"/>
			<point x="192" y="403"/>
			<point x="190" y="355" type="qcurve"/>
			<point x="207" y="392"/>
			<point x="241" y="442"/>
			<point x="278" y="472"/>
			<point x="322" y="485"/>
			<point x="349" y="485" type="qcurve"/>
			<point x="388" y="485"/>
			<point x="450" y="465"/>
			<point x="493" y="420"/>
			<point x="517" y="350"/>
			<point x="517" y="299" type="qcurve"/>
			<point x="517" y="267"/>
			<point x="498" y="209"/>
			<point x="484" y="180" type="qcurve"/>
			<point x="472" y="155"/>
			<point x="437" y="107"/>
			<point x="393" y="68"/>
			<point x="341" y="44"/>
			<point x="311" y="44" type="qcurve"/>
			<point x="283" y="44"/>
			<point x="235" y="60"/>
			<point x="209" y="68" type="qcurve"/>
			<point x="203" y="30"/>
			<point x="189" y="-38"/>
			<point x="183" y="-68" type="qcurve"/>
			<point x="185" y="-91"/>
			<point x="187" y="-136"/>
			<point x="187" y="-159" type="qcurve"/>
			<point x="187" y="-181"/>
			<point x="185" y="-234"/>
			<point x="173" y="-281"/>
			<point x="148" y="-312"/>
			<point x="126" y="-312" type="qcurve"/>
			<point x="119" y="-312"/>
			<point x="102" y="-306"/>
			<point x="87" y="-294"/>
			<point x="76" y="-275"/>
			<point x="76" y="-261" type="qcurve"/>
			<point x="76" y="-255"/>
			<point x="75" y="-228"/>
			<point x="75" y="-210" type="qcurve"/>
			<point x="75" y="-172"/>
			<point x="80" y="-104"/>
			<point x="85" y="-69" type="qcurve"/>
			<point x="79" y="-6"/>
			<point x="79" y="53" type="qcurve"/>
			<point x="79" y="94"/>
			<point x="84" y="174"/>
			<point x="86" y="215" type="qcurve"/>
			<point x="89" y="284"/>
			<point x="93" y="418"/>
			<point x="98" y="486" type="qcurve"/>
			<point x="101" y="532"/>
			<point x="111" y="623"/>
		</contour>
		<contour>
			<point x="330" y="387" type="qcurve"/>
			<point x="313" y="373"/>
			<point x="285" y="327"/>
			<point x="260" y="268"/>
			<point x="240" y="200"/>
			<point x="231" y="164" type="qcurve"/>
			<point x="250" y="159"/>
			<point x="289" y="144"/>
			<point x="307" y="144" type="qcurve"/>
			<point x="327" y="144"/>
			<point x="367" y="178"/>
			<point x="398" y="226"/>
			<point x="418" y="277"/>
			<point x="418" y="294" type="qcurve"/>
			<point x="418" y="325"/>
			<point x="406" y="362"/>
			<point x="385" y="382"/>
			<point x="354" y="388"/>
			<point x="335" y="388" type="qcurve"/>
			<point x="331" y="388"/>
		</contour>
	</outline>
</glyph>
<glyph name="OE" format="2">
	<unicode hex="0152"/>
	<advance width="924"/>
	<outline>
		<contour>
			<point x="843" y="24" type="qcurve"/>
			<point x="779" y="22"/>
			<point x="649" y="6"/>
			<point x="584" y="6" type="qcurve"/>
			<point x="552" y="6"/>
			<point x="521" y="9" type="qcurve"/>
			<point x="484" y="-12"/>
			<point x="397" y="-31"/>
			<point x="362" y="-31" type="qcurve"/>
			<point x="295" y="-31"/>
			<point x="186" y="25"/>
			<point x="108" y="129"/>
			<point x="66" y="275"/>
			<point x="66" y="364" type="qcurve"/>
			<point x="66" y="408"/>
			<point x="83" y="503"/>
			<point x="119" y="595"/>
			<point x="174" y="679"/>
			<point x="249" y="742"/>
			<point x="344" y="779"/>
			<point x="403" y="779" type="qcurve"/>
			<point x="429" y="779"/>
			<point x="480" y="771"/>
			<point x="503" y="762" type="qcurve"/>
			<point x="529" y="770"/>
			<point x="580" y="776"/>
			<point x="604" y="776" type="qcurve"/>
			<point x="633" y="776"/>
			<point x="690" y="769"/>
			<point x="748" y="761"/>
			<point x="807" y="753"/>
			<point x="839" y="752" type="qcurve"/>
			<point x="866" y="749"/>
			<point x="893" y="719"/>
			<point x="893" y="702" type="qcurve"/>
			<point x="893" y="685"/>
			<point x="866" y="654"/>
			<point x="839" y="652" type="qcurve"/>
			<point x="782" y="655"/>
			<point x="671" y="677"/>
			<point x="616" y="677" type="qcurve"/>
			<point x="591" y="677"/>
			<point x="567" y="674" type="qcurve"/>
			<point x="568" y="612"/>
			<point x="573" y="491"/>
			<point x="576" y="430" type="qcurve"/>
			<point x="631" y="430" type="line"/>
			<point x="655" y="430"/>
			<point x="704" y="427"/>
			<point x="743" y="415"/>
			<point x="767" y="392"/>
			<point x="767" y="372" type="qcurve"/>
			<point x="767" y="353"/>
			<point x="739" y="326"/>
			<point x="713" y="326" type="qcurve"/>
			<point x="680" y="326"/>
			<point x="613" y="329"/>
			<point x="580" y="330" type="qcurve"/>
			<point x="581" y="319"/>
			<point x="581" y="296"/>
			<point x="581" y="285" type="qcurve"/>
			<point x="581" y="243"/>
			<point x="576" y="157"/>
			<point x="574" y="109" type="qcurve"/>
			<point x="642" y="109"/>
			<point x="775" y="121"/>
			<point x="843" y="124" type="qcurve"/>
			<point x="870" y="121"/>
			<point x="897" y="91"/>
			<point x="897" y="74" type="qcurve"/>
			<point x="897" y="57"/>
			<point x="870" y="26"/>
		</contour>
		<contour>
			<point x="482" y="234" type="qcurve"/>
			<point x="482" y="343"/>
			<point x="469" y="558"/>
			<point x="467" y="667" type="qcurve"/>
			<point x="455" y="671" type="line"/>
			<point x="444" y="675"/>
			<point x="406" y="679"/>
			<point x="393" y="679" type="qcurve"/>
			<point x="383" y="679"/>
			<point x="361" y="676"/>
			<point x="347" y="671" type="qcurve"/>
			<point x="299" y="656"/>
			<point x="230" y="591"/>
			<point x="185" y="506"/>
			<point x="164" y="408"/>
			<point x="164" y="359" type="qcurve"/>
			<point x="164" y="321"/>
			<point x="183" y="220"/>
			<point x="229" y="129"/>
			<point x="305" y="66"/>
			<point x="362" y="66" type="qcurve"/>
			<point x="375" y="66"/>
			<point x="398" y="71"/>
			<point x="421" y="78"/>
			<point x="446" y="88"/>
			<point x="462" y="93" type="qcurve"/>
			<point x="472" y="96" type="line"/>
			<point x="475" y="132"/>
			<point x="482" y="201"/>
		</contour>
	</outline>
	<anchor name="mark0" x="516" y="745"/>
	<anchor name="mark1" x="521" y="0"/>
	<anchor name="mark2" x="0" y="0"/>
</glyph>
<glyph name="Scaron" format="2">
	<unicode hex="0160"/>
	<advance width="541"/>
	<outline>
		<contour>
			<point x="78" y="875" type="qcurve"/>
			<point x="63" y="884"/>
			<point x="50" y="909"/>
			<point x="50" y="921" type="qcurve"/>
			<point x="50" y="940"/>
			<point x="78" y="969"/>
			<point x="102" y="969" type="qcurve"/>
			<point x="122" y="969"/>
			<point x="165" y="940"/>
			<point x="206" y="899"/>
			<point x="241" y="854"/>
			<point x="253" y="839" type="qcurve"/>
			<point x="275" y="848"/>
			<point x="324" y="868"/>
			<point x="370" y="886"/>
			<point x="408" y="897"/>
			<point x="419" y="897" type="qcurve"/>
			<point x="443" y="897"/>
			<point x="473" y="865"/>
			<point x="473" y="848" type="qcurve"/>
			<point x="473" y="834"/>
			<point x="455" y="805"/>
			<point x="435" y="798" type="qcurve"/>
			<point x="403" y="787"/>
			<point x="335" y="767"/>
			<point x="306" y="753" type="qcurve"/>
			<point x="389" y="734"/>
			<point x="491" y="663"/>
			<point x="491" y="610" type="qcurve"/>
			<point x="491" y="585"/>
			<point x="462" y="558"/>
			<point x="444" y="558" type="qcurve"/>
			<point x="429" y="558"/>
			<point x="401" y="578"/>
			<point x="393" y="600" type="qcurve"/>
			<point x="387" y="622"/>
			<point x="338" y="645"/>
			<point x="284" y="656"/>
			<point x="239" y="658"/>
			<point x="238" y="658" type="qcurve"/>
			<point x="229" y="651"/>
			<point x="215" y="628"/>
			<point x="204" y="601"/>
			<point x="198" y="574"/>
			<point x="198" y="564" type="qcurve"/>
			<point x="198" y="523"/>
			<point x="247" y="450"/>
			<point x="319" y="377"/>
			<point x="398" y="301"/>
			<point x="428" y="259" type="qcurve"/>
			<point x="437" y="247"/>
			<point x="456" y="215"/>
			<point x="473" y="180"/>
			<point x="484" y="143"/>
			<point x="484" y="125" type="qcurve"/>
			<point x="484" y="89"/>
			<point x="446" y="37"/>
			<point x="388" y="4"/>
			<point x="317" y="-11"/>
			<point x="284" y="-11" type="qcurve"/>
			<point x="227" y="-11"/>
			<point x="121" y="23"/>
			<point x="88" y="54" type="qcurve"/>
			<point x="48" y="91"/>
			<point x="48" y="141" type="qcurve"/>
			<point x="48" y="169"/>
			<point x="77" y="199"/>
			<point x="95" y="199" type="qcurve"/>
			<point x="109" y="199"/>
			<point x="135" y="182"/>
			<point x="145" y="165" type="qcurve"/>
			<point x="147" y="157"/>
			<point x="150" y="133"/>
			<point x="158" y="126" type="qcurve"/>
			<point x="178" y="107"/>
			<point x="241" y="87"/>
			<point x="272" y="87" type="qcurve"/>
			<point x="284" y="87"/>
			<point x="321" y="91"/>
			<point x="356" y="101"/>
			<point x="380" y="119"/>
			<point x="380" y="133" type="qcurve"/>
			<point x="380" y="145"/>
			<point x="370" y="163" type="qcurve"/>
			<point x="351" y="199"/>
			<point x="296" y="262"/>
			<point x="235" y="322"/>
			<point x="174" y="381"/>
			<point x="125" y="445"/>
			<point x="95" y="518"/>
			<point x="95" y="561" type="qcurve"/>
			<point x="95" y="579"/>
			<point x="107" y="632"/>
			<point x="130" y="686"/>
			<point x="165" y="733"/>
			<point x="189" y="747" type="qcurve"/>
			<point x="197" y="751" type="line"/>
			<point x="185" y="766"/>
			<point x="157" y="804"/>
			<point x="127" y="840"/>
			<point x="95" y="869"/>
		</contour>
	</outline>
</glyph>
<glyph name="tcaron" format="2">
	<unicode hex="0165"/>
	<advance width="429"/>
	<outline>
		<contour>
			<point x="382" y="751" type="qcurve"/>
			<point x="390" y="772"/>
			<point x="418" y="793"/>
			<point x="433" y="793" type="qcurve"/>
			<point x="450" y="793"/>
			<point x="478" y="768"/>
			<point x="482" y="743" type="qcurve"/>
			<point x="479" y="722"/>
			<point x="470" y="661"/>
			<point x="449" y="605"/>
			<point x="415" y="565"/>
			<point x="388" y="565" type="qcurve"/>
			<point x="367" y="565"/>
			<point x="340" y="592"/>
			<point x="340" y="612" type="qcurve"/>
			<point x="340" y="632"/>
			<point x="354" y="650" type="qcurve"/>
			<point x="360" y="654"/>
			<point x="369" y="681"/>
			<point x="377" y="714"/>
			<point x="381" y="745"/>
		</contour>
		<contour>
			<point x="31" y="396" type="qcurve"/>
			<point x="8" y="401"/>
			<point x="-13" y="430"/>
			<point x="-13" y="446" type="qcurve"/>
			<point x="-13" y="462"/>
			<point x="8" y="490"/>
			<point x="31" y="496" type="qcurve"/>
			<point x="59" y="497"/>
			<point x="112" y="510"/>
			<point x="139" y="514" type="qcurve"/>
			<point x="147" y="515"/>
			<point x="161" y="516"/>
			<point x="169" y="518" type="qcurve"/>
			<point x="169" y="533" type="line"/>
			<point x="169" y="582"/>
			<point x="180" y="676"/>
			<point x="180" y="726" type="qcurve"/>
			<point x="180" y="755"/>
			<point x="210" y="784"/>
			<point x="229" y="784" type="qcurve"/>
			<point x="246" y="784"/>
			<point x="276" y="760"/>
			<point x="280" y="734" type="qcurve"/>
			<point x="280" y="690"/>
			<point x="275" y="603"/>
			<point x="273" y="560" type="qcurve"/>
			<point x="270" y="529" type="line"/>
			<point x="306" y="532"/>
			<point x="377" y="535"/>
			<point x="413" y="536" type="qcurve"/>
			<point x="440" y="533"/>
			<point x="467" y="503"/>
			<point x="467" y="486" type="qcurve"/>
			<point x="467" y="469"/>
			<point x="440" y="438"/>
			<point x="413" y="436" type="qcurve"/>
			<point x="375" y="435"/>
			<point x="302" y="432"/>
			<point x="265" y="428" type="qcurve"/>
			<point x="265" y="408"/>
			<point x="267" y="367"/>
			<point x="267" y="346" type="qcurve"/>
			<point x="267" y="268"/>
			<point x="258" y="112"/>
			<point x="258" y="33" type="qcurve"/>
			<point x="254" y="7"/>
			<point x="224" y="-17"/>
			<point x="207" y="-17" type="qcurve"/>
			<point x="188" y="-17"/>
			<point x="158" y="12"/>
			<point x="158" y="41" type="qcurve"/>
			<point x="158" y="136"/>
			<point x="168" y="322"/>
			<point x="168" y="417" type="qcurve"/>
			<point x="160" y="415"/>
			<point x="156" y="415" type="qcurve"/>
			<point x="124" y="410"/>
			<point x="63" y="397"/>
		</contour>
	</outline>
</glyph>
<glyph name="Tbar" format="2">
	<unicode hex="0166"/>
	<advance width="599"/>
	<outline>
		<contour>
			<point x="55" y="590" type="qcurve"/>
			<point x="28" y="590"/>
			<point x="6" y="624"/>
			<point x="6" y="640" type="qcurve"/>
			<point x="6" y="648"/>
			<point x="11" y="665"/>
			<point x="23" y="680"/>
			<point x="43" y="690"/>
			<point x="57" y="690" type="qcurve"/>
			<point x="90" y="690"/>
			<point x="163" y="698"/>
			<point x="241" y="708"/>
			<point x="321" y="716"/>
			<point x="360" y="716" type="qcurve"/>
			<point x="390" y="716"/>
			<point x="460" y="713"/>
			<point x="491" y="705" type="qcurve"/>
			<point x="506" y="701"/>
			<point x="538" y="693"/>
			<point x="542" y="693" type="qcurve"/>
			<point x="569" y="693"/>
			<point x="591" y="660"/>
			<point x="591" y="644" type="qcurve"/>
			<point x="591" y="626"/>
			<point x="563" y="594"/>
			<point x="537" y="594" type="qcurve"/>
			<point x="517" y="594"/>
			<point x="482" y="606"/>
			<point x="463" y="609" type="qcurve"/>
			<point x="432" y="614"/>
			<point x="369" y="617"/>
			<point x="337" y="617" type="qcurve"/>
			<point x="335" y="540"/>
			<point x="332" y="469" type="qcurve"/>
			<point x="330" y="422" type="line"/>
			<point x="344" y="422"/>
			<point x="358" y="421" type="qcurve"/>
			<point x="395" y="419"/>
			<point x="427" y="419" type="qcurve"/>
			<point x="454" y="416"/>
			<point x="481" y="386"/>
			<point x="481" y="369" type="qcurve"/>
			<point x="481" y="352"/>
			<point x="454" y="321"/>
			<point x="427" y="319" type="qcurve"/>
			<point x="405" y="319"/>
			<point x="366" y="321" type="qcurve"/>
			<point x="346" y="322"/>
			<point x="324" y="322" type="qcurve"/>
			<point x="321" y="257"/>
			<point x="318" y="190" type="qcurve"/>
			<point x="316" y="120"/>
			<point x="316" y="44" type="qcurve"/>
			<point x="316" y="15"/>
			<point x="285" y="-9"/>
			<point x="265" y="-9" type="qcurve"/>
			<point x="246" y="-9"/>
			<point x="216" y="20"/>
			<point x="216" y="49" type="qcurve"/>
			<point x="217" y="124"/>
			<point x="220" y="192" type="qcurve"/>
			<point x="223" y="257"/>
			<point x="226" y="321" type="qcurve"/>
			<point x="221" y="321"/>
			<point x="217" y="320" type="qcurve"/>
			<point x="185" y="318"/>
			<point x="167" y="310" type="qcurve"/>
			<point x="159" y="306"/>
			<point x="145" y="304"/>
			<point x="139" y="304" type="qcurve"/>
			<point x="117" y="304"/>
			<point x="90" y="331"/>
			<point x="90" y="350" type="qcurve"/>
			<point x="90" y="374"/>
			<point x="128" y="403"/>
			<point x="186" y="418"/>
			<point x="220" y="420" type="qcurve"/>
			<point x="231" y="421" type="line"/>
			<point x="232" y="444"/>
			<point x="233" y="466" type="qcurve"/>
			<point x="236" y="535"/>
			<point x="237" y="610" type="qcurve"/>
			<point x="190" y="604"/>
			<point x="99" y="590"/>
		</contour>
	</outline>
</glyph>
<glyph name="longs" format="2">
	<unicode hex="017F"/>
	<advance width="280"/>
	<outline>
		<contour>
			<point x="456" y="686" type="qcurve"/>
			<point x="456" y="664"/>
			<point x="426" y="636"/>
			<point x="405" y="636" type="qcurve"/>
			<point x="388" y="636"/>
			<point x="356" y="661"/>
			<point x="356" y="685" type="qcurve"/>
			<point x="356" y="696" type="line"/>
			<point x="343" y="698"/>
			<point x="319" y="704"/>
			<point x="307" y="704" type="qcurve"/>
			<point x="288" y="704"/>
			<point x="259" y="680"/>
			<point x="239" y="643"/>
			<point x="226" y="596"/>
			<point x="218" y="550"/>
			<point x="213" y="509"/>
			<point x="212" y="496" type="qcurve"/>
			<point x="207" y="440"/>
			<point x="201" y="329"/>
			<point x="193" y="219"/>
			<point x="179" y="108"/>
			<point x="167" y="52" type="qcurve"/>
			<point x="165" y="44"/>
			<point x="164" y="8"/>
			<point x="155" y="-29"/>
			<point x="133" y="-57"/>
			<point x="110" y="-57" type="qcurve"/>
			<point x="91" y="-57"/>
			<point x="61" y="-28"/>
			<point x="61" y="1" type="qcurve"/>
			<point x="61" y="26"/>
			<point x="70" y="84"/>
			<point x="82" y="145"/>
			<point x="94" y="207"/>
			<point x="97" y="237" type="qcurve"/>
			<point x="100" y="269"/>
			<point x="103" y="305"/>
			<point x="105" y="335"/>
			<point x="105" y="372"/>
			<point x="107" y="406" type="qcurve"/>
			<point x="108" y="436"/>
			<point x="111" y="514"/>
			<point x="120" y="594"/>
			<point x="138" y="668"/>
			<point x="154" y="695" type="qcurve"/>
			<point x="169" y="719"/>
			<point x="200" y="760"/>
			<point x="239" y="790"/>
			<point x="288" y="807"/>
			<point x="320" y="807" type="qcurve"/>
			<point x="383" y="807"/>
			<point x="456" y="751"/>
		</contour>
	</outline>
	<anchor name="mark0" x="320" y="778"/>
	<anchor name="mark1" x="107" y="-31"/>
	<anchor name="mark2" x="0" y="0"/>
</glyph>
<glyph name="uni018F" format="2">
	<unicode hex="018F"/>
	<advance width="649"/>
	<outline>
		<contour>
			<point x="151" y="549" type="qcurve"/>
			<point x="139" y="498"/>
			<point x="99" y="498" type="qcurve"/>
			<point x="80" y="498"/>
			<point x="50" y="526"/>
			<point x="50" y="549" type="qcurve"/>
			<point x="50" y="579"/>
			<point x="93" y="639"/>
			<point x="163" y="689"/>
			<point x="252" y="720"/>
			<point x="297" y="720" type="qcurve"/>
			<point x="323" y="720"/>
			<point x="364" y="716"/>
			<point x="399" y="708"/>
			<point x="430" y="693"/>
			<point x="446" y="683" type="qcurve"/>
			<point x="484" y="658"/>
			<point x="543" y="576"/>
			<point x="583" y="477"/>
			<point x="604" y="366"/>
			<point x="604" y="311" type="qcurve"/>
			<point x="604" y="280"/>
			<point x="596" y="212"/>
			<point x="578" y="142"/>
			<point x="549" y="73"/>
			<point x="528" y="42" type="qcurve"/>
			<point x="515" y="22"/>
			<point x="475" y="-4"/>
			<point x="428" y="-19"/>
			<point x="378" y="-26"/>
			<point x="356" y="-26" type="qcurve"/>
			<point x="293" y="-26"/>
			<point x="190" y="15"/>
			<point x="111" y="87"/>
			<point x="53" y="183"/>
			<point x="35" y="238" type="qcurve"/>
			<point x="22" y="274"/>
			<point x="22" y="299" type="qcurve"/>
			<point x="22" y="336"/>
			<point x="76" y="359"/>
			<point x="117" y="359" type="qcurve"/>
			<point x="154" y="359"/>
			<point x="237" y="354"/>
			<point x="278" y="354" type="qcurve"/>
			<point x="334" y="354"/>
			<point x="445" y="357"/>
			<point x="501" y="359" type="qcurve"/>
			<point x="496" y="413"/>
			<point x="465" y="508"/>
			<point x="413" y="580"/>
			<point x="344" y="621"/>
			<point x="302" y="621" type="qcurve"/>
			<point x="270" y="621"/>
			<point x="187" y="589"/>
		</contour>
		<contour>
			<point x="487" y="191" type="qcurve"/>
			<point x="497" y="225"/>
			<point x="501" y="259" type="qcurve"/>
			<point x="441" y="259"/>
			<point x="322" y="253"/>
			<point x="262" y="253" type="qcurve"/>
			<point x="231" y="253"/>
			<point x="165" y="260"/>
			<point x="132" y="260" type="qcurve"/>
			<point x="137" y="247"/>
			<point x="145" y="221"/>
			<point x="150" y="210" type="qcurve"/>
			<point x="164" y="179"/>
			<point x="210" y="128"/>
			<point x="269" y="92"/>
			<point x="335" y="73"/>
			<point x="369" y="73" type="qcurve"/>
			<point x="391" y="73"/>
			<point x="404" y="78" type="qcurve"/>
			<point x="446" y="99" type="line"/>
			<point x="457" y="122"/>
			<point x="479" y="167"/>
		</contour>
	</outline>
	<anchor name="mark0" x="305" y="695"/>
	<anchor name="mark1" x="330" y="0"/>
	<anchor name="mark2" x="0" y="0"/>
</glyph>
<glyph name="florin" format="2">
	<unicode hex="0192"/>
	<advance width="675"/>
	<outline>
		<contour>
			<point x="282" y="424" type="qcurve"/>
			<point x="247" y="424"/>
			<point x="190" y="412"/>
			<point x="165" y="412" type="qcurve"/>
			<point x="139" y="412"/>
			<point x="111" y="441"/>
			<point x="111" y="460" type="qcurve"/>
			<point x="111" y="473"/>
			<point x="129" y="505"/>
			<point x="152" y="510" type="qcurve"/>
			<point x="191" y="518"/>
			<point x="259" y="525"/>
			<point x="302" y="525" type="qcurve"/>
			<point x="316" y="571"/>
			<point x="335" y="607" type="qcurve"/>
			<point x="352" y="638"/>
			<point x="390" y="691"/>
			<point x="440" y="728"/>
			<point x="503" y="749"/>
			<point x="545" y="749" type="qcurve"/>
			<point x="574" y="749"/>
			<point x="604" y="721"/>
			<point x="604" y="702" type="qcurve"/>
			<point x="604" y="684"/>
			<point x="580" y="655"/>
			<point x="559" y="650" type="qcurve"/>
			<point x="533" y="645"/>
			<point x="495" y="639"/>
			<point x="475" y="626" type="qcurve"/>
			<point x="451" y="610"/>
			<point x="420" y="553"/>
			<point x="409" y="521" type="qcurve"/>
			<point x="450" y="518"/>
			<point x="530" y="512"/>
			<point x="568" y="511" type="qcurve"/>
			<point x="595" y="510"/>
			<point x="622" y="478"/>
			<point x="622" y="461" type="qcurve"/>
			<point x="622" y="444"/>
			<point x="594" y="411"/>
			<point x="568" y="411" type="qcurve"/>
			<point x="531" y="411"/>
			<point x="436" y="419"/>
			<point x="385" y="422" type="qcurve"/>
			<point x="376" y="369"/>
			<point x="369" y="259"/>
			<point x="363" y="149"/>
			<point x="354" y="41"/>
			<point x="344" y="-10" type="qcurve"/>
			<point x="330" y="-77"/>
			<point x="293" y="-173"/>
			<point x="234" y="-234"/>
			<point x="146" y="-262"/>
			<point x="82" y="-262" type="qcurve"/>
			<point x="62" y="-262"/>
			<point x="38" y="-233"/>
			<point x="38" y="-218" type="qcurve"/>
			<point x="38" y="-194"/>
			<point x="69" y="-162"/>
			<point x="107" y="-162" type="qcurve"/>
			<point x="159" y="-162"/>
			<point x="217" y="-106"/>
			<point x="229" y="-61" type="qcurve"/>
			<point x="244" y="-4"/>
			<point x="259" y="131"/>
			<point x="267" y="265"/>
			<point x="274" y="383"/>
		</contour>
	</outline>
</glyph>
<glyph name="uni01B6" format="2">
	<unicode hex="01B6"/>
	<advance width="621"/>
	<outline>
		<contour>
			<point x="155" y="224" type="line"/>
			<point x="132" y="229"/>
			<point x="111" y="258"/>
			<point x="111" y="274" type="qcurve"/>
			<point x="111" y="290"/>
			<point x="132" y="318"/>
			<point x="155" y="324" type="qcurve"/>
			<point x="183" y="322"/>
			<point x="237" y="316"/>
			<point x="264" y="311" type="qcurve"/>
			<point x="288" y="337"/>
			<point x="329" y="393"/>
			<point x="354" y="419" type="qcurve"/>
			<point x="293" y="420"/>
			<point x="171" y="430"/>
			<point x="111" y="432" type="qcurve"/>
			<point x="88" y="437"/>
			<point x="67" y="466"/>
			<point x="67" y="482" type="qcurve"/>
			<point x="67" y="498"/>
			<point x="88" y="526"/>
			<point x="111" y="532" type="qcurve"/>
			<point x="179" y="531"/>
			<point x="312" y="522"/>
			<point x="379" y="520" type="qcurve"/>
			<point x="398" y="520"/>
			<point x="436" y="523"/>
			<point x="455" y="523" type="qcurve"/>
			<point x="493" y="523"/>
			<point x="527" y="495"/>
			<point x="527" y="471" type="qcurve"/>
			<point x="527" y="450"/>
			<point x="500" y="412"/>
			<point x="462" y="378"/>
			<point x="422" y="346"/>
			<point x="409" y="331" type="qcurve"/>
			<point x="401" y="323"/>
			<point x="388" y="305"/>
			<point x="381" y="297" type="qcurve"/>
			<point x="385" y="297" type="line"/>
			<point x="412" y="294"/>
			<point x="439" y="264"/>
			<point x="439" y="247" type="qcurve"/>
			<point x="439" y="230"/>
			<point x="412" y="199"/>
			<point x="385" y="197" type="qcurve"/>
			<point x="365" y="198"/>
			<point x="326" y="202"/>
			<point x="307" y="204" type="qcurve"/>
			<point x="294" y="191" type="line"/>
			<point x="267" y="164"/>
			<point x="216" y="110"/>
			<point x="190" y="83" type="qcurve"/>
			<point x="220" y="80"/>
			<point x="254" y="80" type="qcurve"/>
			<point x="294" y="80"/>
			<point x="373" y="85"/>
			<point x="413" y="87" type="qcurve"/>
			<point x="427" y="87"/>
			<point x="464" y="81"/>
			<point x="481" y="81" type="qcurve"/>
			<point x="496" y="81"/>
			<point x="518" y="89"/>
			<point x="529" y="89" type="qcurve"/>
			<point x="552" y="89"/>
			<point x="579" y="63"/>
			<point x="579" y="44" type="qcurve"/>
			<point x="579" y="33"/>
			<point x="568" y="10"/>
			<point x="557" y="-1" type="qcurve"/>
			<point x="541" y="-10"/>
			<point x="508" y="-16"/>
			<point x="491" y="-16" type="qcurve"/>
			<point x="474" y="-16"/>
			<point x="440" y="-13"/>
			<point x="423" y="-13" type="qcurve"/>
			<point x="381" y="-13"/>
			<point x="301" y="-20"/>
			<point x="260" y="-20" type="qcurve"/>
			<point x="225" y="-20"/>
			<point x="158" y="-11"/>
			<point x="123" y="-10" type="qcurve"/>
			<point x="109" y="-10"/>
			<point x="80" y="-5"/>
			<point x="57" y="8"/>
			<point x="43" y="28"/>
			<point x="43" y="43" type="qcurve"/>
			<point x="43" y="49"/>
			<point x="48" y="70"/>
			<point x="58" y="82" type="qcurve"/>
			<point x="74" y="103"/>
			<point x="104" y="137"/>
			<point x="133" y="170"/>
			<point x="164" y="203"/>
			<point x="182" y="222" type="qcurve"/>
		</contour>
	</outline>
</glyph>
<glyph name="uni0259" format="2">
	<unicode hex="0259"/>
	<advance width="518"/>
	<outline>
		<contour>
			<point x="276" y="413" type="qcurve"/>
			<point x="255" y="413"/>
			<point x="211" y="393"/>
			<point x="169" y="370"/>
			<point x="133" y="350"/>
			<point x="121" y="350" type="qcurve"/>
			<point x="95" y="350"/>
			<point x="67" y="379"/>
			<point x="67" y="398" type="qcurve"/>
			<point x="67" y="411"/>
			<point x="80" y="435"/>
			<point x="95" y="445" type="qcurve"/>
			<point x="112" y="456"/>
			<point x="158" y="481"/>
			<point x="209" y="502"/>
			<point x="262" y="516"/>
			<point x="287" y="516" type="qcurve"/>
			<point x="338" y="516"/>
			<point x="417" y="485"/>
			<point x="441" y="441" type="qcurve"/>
			<point x="448" y="427"/>
			<point x="461" y="396"/>
			<point x="471" y="355"/>
			<point x="476" y="302"/>
			<point x="476" y="266" type="qcurve"/>
			<point x="476" y="238"/>
			<point x="460" y="176"/>
			<point x="433" y="114"/>
			<point x="397" y="59"/>
			<point x="377" y="39" type="qcurve"/>
			<point x="352" y="14"/>
			<point x="298" y="-18"/>
			<point x="243" y="-36"/>
			<point x="189" y="-43"/>
			<point x="164" y="-43" type="qcurve"/>
			<point x="145" y="-43"/>
			<point x="107" y="-36"/>
			<point x="89" y="-28" type="qcurve"/>
			<point x="76" y="-23"/>
			<point x="50" y="6"/>
			<point x="44" y="13" type="qcurve"/>
			<point x="33" y="25"/>
			<point x="22" y="54"/>
			<point x="22" y="68" type="qcurve"/>
			<point x="22" y="93"/>
			<point x="48" y="146"/>
			<point x="86" y="191"/>
			<point x="131" y="225"/>
			<point x="150" y="233" type="qcurve"/>
			<point x="189" y="248"/>
			<point x="237" y="264"/>
			<point x="280" y="273"/>
			<point x="332" y="277"/>
			<point x="375" y="282" type="qcurve"/>
			<point x="375" y="293"/>
			<point x="376" y="323"/>
			<point x="373" y="341" type="qcurve"/>
			<point x="361" y="413"/>
		</contour>
		<contour>
			<point x="294" y="98" type="qcurve"/>
			<point x="314" y="113"/>
			<point x="344" y="157"/>
			<point x="355" y="180" type="qcurve"/>
			<point x="327" y="178"/>
			<point x="259" y="168"/>
			<point x="194" y="147"/>
			<point x="141" y="110"/>
			<point x="127" y="80" type="qcurve"/>
			<point x="126" y="78"/>
			<point x="126" y="74" type="qcurve"/>
			<point x="126" y="69"/>
			<point x="135" y="63"/>
			<point x="148" y="60"/>
			<point x="161" y="59"/>
			<point x="165" y="59" type="qcurve"/>
			<point x="199" y="59"/>
			<point x="268" y="78"/>
		</contour>
	</outline>
	<anchor name="mark0" x="280" y="500"/>
	<anchor name="mark1" x="174" y="-20"/>
	<anchor name="mark2" x="0" y="0"/>
</glyph>
<glyph name="caron" format="2">
	<unicode hex="02C7"/>
	<advance width="424"/>
	<outline>
		<contour>
			<point x="46" y="665" type="qcurve"/>
			<point x="41" y="680"/>
			<point x="41" y="689" type="qcurve"/>
			<point x="41" y="711"/>
			<point x="68" y="738"/>
			<point x="86" y="738" type="qcurve"/>
			<point x="113" y="738"/>
			<point x="132" y="714" type="qcurve"/>
			<point x="151" y="689"/>
			<point x="195" y="655"/>
			<point x="220" y="635" type="qcurve"/>
			<point x="232" y="646"/>
			<point x="256" y="669"/>
			<point x="270" y="680" type="qcurve"/>
			<point x="286" y="693"/>
			<point x="329" y="723"/>
			<point x="349" y="723" type="qcurve"/>
			<point x="372" y="723"/>
			<point x="399" y="694"/>
			<point x="399" y="675" type="qcurve"/>
			<point x="399" y="658"/>
			<point x="381" y="637"/>
			<point x="362" y="626" type="qcurve"/>
			<point x="340" y="614"/>
			<point x="296" y="569"/>
			<point x="276" y="550" type="qcurve"/>
			<point x="265" y="541"/>
			<point x="240" y="520"/>
			<point x="223" y="520" type="qcurve"/>
			<point x="212" y="520"/>
			<point x="196" y="524"/>
			<point x="185" y="532" type="qcurve"/>
			<point x="170" y="550"/>
			<point x="132" y="580"/>
			<point x="93" y="610"/>
			<point x="58" y="644"/>
		</contour>
	</outline>
</glyph>
<glyph name="breve" format="2">
	<unicode hex="02D8"/>
	<advance width="378"/>
	<outline>
		<contour>
			<point x="32" y="658" type="qcurve"/>
			<point x="32" y="679"/>
			<point x="61" y="707"/>
			<point x="79" y="707" type="qcurve"/>
			<point x="95" y="707"/>
			<point x="124" y="687"/>
			<point x="129" y="670" type="qcurve"/>
			<point x="146" y="659"/>
			<point x="171" y="637"/>
			<point x="194" y="637" type="qcurve"/>
			<point x="210" y="637"/>
			<point x="242" y="646"/>
			<point x="245" y="660" type="qcurve"/>
			<point x="253" y="682"/>
			<point x="281" y="702"/>
			<point x="296" y="702" type="qcurve"/>
			<point x="314" y="702"/>
			<point x="343" y="675"/>
			<point x="343" y="649" type="qcurve"/>
			<point x="343" y="622"/>
			<point x="314" y="580"/>
			<point x="270" y="552"/>
			<point x="216" y="537"/>
			<point x="192" y="537" type="qcurve"/>
			<point x="153" y="537"/>
			<point x="108" y="561"/>
			<point x="82" y="581" type="qcurve"/>
			<point x="64" y="595"/>
			<point x="32" y="631"/>
		</contour>
	</outline>
</glyph>
<glyph name="hungarumlaut" format="2">
	<unicode hex="02DD"/>
	<advance width="484"/>
	<outline>
		<contour>
			<point x="349" y="717" type="qcurve"/>
			<point x="368" y="728"/>
			<point x="383" y="728" type="qcurve"/>
			<point x="403" y="728"/>
			<point x="431" y="701"/>
			<point x="431" y="680" type="qcurve"/>
			<point x="431" y="665"/>
			<point x="422" y="649" type="qcurve"/>
			<point x="405" y="631"/>
			<point x="361" y="583"/>
			<point x="316" y="539"/>
			<point x="275" y="508"/>
			<point x="260" y="508" type="qcurve"/>
			<point x="241" y="508"/>
			<point x="213" y="538"/>
			<point x="213" y="566" type="qcurve"/>
			<point x="216" y="579"/>
			<point x="253" y="625"/>
			<point x="300" y="671"/>
			<point x="342" y="710"/>
		</contour>
		<contour>
			<point x="206" y="750" type="qcurve"/>
			<point x="211" y="753"/>
			<point x="229" y="760"/>
			<point x="239" y="760" type="qcurve"/>
			<point x="262" y="760"/>
			<point x="289" y="734"/>
			<point x="289" y="715" type="qcurve"/>
			<point x="289" y="704"/>
			<point x="278" y="681"/>
			<point x="267" y="670" type="qcurve"/>
			<point x="234" y="653"/>
			<point x="173" y="601"/>
			<point x="148" y="575" type="qcurve"/>
			<point x="138" y="565"/>
			<point x="116" y="556"/>
			<point x="106" y="556" type="qcurve"/>
			<point x="87" y="556"/>
			<point x="60" y="584"/>
			<point x="60" y="604" type="qcurve"/>
			<point x="60" y="620"/>
			<point x="89" y="661"/>
			<point x="133" y="701"/>
			<point x="184" y="737"/>
		</contour>
	</outline>
</glyph>
<glyph name="acutecomb" format="2">
	<unicode hex="0301"/>
	<advance width="1"/>
	<outline>
		<contour>
			<point x="-56" y="670" type="qcurve"/>
			<point x="-80" y="647"/>
			<point x="-151" y="597"/>
			<point x="-180" y="582" type="qcurve"/>
			<point x="-195" y="574"/>
			<point x="-210" y="574" type="qcurve"/>
			<point x="-222" y="574"/>
			<point x="-240" y="584"/>
			<point x="-248" y="602"/>
			<point x="-243" y="626"/>
			<point x="-232" y="640" type="qcurve"/>
			<point x="-224" y="649"/>
			<point x="-199" y="679"/>
			<point x="-170" y="711"/>
			<point x="-143" y="739"/>
			<point x="-132" y="750" type="qcurve"/>
			<point x="-119" y="762"/>
			<point x="-93" y="773"/>
			<point x="-81" y="773" type="qcurve"/>
			<point x="-64" y="773"/>
			<point x="-37" y="755"/>
			<point x="-27" y="726"/>
			<point x="-37" y="689"/>
		</contour>
	</outline>
	<anchor name="_mark0" x="-203" y="500"/>
</glyph>
<glyph name="uni0302" format="2">
	<unicode hex="0302"/>
	<advance width="1"/>
	<outline>
		<contour>
			<point x="-114" y="554" type="qcurve"/>
			<point x="-135" y="554"/>
			<point x="-156" y="576" type="qcurve"/>
			<point x="-196" y="620"/>
			<point x="-217" y="641"/>
			<point x="-227" y="651" type="qcurve"/>
			<point x="-256" y="629"/>
			<point x="-297" y="600"/>
			<point x="-311" y="590" type="qcurve"/>
			<point x="-332" y="575"/>
			<point x="-350" y="575" type="qcurve"/>
			<point x="-362" y="575"/>
			<point x="-380" y="588"/>
			<point x="-385" y="609"/>
			<point x="-376" y="635"/>
			<point x="-365" y="648" type="qcurve"/>
			<point x="-344" y="673"/>
			<point x="-297" y="715"/>
			<point x="-271" y="732" type="qcurve"/>
			<point x="-244" y="750"/>
			<point x="-217" y="750" type="qcurve"/>
			<point x="-186" y="750"/>
			<point x="-163" y="727" type="qcurve"/>
			<point x="-142" y="707"/>
			<point x="-104" y="658"/>
			<point x="-85" y="626" type="qcurve"/>
			<point x="-76" y="611"/>
			<point x="-75" y="585"/>
			<point x="-84" y="566"/>
			<point x="-102" y="554"/>
		</contour>
	</outline>
	<anchor name="_mark0" x="-234" y="500"/>
</glyph>
<glyph name="uni0304" format="2">
	<unicode hex="0304"/>
	<advance width="1"/>
	<outline>
		<contour>
			<point x="-368" y="624" type="qcurve"/>
			<point x="-376" y="620"/>
			<point x="-390" y="618"/>
			<point x="-396" y="618" type="qcurve"/>
			<point x="-418" y="618"/>
			<point x="-445" y="645"/>
			<point x="-445" y="664" type="qcurve"/>
			<point x="-445" y="688"/>
			<point x="-407" y="717"/>
			<point x="-349" y="732"/>
			<point x="-281" y="737"/>
			<point x="-252" y="737" type="qcurve"/>
			<point x="-214" y="737"/>
			<point x="-140" y="733"/>
			<point x="-108" y="733" type="qcurve"/>
			<point x="-81" y="730"/>
			<point x="-54" y="700"/>
			<point x="-54" y="683" type="qcurve"/>
			<point x="-54" y="666"/>
			<point x="-81" y="635"/>
			<point x="-108" y="633" type="qcurve"/>
			<point x="-130" y="633"/>
			<point x="-207" y="637"/>
			<point x="-249" y="637" type="qcurve"/>
			<point x="-285" y="637"/>
			<point x="-350" y="632"/>
		</contour>
	</outline>
	<anchor name="_mark0" x="-256" y="520"/>
</glyph>
<glyph name="uni0306" format="2">
	<unicode hex="0306"/>
	<advance width="1"/>
	<outline>
		<contour>
			<point x="-345" y="671" type="qcurve"/>
			<point x="-345" y="692"/>
			<point x="-316" y="720"/>
			<point x="-298" y="720" type="qcurve"/>
			<point x="-282" y="720"/>
			<point x="-253" y="700"/>
			<point x="-248" y="683" type="qcurve"/>
			<point x="-231" y="672"/>
			<point x="-206" y="650"/>
			<point x="-183" y="650" type="qcurve"/>
			<point x="-167" y="650"/>
			<point x="-135" y="659"/>
			<point x="-132" y="673" type="qcurve"/>
			<point x="-124" y="695"/>
			<point x="-96" y="715"/>
			<point x="-81" y="715" type="qcurve"/>
			<point x="-63" y="715"/>
			<point x="-34" y="688"/>
			<point x="-34" y="662" type="qcurve"/>
			<point x="-34" y="635"/>
			<point x="-63" y="593"/>
			<point x="-107" y="565"/>
			<point x="-161" y="550"/>
			<point x="-185" y="550" type="qcurve"/>
			<point x="-224" y="550"/>
			<point x="-269" y="574"/>
			<point x="-295" y="594" type="qcurve"/>
			<point x="-313" y="608"/>
			<point x="-345" y="644"/>
		</contour>
	</outline>
	<anchor name="_mark0" x="-191" y="470"/>
</glyph>
<glyph name="uni0308" format="2">
	<unicode hex="0308"/>
	<advance width="1"/>
	<outline>
		<contour>
			<point x="-64" y="720" type="qcurve"/>
			<point x="-51" y="729"/>
			<point x="-30" y="729" type="qcurve"/>
			<point x="-18" y="729"/>
			<point x="1" y="717"/>
			<point x="13" y="699"/>
			<point x="19" y="680"/>
			<point x="19" y="674" type="qcurve"/>
			<point x="19" y="661"/>
			<point x="7" y="635"/>
			<point x="-15" y="615"/>
			<point x="-43" y="603"/>
			<point x="-59" y="603" type="qcurve"/>
			<point x="-86" y="603"/>
			<point x="-116" y="641"/>
			<point x="-116" y="663" type="qcurve"/>
			<point x="-116" y="680"/>
			<point x="-93" y="715"/>
		</contour>
		<contour>
			<point x="-195" y="642" type="qcurve"/>
			<point x="-204" y="627"/>
			<point x="-230" y="614"/>
			<point x="-243" y="614" type="qcurve"/>
			<point x="-267" y="614"/>
			<point x="-304" y="649"/>
			<point x="-304" y="673" type="qcurve"/>
			<point x="-304" y="683"/>
			<point x="-301" y="692" type="qcurve"/>
			<point x="-301" y="717"/>
			<point x="-274" y="744"/>
			<point x="-251" y="744" type="qcurve"/>
			<point x="-223" y="744"/>
			<point x="-183" y="704"/>
			<point x="-183" y="678" type="qcurve"/>
			<point x="-183" y="660"/>
		</contour>
	</outline>
	<anchor name="_mark0" x="-158" y="520"/>
</glyph>
<glyph name="uni030B" format="2">
	<unicode hex="030B"/>
	<advance width="1"/>
	<outline>
		<contour>
			<point x="-134" y="779" type="qcurve"/>
			<point x="-115" y="790"/>
			<point x="-100" y="790" type="qcurve"/>
			<point x="-80" y="790"/>
			<point x="-52" y="763"/>
			<point x="-52" y="742" type="qcurve"/>
			<point x="-52" y="727"/>
			<point x="-61" y="711" type="qcurve"/>
			<point x="-78" y="693"/>
			<point x="-122" y="645"/>
			<point x="-167" y="601"/>
			<point x="-208" y="570"/>
			<point x="-223" y="570" type="qcurve"/>
			<point x="-242" y="570"/>
			<point x="-270" y="600"/>
			<point x="-270" y="628" type="qcurve"/>
			<point x="-267" y="641"/>
			<point x="-230" y="687"/>
			<point x="-183" y="733"/>
			<point x="-141" y="772"/>
		</contour>
		<contour>
			<point x="-277" y="812" type="qcurve"/>
			<point x="-272" y="815"/>
			<point x="-254" y="822"/>
			<point x="-244" y="822" type="qcurve"/>
			<point x="-221" y="822"/>
			<point x="-194" y="796"/>
			<point x="-194" y="777" type="qcurve"/>
			<point x="-194" y="766"/>
			<point x="-205" y="743"/>
			<point x="-216" y="732" type="qcurve"/>
			<point x="-249" y="715"/>
			<point x="-310" y="663"/>
			<point x="-335" y="637" type="qcurve"/>
			<point x="-345" y="627"/>
			<point x="-367" y="618"/>
			<point x="-377" y="618" type="qcurve"/>
			<point x="-396" y="618"/>
			<point x="-423" y="646"/>
			<point x="-423" y="666" type="qcurve"/>
			<point x="-423" y="682"/>
			<point x="-394" y="723"/>
			<point x="-350" y="763"/>
			<point x="-299" y="799"/>
		</contour>
	</outline>
	<anchor name="_mark0" x="-310" y="500"/>
</glyph>
<glyph name="uni0312" format="2">
	<unicode hex="0312"/>
	<advance width="1"/>
	<outline>
		<contour>
			<point x="-231" y="630" type="qcurve"/>
			<point x="-245" y="618"/>
			<point x="-267" y="618" type="qcurve"/>
			<point x="-287" y="618"/>
			<point x="-312" y="647"/>
			<point x="-312" y="667" type="qcurve"/>
			<point x="-312" y="681"/>
			<point x="-301" y="702"/>
			<point x="-291" y="719" type="qcurve"/>
			<point x="-250" y="789" type="line"/>
			<point x="-240" y="806"/>
			<point x="-215" y="853"/>
			<point x="-183" y="895"/>
			<point x="-146" y="925"/>
			<point x="-124" y="925" type="qcurve"/>
			<point x="-102" y="925"/>
			<point x="-75" y="897"/>
			<point x="-75" y="879" type="qcurve"/>
			<point x="-75" y="868"/>
			<point x="-86" y="845"/>
			<point x="-99" y="835" type="qcurve"/>
			<point x="-107" y="829"/>
			<point x="-112" y="820" type="qcurve"/>
			<point x="-122" y="806"/>
			<point x="-138" y="782"/>
			<point x="-147" y="767" type="qcurve"/>
			<point x="-155" y="754"/>
			<point x="-174" y="716"/>
			<point x="-195" y="676"/>
			<point x="-219" y="640"/>
		</contour>
	</outline>
	<anchor name="_mark0" x="-279" y="500"/>
</glyph>
<glyph name="uni0313" format="2">
	<unicode hex="0313"/>
	<advance width="1"/>
	<outline>
		<contour>
			<point x="-324" y="605" type="qcurve"/>
			<point x="-324" y="619"/>
			<point x="-310" y="652"/>
			<point x="-291" y="688"/>
			<point x="-271" y="724"/>
			<point x="-264" y="741" type="qcurve"/>
			<point x="-287" y="747"/>
			<point x="-309" y="775"/>
			<point x="-309" y="790" type="qcurve"/>
			<point x="-309" y="809"/>
			<point x="-286" y="839"/>
			<point x="-257" y="839" type="qcurve"/>
			<point x="-242" y="839"/>
			<point x="-208" y="831"/>
			<point x="-178" y="813"/>
			<point x="-158" y="786"/>
			<point x="-158" y="767" type="qcurve"/>
			<point x="-158" y="746"/>
			<point x="-171" y="699"/>
			<point x="-191" y="652"/>
			<point x="-215" y="608"/>
			<point x="-227" y="590" type="qcurve"/>
			<point x="-238" y="573"/>
			<point x="-265" y="556"/>
			<point x="-277" y="556" type="qcurve"/>
			<point x="-298" y="556"/>
			<point x="-324" y="584"/>
		</contour>
	</outline>
</glyph>
<glyph name="uni0323" format="2">
	<unicode hex="0323"/>
	<advance width="1"/>
	<outline>
		<contour>
			<point x="-140" y="-96" type="qcurve"/>
			<point x="-114" y="-96"/>
			<point x="-86" y="-129"/>
			<point x="-86" y="-146" type="qcurve"/>
			<point x="-86" y="-178"/>
			<point x="-123" y="-212"/>
			<point x="-143" y="-212" type="qcurve"/>
			<point x="-155" y="-212"/>
			<point x="-178" y="-202"/>
			<point x="-196" y="-185"/>
			<point x="-207" y="-164"/>
			<point x="-207" y="-152" type="qcurve"/>
			<point x="-207" y="-145"/>
			<point x="-200" y="-125"/>
			<point x="-183" y="-108"/>
			<point x="-158" y="-96"/>
		</contour>
	</outline>
	<anchor name="_mark1" x="-135" y="0"/>
</glyph>
<glyph name="uni0324" format="2">
	<unicode hex="0324"/>
	<advance width="1"/>
	<outline>
		<contour>
			<point x="-102" y="-112" type="qcurve"/>
			<point x="-89" y="-103"/>
			<point x="-68" y="-103" type="qcurve"/>
			<point x="-55" y="-103"/>
			<point x="-37" y="-116"/>
			<point x="-25" y="-133"/>
			<point x="-19" y="-152"/>
			<point x="-19" y="-158" type="qcurve"/>
			<point x="-19" y="-171"/>
			<point x="-31" y="-197"/>
			<point x="-52" y="-217"/>
			<point x="-80" y="-229"/>
			<point x="-97" y="-229" type="qcurve"/>
			<point x="-126" y="-229"/>
			<point x="-154" y="-189"/>
			<point x="-154" y="-169" type="qcurve"/>
			<point x="-154" y="-152"/>
			<point x="-131" y="-117"/>
		</contour>
		<contour>
			<point x="-233" y="-190" type="qcurve"/>
			<point x="-243" y="-205"/>
			<point x="-268" y="-218"/>
			<point x="-281" y="-218" type="qcurve"/>
			<point x="-304" y="-218"/>
			<point x="-342" y="-184"/>
			<point x="-342" y="-159" type="qcurve"/>
			<point x="-342" y="-149"/>
			<point x="-339" y="-140" type="qcurve"/>
			<point x="-339" y="-116"/>
			<point x="-313" y="-88"/>
			<point x="-289" y="-88" type="qcurve"/>
			<point x="-262" y="-88"/>
			<point x="-221" y="-127"/>
			<point x="-221" y="-154" type="qcurve"/>
			<point x="-221" y="-172"/>
		</contour>
	</outline>
	<anchor name="_mark1" x="-181" y="0"/>
</glyph>
<glyph name="uni0327" format="2">
	<unicode hex="0327"/>
	<advance width="1"/>
	<outline>
		<contour>
			<point x="-195" y="21" type="qcurve"/>
			<point x="-187" y="31"/>
			<point x="-169" y="43"/>
			<point x="-154" y="43" type="qcurve"/>
			<point x="-136" y="43"/>
			<point x="-107" y="16"/>
			<point x="-107" y="-10" type="qcurve"/>
			<point x="-107" y="-26"/>
			<point x="-115" y="-44" type="qcurve"/>
			<point x="-80" y="-52"/>
			<point x="-30" y="-103"/>
			<point x="-30" y="-141" type="qcurve"/>
			<point x="-30" y="-168"/>
			<point x="-57" y="-211"/>
			<point x="-99" y="-241"/>
			<point x="-151" y="-258"/>
			<point x="-176" y="-258" type="qcurve"/>
			<point x="-214" y="-258"/>
			<point x="-266" y="-228"/>
			<point x="-266" y="-201" type="qcurve"/>
			<point x="-266" y="-182"/>
			<point x="-239" y="-152"/>
			<point x="-219" y="-152" type="qcurve"/>
			<point x="-210" y="-152"/>
			<point x="-177" y="-155"/>
			<point x="-165" y="-157" type="qcurve"/>
			<point x="-158" y="-155"/>
			<point x="-141" y="-149"/>
			<point x="-134" y="-142" type="qcurve"/>
			<point x="-183" y="-142"/>
			<point x="-224" y="-104"/>
			<point x="-224" y="-74" type="qcurve"/>
			<point x="-224" y="-59"/>
			<point x="-214" y="-23"/>
			<point x="-206" y="-4" type="qcurve"/>
			<point x="-205" y="-2"/>
			<point x="-199" y="16"/>
		</contour>
	</outline>
	<anchor name="_mark1" x="-154" y="0"/>
</glyph>
<glyph name="uni0328" format="2">
	<unicode hex="0328"/>
	<advance width="1"/>
	<outline>
		<contour>
			<point x="-147" y="5" type="line"/>
			<point x="-204" y="-65"/>
			<point x="-238" y="-129"/>
			<point x="-240" y="-156" type="qcurve"/>
			<point x="-241" y="-178"/>
			<point x="-220" y="-198"/>
			<point x="-201" y="-198" type="qcurve"/>
			<point x="-189" y="-198"/>
			<point x="-158" y="-191"/>
			<point x="-135" y="-184" type="qcurve"/>
			<point x="-116" y="-178"/>
			<point x="-89" y="-190"/>
			<point x="-81" y="-219"/>
			<point x="-94" y="-251"/>
			<point x="-109" y="-262" type="qcurve"/>
			<point x="-131" y="-278"/>
			<point x="-188" y="-294"/>
			<point x="-217" y="-294" type="qcurve"/>
			<point x="-248" y="-294"/>
			<point x="-300" y="-275"/>
			<point x="-334" y="-241"/>
			<point x="-349" y="-193"/>
			<point x="-347" y="-164" type="qcurve"/>
			<point x="-345" y="-135"/>
			<point x="-321" y="-78"/>
			<point x="-282" y="-24"/>
			<point x="-230" y="28"/>
			<point x="-198" y="53" type="qcurve"/>
		</contour>
	</outline>
	<anchor name="_mark2" x="-182" y="15"/>
</glyph>
<glyph name="tonos" format="2">
	<unicode hex="0384"/>
	<advance width="218"/>
	<outline>
		<contour>
			<point x="78" y="676" type="qcurve"/>
			<point x="86" y="697"/>
			<point x="114" y="718"/>
			<point x="129" y="718" type="qcurve"/>
			<point x="146" y="718"/>
			<point x="174" y="693"/>
			<point x="178" y="668" type="qcurve"/>
			<point x="175" y="617"/>
			<point x="145" y="534"/>
			<point x="123" y="489" type="qcurve"/>
			<point x="114" y="471"/>
			<point x="86" y="455"/>
			<point x="73" y="455" type="qcurve"/>
			<point x="55" y="455"/>
			<point x="27" y="481"/>
			<point x="27" y="504" type="qcurve"/>
			<point x="27" y="514"/>
			<point x="32" y="529" type="qcurve"/>
			<point x="49" y="567"/>
			<point x="76" y="634"/>
		</contour>
	</outline>
</glyph>
